<?xml version="1.0" standalone="no"?>
<!DOCTYPE svg PUBLIC "-//W3C//DTD SVG 1.1//EN" "http://www.w3.org/Graphics/SVG/1.1/DTD/svg11.dtd" >
<svg>
<metadata>
Created by FontForge 20090914 at Fri Oct 15 09:37:44 2021
 By www-data
Copyright (c) Gophmann A.L. on base Modern Fonts 1887, 2010. All rights reserved.
</metadata>
<defs>
<font id="Seminaria-Normal" horiz-adv-x="432" >
  <font-face 
    font-family="Seminaria"
    font-weight="400"
    font-stretch="normal"
    units-per-em="1000"
    panose-1="2 0 4 0 0 0 0 0 0 0"
    ascent="800"
    descent="-200"
    x-height="605.003"
    cap-height="672"
    bbox="-80.001 -176.47 991 845.005"
    underline-thickness="20"
    underline-position="-123"
    unicode-range="U+0020-U+2122"
  />
<missing-glyph horiz-adv-x="208" 
 />
    <glyph glyph-name=".notdef" horiz-adv-x="208" 
 />
    <glyph glyph-name="space" unicode=" " horiz-adv-x="208" 
 />
    <glyph glyph-name="exclam" unicode="!" horiz-adv-x="217" 
d="M188 64c0 -18.667 -7.5 -34.5 -22.5 -47.5s-33.5 -19.5 -55.5 -19.5c-20 0 -37.667 6.5 -53 19.5s-23 28.833 -23 47.5c0 19.333 7.66699 35.5 23 48.5s33 19.5 53 19.5c22 0 40.5 -6.5 55.5 -19.5s22.5 -29.167 22.5 -48.5zM197 673
c-1.33301 -1.33301 -2.33691 -2.66602 -3.00391 -3.99902l-2 -4l-3 -5c-1.33301 -2.66699 -2.66602 -5.16699 -3.99902 -7.5s-2.66602 -4.83301 -3.99902 -7.5c-0.666992 -1.33301 -1 -2.33301 -1 -3s-0.333008 -1.66699 -1 -3s-1.16699 -2.5 -1.5 -3.5
s-0.833008 -2.16699 -1.5 -3.5c-1.33301 -4 -2.33301 -7.33301 -3 -10c-1.33301 -3.33301 -2.16602 -6.33301 -2.49902 -9s-1.16602 -5.66699 -2.49902 -9c0 -1.33301 -0.333008 -2.66602 -1 -3.99902l-3 -14c0 -2 -0.166992 -4 -0.5 -6s-0.5 -4 -0.5 -6
c-0.666992 -2 -1 -4 -1 -6s-0.333008 -4.33301 -1 -7c-0.666992 -5.33301 -1 -10.5 -1 -15.5v-15.5l-12 -357h-76l-13 357c-0.666992 3.33301 -1 6.33301 -1 9v9c-0.666992 2 -1 4.16699 -1 6.5s-0.333008 4.5 -1 6.5c-0.666992 14.667 -2.66699 28 -6 40
c-1.33301 2.66699 -2 5 -2 7c-1.33301 3.33301 -2.16602 6.33301 -2.49902 9s-1.16602 5.66699 -2.49902 9c-0.666992 1.33301 -1.16699 2.5 -1.5 3.5s-0.833008 2.16699 -1.5 3.5c-0.666992 2.66699 -2.33398 6.66699 -5.00098 12c-0.666992 1.33301 -1.33398 3 -2.00098 5
s-1.33398 3.66699 -2.00098 5c-1.33301 2.66699 -2.66602 5 -3.99902 7l-4 6c-0.666992 1.33301 -1.16699 2.16602 -1.5 2.49902s-0.833008 1.16602 -1.5 2.49902h177z" />
    <glyph glyph-name="quotedbl" unicode="&#x22;" horiz-adv-x="246" 
d="M222 672l-17 -219h-53l-13 219h83zM106 672l-17 -219h-53l-13 219h83z" />
    <glyph glyph-name="numbersign" unicode="#" horiz-adv-x="455" 
d="M295 481h-111l-21.5 -141l-21.5 -141h110zM438 544l-9.00195 -63h-78l-21.5 -141l-21.5 -141h75l-8 -63h-78c-3.33301 -21.333 -7.16602 -43.833 -11.499 -67.5s-8.16602 -46.167 -11.499 -67.5h-55l21 135h-110l-11 -67.5l-11 -67.5h-56l21 135h-78l11 63h78l22 141
l22 141h-79l12 63h78l10.5 65l10.5 63h56l-21 -128h111l10 65l10 63h57l-21 -128h76z" />
    <glyph glyph-name="dollar" unicode="$" horiz-adv-x="502" 
d="M212 632c-33.333 -11.333 -50.001 -38.668 -50.001 -82.001c0.666992 -16 4.83398 -32.667 12.501 -50s20.167 -35.666 37.5 -54.999v187zM331.999 147.998c0 34 -20.665 74.666 -61.998 121.999v-221c13.333 6.66699 26.333 17.334 39 32.001
c7.33301 9.33301 13.166 19.5 17.499 30.5s6.16602 23.167 5.49902 36.5zM450.001 154.997c-8.66699 -5.33301 -22.6689 -21.6709 -42.002 -49.0039c-22 -29.333 -40.667 -50.666 -56 -63.999h-1c-22.667 -19.333 -49.667 -31.666 -81 -36.999v-54h-58v54
c-19.333 2 -37.666 5.83301 -54.999 11.5s-33 12.5 -47 20.5c-31.333 21.333 -47 44 -47 68c0 13.333 6.5 25 19.5 35s28.5 15 46.5 15c19.333 0 35.5 -5 48.5 -15s19.5 -21.667 19.5 -35c0 -14 -9 -26.333 -27 -37c9.33301 -10 23.333 -17.333 42 -22v281
c-2 2.66699 -4.66699 5.5 -8 8.5s-6.66602 6.16699 -9.99902 9.5c-1.33301 1.33301 -3 2.83301 -5 4.5s-3.66699 3.16699 -5 4.5c-24 22 -44.333 42.833 -61 62.5s-28.667 36.5 -36 50.5c-2 4.66699 -4.5 10.167 -7.5 16.5s-5.5 11.833 -7.5 16.5
c-4 8.66699 -14.667 18 -32 28c14 8.66699 30.333 26.334 49 53.001c20 28 36 48 48 60c18 18 43 29 75 33v37h58v-36c19.333 -2 37.5 -5.83301 54.5 -11.5s32.167 -13.167 45.5 -22.5h-1c17.333 -10.667 30 -21.667 38 -33s12 -22.666 12 -33.999
c0 -13.333 -6.66699 -24.833 -20 -34.5s-29 -14.5 -47 -14.5c-19.333 0 -35.5 4.83301 -48.5 14.5s-19.5 21.167 -19.5 34.5c0 14.667 8.66699 27 26 37c-4.66699 4.66699 -10.5 9 -17.5 13s-14.5 7 -22.5 9v-243c2.66699 -2.66699 5.16699 -5 7.5 -7
s4.83301 -4.66699 7.5 -8c0 0.666992 1.66699 -0.5 5 -3.5s5.66602 -5.16699 6.99902 -6.5c24 -22.667 45.333 -46.167 64 -70.5s34 -48.5 46 -72.5c1.33301 -2 2.33301 -3.83301 3 -5.5s1.33398 -3.16699 2.00098 -4.5c4 -8.66699 8.66699 -17.5 14 -26.5
s13.333 -16.5 24 -22.5v-8z" />
    <glyph glyph-name="percent" unicode="%" horiz-adv-x="725" 
d="M585 329c0 43.333 -14.333 65 -43 65s-43 -21.667 -43 -65v-239c0 -43.333 14.333 -65 43 -65s43 21.667 43 65v239zM226 586c0 43.333 -14.333 65 -43 65s-43 -21.667 -43 -65v-240c0 -43.333 14.333 -65 43 -65s43 21.667 43 65v240zM558 672l-323 -671l-57 2l312 669
h68zM692 204c-11.333 -5.33301 -19.002 -21.6699 -23.002 -49.0029c-1.33301 -6 -2.16602 -11.333 -2.49902 -16s-0.833008 -9.66699 -1.5 -15l-2 -16l-2 -16c-4 -24.667 -16.667 -46.667 -38 -66c-10.667 -10 -23 -18 -37 -24s-29.333 -9 -46 -9
c-32.667 0 -59.334 11 -80.001 33c-19.333 19.333 -31.666 41.333 -36.999 66c-1.33301 4.66699 -2.16602 9.5 -2.49902 14.5s-0.833008 10.5 -1.5 16.5c-0.666992 4.66699 -1.33398 9.66699 -2.00098 15l-2 16c-4 26.667 -14.667 45 -32 55c7.33301 4 13.833 11 19.5 21
s9.83398 21.333 12.501 34c0.666992 4.66699 1.33398 9.66699 2.00098 15l2 16c0.666992 6 1.16699 11.5 1.5 16.5s1.16602 10.167 2.49902 15.5c4.66699 22.667 17.334 44.334 38.001 65.001c22.667 22.667 50 34 82 34c15.333 0 30 -3.16699 44 -9.5
s26.333 -14.166 37 -23.499c20.667 -19.333 33 -41.666 37 -66.999l2 -15.5l2 -15.5c0.666992 -5.33301 1.16699 -10.5 1.5 -15.5s1.16602 -10.167 2.49902 -15.5c4 -28 12 -45 24 -51zM332.998 459.996c-10.667 -5.33301 -18.332 -21.665 -22.999 -48.998
c-1.33301 -6 -2.16602 -11.333 -2.49902 -16s-0.833008 -9.33398 -1.5 -14.001l-2 -16.5l-2 -16.5c-2 -12.667 -6.33301 -24.5 -13 -35.5s-15 -21.167 -25 -30.5c-10.667 -10 -23 -18 -37 -24s-29 -9 -45 -9c-33.333 0 -60.333 11 -81 33c-20 20.667 -32.333 42.667 -37 66
c-1.33301 4.66699 -2.16602 9.66699 -2.49902 15s-0.833008 11 -1.5 17c-0.666992 4 -1.33398 8.66699 -2.00098 14l-2 16c-4 26.667 -14.667 45 -32 55c8 4 14.667 11 20 21s9.33301 21.667 12 35c0.666992 4 1.33398 8.66699 2.00098 14l2 16
c0.666992 6 1.16699 11.667 1.5 17s1.16602 10.666 2.49902 15.999c4.66699 22 17.334 43.667 38.001 65c23.333 22 50.666 33 81.999 33c15.333 0 30.166 -3 44.499 -9s26.5 -13.667 36.5 -23c20.667 -20.667 33 -43 37 -67l2 -16l2 -16
c0.666992 -5.33301 1.16699 -10.333 1.5 -15s1.16602 -9.66699 2.49902 -15c4.66699 -28.667 12.667 -46 24 -52z" />
    <glyph glyph-name="ampersand" unicode="&#x26;" horiz-adv-x="606" 
d="M346 321c-11.333 0.666992 -24.667 0.834961 -40 0.501953s-31.666 -0.5 -48.999 -0.5c-46.667 -0.666992 -70.334 -26.334 -71.001 -77.001c0 -2 -0.166992 -8.83301 -0.5 -20.5s-0.5 -24.834 -0.5 -39.501v-44v-34c4 -17.333 12 -29.666 24 -36.999
c12 -6.66699 27.333 -11.834 46 -15.501s42 -5.5 70 -5.5c5.33301 0 8.83301 0.166992 10.5 0.5s5.16699 0.5 10.5 0.5v272zM590.999 318.001c0.666992 -15.333 -1.33496 -28.333 -6.00195 -39c-8 -15.333 -23.667 -23 -47 -23c-35.333 0.666992 -53 13 -53 37
c0 16.667 11 24.334 33 23.001c0 1.33301 -3.66699 2.33301 -11 3s-15 1 -23 1h-25v-209c0 -30.667 1 -49.334 3 -56.001c4 -20.667 16 -36.334 36 -47.001l-4 -8h-234c-114 0 -181 47.667 -201 143c-4.66699 21.333 -17 36 -37 44c17.333 9.33301 31 26.333 41 51l-1 -1
c4 16 13.333 33.667 28 53c10 12.667 20.667 23 32 31s24.666 14.333 39.999 19c-46.667 18 -75 56 -85 114l1 -1c-9.33301 23.333 -20 39.666 -32 48.999l10.5 11c3.66699 4 6.83398 7.66699 9.50098 11c6 4 10.667 12.333 14 25c6 19.333 15.833 36.833 29.5 52.5
s30 29 49 40s40.333 19.167 64 24.5s48.834 7.66602 75.501 6.99902c17.333 -0.666992 37.666 -4.66699 60.999 -12c24.667 -8 42.334 -12 53.001 -12c15.333 0 32.666 8.33301 51.999 25l26 -19c-17.333 -12 -34.333 -33.333 -51 -64c-16.667 -32 -25 -59.333 -25 -82
c0 -5.33301 0.666992 -10.333 2 -15s2.66602 -8.66699 3.99902 -12c6.66699 6.66699 16.334 10 29.001 10c24 0 36.667 -10.333 38 -31c0 -9.33301 -5.66699 -16.666 -17 -21.999s-24.666 -7.66602 -39.999 -6.99902c-34 2 -64 20 -90 54
c-23.333 33.333 -31.666 66.666 -24.999 99.999c6.66699 -5.33301 11.167 -8.83301 13.5 -10.5s3.83301 -2.5 4.5 -2.5c4 0 7.66699 2.83301 11 8.5s5 11.834 5 18.501c0 20.667 -18.333 30.667 -55 30c-41.333 -1.33301 -71.333 -14.666 -90 -39.999
c-10 -17.333 -16.667 -47 -20 -89c-0.666992 -5.33301 -1 -10.5 -1 -15.5v-15.5c0 -38.667 7 -67 21 -85c10 -10.667 44.333 -16 103 -16h24c8 0 16.667 0.333008 26 1c5.33301 0 11.333 0.166992 18 0.5s13.667 0.5 21 0.5s15.333 -0.166992 24 -0.5s18 -0.5 28 -0.5
c94 2 141.667 -15.333 143 -52z" />
    <glyph glyph-name="quotesingle" unicode="'" horiz-adv-x="129" 
d="M105 672l-16 -219h-54l-12 219h82z" />
    <glyph glyph-name="parenleft" unicode="(" horiz-adv-x="279" 
d="M254 637c-54 0 -81.0029 -38.334 -81.0029 -115.001v-371c0 -76.667 26.333 -115 79 -115v-40c-51.333 0 -93.333 18 -126 54c-26 30.667 -42.333 65.334 -49 104.001c-1.33301 15.333 -3.66602 34.5 -6.99902 57.5s-8.33301 49.5 -15 79.5l1 -1l-5 10
c-2 7.33301 -3.66699 11.666 -5 12.999c-3.33301 4 -6.83301 7.83301 -10.5 11.5s-8.16699 7.16699 -13.5 10.5c11.333 6 18.666 12.333 21.999 19s6 13.334 8 20.001c0.666992 1.33301 1.33398 2.83301 2.00098 4.5s1.33398 3.16699 2.00098 4.5
c4.66699 14 8.66699 35 12 63c1.33301 18 2.83301 33.333 4.5 46s3.16699 21.667 4.5 27c3.33301 18 9.33301 36 18 54s19.334 34.667 32.001 50c32 36 74.667 54 128 54z" />
    <glyph glyph-name="parenright" unicode=")" horiz-adv-x="279" 
d="M250 331c-4.66699 -3.33301 -9.33203 -8.16699 -13.999 -14.5s-8.66699 -15.166 -12 -26.499c-6 -16.667 -10.667 -37.667 -14 -63l-3.5 -37.5c-1 -10.333 -1.83301 -18.5 -2.5 -24.5c0 -2 -0.166992 -3.83301 -0.5 -5.5s-0.5 -3.16699 -0.5 -4.5
c-6.66699 -36.667 -24 -71.667 -52 -105c-32.667 -36 -74.334 -54 -125.001 -54v40c52 0 78 38.333 78 115v371c0 76.667 -26 115 -78 115l-2 40c51.333 0 93.333 -18 126 -54c13.333 -16 24.666 -32.667 33.999 -50s15.666 -35.333 18.999 -54
c0.666992 -15.333 2.83398 -34.333 6.50098 -57s8.83398 -49.334 15.501 -80.001c1.33301 -7.33301 3.5 -15 6.5 -23s9.16699 -14.667 18.5 -20v-8z" />
    <glyph glyph-name="asterisk" unicode="*" horiz-adv-x="411" 
d="M387 578c-21.333 -6 -42.498 -12.833 -63.498 -20.5s-43.167 -16.834 -66.5 -27.501l66.5 -25l63.5 -22l-38 -50l-54.5 32c-17.667 10 -37.834 20 -60.501 30c0.666992 -19.333 2 -37.833 4 -55.5s4.33301 -35.167 7 -52.5h-78c2.66699 17.333 4.83398 35 6.50098 53
s2.83398 36.667 3.50098 56c-20.667 -10 -40.667 -20.167 -60 -30.5s-38 -20.833 -56 -31.5l-38 49c20.667 6 42 13 64 21l68 26c-24.667 10 -47.5 18.833 -68.5 26.5l-61.5 21.5l35 50l54.5 -31c18.333 -10 39.166 -20.667 62.499 -32
c-0.666992 19.333 -1.83398 37.666 -3.50098 54.999s-3.83398 35 -6.50098 53h80c-3.33301 -17.333 -6 -34.666 -8 -51.999s-3.33301 -35.666 -4 -54.999l59.5 30c19 10 37.167 20.667 54.5 32z" />
    <glyph glyph-name="plus" unicode="+" horiz-adv-x="653" 
d="M626 358l-1 -52h-267c0 -34 -0.166992 -68.167 -0.5 -102.5s-0.5 -68.5 -0.5 -102.5h-75v205h-256v52l256 1v206h76v-206z" />
    <glyph glyph-name="comma" unicode="," horiz-adv-x="221" 
d="M182 54c0 -52.667 -44.3311 -109 -132.998 -169l-20 10v8c1.33301 0.666992 2.16602 1.33398 2.49902 2.00098s1.16602 1.66699 2.49902 3c2 1.33301 3.83301 2.66602 5.5 3.99902s4.16699 3.66602 7.5 6.99902c8.66699 6 17 13.833 25 23.5s15.667 20.834 23 33.501
l13 22.5c3.33301 5.66699 6 11.834 8 18.501c-24.667 -2.66699 -43.334 2.66602 -56.001 15.999c-10.667 10 -16 23 -16 39c0 13.333 6.33301 26 19 38s29.334 18 50.001 18c46 0 69 -24.667 69 -74z" />
    <glyph glyph-name="hyphen" unicode="-" horiz-adv-x="246" 
d="M220 276h-202v41h202v-41z" />
    <glyph glyph-name="period" unicode="." horiz-adv-x="201" 
d="M178 64c0 -18.667 -7.66699 -34.5 -23 -47.5s-33.333 -19.5 -54 -19.5s-38.834 6.5 -54.501 19.5s-23.5 28.833 -23.5 47.5c0 19.333 7.83301 35.5 23.5 48.5s33.834 19.5 54.501 19.5s38.667 -6.5 54 -19.5s23 -29.167 23 -48.5z" />
    <glyph glyph-name="slash" unicode="/" horiz-adv-x="341" 
d="M305 670l-208 -672h-59l208 672h59z" />
    <glyph glyph-name="zero" unicode="0" horiz-adv-x="490" 
d="M317 526c0 78 -23.667 117 -71 117c-48.667 0 -73 -39 -73 -117v-380c0 -76.667 23.667 -115 71 -115c48.667 0 73 38.333 73 115v380zM457 332c-8 -4.66699 -16.6641 -18.333 -25.9971 -41c-5.33301 -14.667 -9.66602 -37.667 -12.999 -69
c-1.33301 -20 -2.5 -36 -3.5 -48s-2.16699 -20 -3.5 -24c-3.33301 -18.667 -9.5 -36.834 -18.5 -54.501s-20.167 -34.167 -33.5 -49.5c-15.333 -17.333 -33 -30.666 -53 -39.999s-40.667 -14 -62 -14c-45.333 0 -83.333 18 -114 54h1c-28.667 30.667 -46 65 -52 103
c-1.33301 15.333 -3.83301 36 -7.5 62s-8.16699 53 -13.5 81c-1.33301 3.33301 -2.83301 7.33301 -4.5 12s-2.83398 7.66699 -3.50098 9h1c-2.66699 4 -6 7.83301 -10 11.5s-8.66699 7.16699 -14 10.5c12 6.66699 22.667 22.667 32 48
c3.33301 7.33301 5.83301 16.833 7.5 28.5s3.16699 25.167 4.5 40.5c3.33301 26 5.33301 44.667 6 56c0.666992 3.33301 1.16699 6 1.5 8s0.5 4.66699 0.5 8c6.66699 36.667 24.667 71 54 103h-1c29.333 35.333 67.666 53 114.999 53c44.667 0 82.334 -17.667 113.001 -53
c28 -32 45 -66 51 -102c0.666992 -7.33301 1.16699 -14.833 1.5 -22.5s1.16602 -15.167 2.49902 -22.5c0.666992 -7.33301 1.16699 -14.333 1.5 -21s1.16602 -13.667 2.49902 -21c1.33301 -17.333 4 -32.5 8 -45.5s8.66699 -24.5 14 -34.5
c5.33301 -8.66699 10.666 -14.667 15.999 -18v-8z" />
    <glyph glyph-name="one" unicode="1" horiz-adv-x="240" 
d="M99 631c-1.33301 12.667 -5.5 21.5029 -12.5 26.5029s-12.5 10.833 -16.5 17.5c4.66699 -1.33301 9.16699 -2 13.5 -2h20.5c9.33301 0 22.5 0.166992 39.5 0.5s40.5 0.5 70.5 0.5c-13.333 -30 -20.333 -69.333 -21 -118v-419c0 -53.333 12 -99 36 -137h-170
c10.667 17.333 18.667 37.833 24 61.5s8.66602 48.167 9.99902 73.5c0.666992 32 1.16699 67.333 1.5 106s0.833008 74 1.5 106v28.5v41.5c0 15.333 -0.166992 32.166 -0.5 50.499s-0.5 36.833 -0.5 55.5l-20.5 -21l-28.5 -29c-10.667 4 -18.667 7.33301 -24 10
s-8.66602 4.66699 -9.99902 6s-1.5 2.5 -0.5 3.5s2.5 1.5 4.5 1.5c12 9.33301 27 27.666 45 54.999c25.333 41.333 38 68.666 38 81.999z" />
    <glyph glyph-name="two" unicode="2" horiz-adv-x="450" 
d="M435 235c0 -17.333 -11.999 -26 -35.999 -26c-21.333 0 -32 6.33301 -32 19c0 4.66699 0.666992 7.66699 2 9c-10.667 -1.33301 -16 -12.333 -16 -33c0 -74.667 23 -143 69 -205c-16 -0.666992 -36.5 -1 -61.5 -1h-74.5h-106c-24.667 0.666992 -46.667 1 -66 1h-52l-38 2
c-3.33301 4 -5.5 9.33301 -6.5 16s-0.833008 13.334 0.5 20.001c1.33301 14 7.16602 29.833 17.499 47.5s23.5 35.167 39.5 52.5c26.667 30 54.167 64.5 82.5 103.5s54.5 78.5 78.5 118.5c24.667 42 43.5 79.667 56.5 113s19.5 60.666 19.5 81.999
c0 30 -8.66699 52.667 -26 68c-16 14 -34 21 -54 21c-17.333 0 -31.833 -4.16699 -43.5 -12.5s-17.5 -18.833 -17.5 -31.5c0 -3.33301 2.33301 -7.83301 7 -13.5s9 -8.5 13 -8.5c0.666992 0 1.83398 0.333008 3.50098 1s6.16699 2.66699 13.5 6c4 -30.667 -5 -62 -27 -94
c-24.667 -32.667 -54 -50 -88 -52c-14 -1.33301 -25.667 0.666992 -35 6c-13.333 7.33301 -19.666 15 -18.999 23c1.33301 18.667 12.666 28 33.999 28c12.667 0 23 -4 31 -12c4.66699 6.66699 7 17.334 7 32.001c0 24 -8 50.667 -24 80
c-8.66699 15.333 -17.167 28.666 -25.5 39.999s-16.833 20 -25.5 26l23 15c20.667 -15.333 37.667 -23 51 -23c9.33301 0 26.666 4 51.999 12c26.667 9.33301 48.667 14 66 14c46.667 0 83.334 -10.667 110.001 -32c6.66699 -6 15.167 -15.333 25.5 -28
s22.166 -28.667 35.499 -48c5.33301 -8.66699 11.166 -16.334 17.499 -23.001s12.833 -12.667 19.5 -18c-6 -3.33301 -13.5 -10.166 -22.5 -20.499s-19.167 -23.166 -30.5 -38.499l-85 -122.5l-144 -215.5c-12.667 -19.333 -19 -35.333 -19 -48c0 -28 28 -41.333 84 -40
c52 1.33301 78 11.666 78 30.999c0 13.333 -6 20 -18 20c-0.666992 0 -2.5 -0.666992 -5.5 -2l-17.5 -8c0 23.333 1.83301 44.833 5.5 64.5s9.83398 37.167 18.501 52.5c24 42 58.667 63 104 63c34 0 51 -10.333 51 -31z" />
    <glyph glyph-name="three" unicode="3" horiz-adv-x="412" 
d="M92 553c0 -0.666992 0.333008 -0.666992 1 0h-1zM399 175c0 -1.33301 -6.00098 -7.33105 -18.001 -17.998c-8.66699 -8.66699 -13.334 -14 -14.001 -16l-21.5 -45.5c-5.66699 -12.333 -10.167 -21.166 -13.5 -26.499c-13.333 -21.333 -34.333 -41.333 -63 -60h1
c-24 -13.333 -51 -20.333 -81 -21s-58.167 4.66602 -84.5 15.999s-48.333 28.333 -66 51s-26.5 51 -26.5 85c0 11.333 1.66699 23.666 5 36.999s7.66602 25 12.999 35c15.333 30 38.666 45 69.999 45c42.667 0 64 -18.667 64 -56c0 -8.66699 -1.66699 -17.167 -5 -25.5
s-7.66602 -16 -12.999 -23s-11.833 -12.667 -19.5 -17s-15.5 -6.5 -23.5 -6.5h-5c-2 0 -3.66699 0.333008 -5 1c-1.33301 0 -2.66602 0.166992 -3.99902 0.5s-2.66602 0.5 -3.99902 0.5c-3.33301 0.666992 -4.66602 1.16699 -3.99902 1.5
s-0.666016 0.166016 -3.99902 -0.500977c5.33301 -27.333 16.166 -50.666 32.499 -69.999s41.166 -30.333 74.499 -33c36 0 55 20.333 57 61c1.33301 22 2.33301 43 3 63s1 37.667 1 53c0 22.667 -0.666992 41.667 -2 57s-3 27 -5 35
c-4.66699 7.33301 -12.667 13.833 -24 19.5s-22.666 8.5 -33.999 8.5c-10 0 -22.667 -13 -38 -39c0 2.66699 -0.333008 6.66699 -1 12l-2 16.5c-0.666992 5.66699 -1.33398 10.834 -2.00098 15.501s-1 8 -1 10c-0.666992 7.33301 -0.666992 14.333 0 21s1.66699 12.667 3 18
c3.33301 -1.33301 7.83301 -3 13.5 -5l11.5 -4c12 -4 18.667 -6 20 -6c39.333 0 59 47.333 59 142c0 22 -1 44 -3 66s-6.33301 37.333 -13 46c-10 12.667 -27 19 -51 19c-22 0 -39.667 -6 -53 -18s-21 -30 -23 -54c0 -2.66699 1 -5 3 -7
c5.33301 1.33301 9.66602 1.66602 12.999 0.999023c35.333 -8 53 -24 53 -48c0 -8 -2.16699 -16 -6.5 -24s-10.166 -15.167 -17.499 -21.5s-15.666 -11.5 -24.999 -15.5s-19 -6 -29 -6s-17.333 1 -22 3c-30 16.667 -45 39.667 -45 69c0 46.667 15.667 85.667 47 117
c28 26.667 63.333 41.667 106 45c34.667 2.66699 67.167 -4.83301 97.5 -22.5s53.166 -44.5 68.499 -80.5c1.33301 -4.66699 3.33301 -10.334 6 -17.001l10 -24c3.33301 -4 7.5 -9.33301 12.5 -16l15.5 -21c-14.667 -8 -25.667 -21.667 -33 -41l-11.5 -28.5
c-3 -7.66699 -5.83301 -13.167 -8.5 -16.5c-12 -16 -37.333 -37.333 -76 -64l3 -3c9.33301 -6 18.5 -12.833 27.5 -20.5s18.167 -16.167 27.5 -25.5c5.33301 -11.333 12.5 -24.5 21.5 -39.5l32.5 -53.5c0.666992 -3.33301 2.33398 -5.83301 5.00098 -7.5s5 -3.5 7 -5.5
c11.333 -8 17 -14 17 -18z" />
    <glyph glyph-name="four" unicode="4" horiz-adv-x="434" 
d="M239 469c0.666992 7.33301 1.16699 14.832 1.5 22.499s0.833008 15.834 1.5 24.501v12l-83.5 -168.5l-82.5 -168.5l1 -1c27.333 0 53.833 -0.166992 79.5 -0.5s52.5 -0.5 80.5 -0.5c1.33301 1.33301 2.5 3 3.5 5s1.5 4 1.5 6zM395 121.999
c-8 9.33301 -24.6641 13.998 -49.9971 13.998c-6.66699 0 -10 -6.33301 -10 -19c0 -10.667 0.666992 -22.167 2 -34.5s3.16602 -24.333 5.49902 -36s4.83301 -22.834 7.5 -33.501s5.66699 -20 9 -28c1.33301 -1.33301 3.16602 -3 5.49902 -5s4.83301 -4.33301 7.5 -7v-8
h-171c0.666992 0.666992 2.5 2.66699 5.5 6s5.16699 5.66602 6.5 6.99902c7.33301 10.667 12.833 22 16.5 34s6.16699 24.167 7.5 36.5s2 24.5 2 36.5v35c0 8.66699 0.333008 13 1 13c-10 3.33301 -24.667 4.33301 -44 3h-13.5c-4.33301 0 -9.16602 -0.333008 -14.499 -1
h-143c-3.33301 11.333 -6.5 22.666 -9.5 33.999s-3.83301 18.333 -2.5 21l34.5 75l36.5 76l32 67l42 89c5.33301 8.66699 10.333 17.834 15 27.501l16 34.5c4.66699 14 8.5 27 11.5 39s4.5 21.333 4.5 28c0 2.66699 -1.33301 8.33398 -4 17.001
s-6.33398 18.334 -11.001 29.001h169c-4.66699 -11.333 -9.66699 -28.666 -15 -51.999c-2 -12.667 -3.5 -26 -4.5 -40s-1.5 -27.333 -1.5 -40v-345c2.66699 -0.666992 6.16699 -1.16699 10.5 -1.5s9.16602 -0.166016 14.499 0.500977c16.667 0.666992 34.667 7.66699 54 21
c-1.33301 -17.333 -1.83301 -30.833 -1.5 -40.5s0.833008 -19.167 1.5 -28.5l2 -18v-29z" />
    <glyph glyph-name="five" unicode="5" horiz-adv-x="407" 
d="M392 221c-21.333 -9.33301 -31.9941 -27.3398 -31.9941 -54.0068c0 -40 -11.333 -75.667 -34 -107s-54.334 -53.333 -95.001 -66c-24 -7.33301 -49 -9.66602 -75 -6.99902s-49.5 10.167 -70.5 22.5s-38.333 29.333 -52 51s-20.5 48.167 -20.5 79.5
c0 16 2.16699 31 6.5 45s10.166 26.333 17.499 37s16.333 19.167 27 25.5s22.667 9.5 36 9.5c43.333 0 65 -18.667 65 -56c0 -8.66699 -1.66699 -17.167 -5 -25.5s-7.66602 -16 -12.999 -23s-11.833 -12.667 -19.5 -17s-15.5 -6.5 -23.5 -6.5c-4.66699 0 -10 0.5 -16 1.5
s-8.33301 1.5 -7 1.5h-3c1.33301 -36.667 11.5 -62.5 30.5 -77.5s44.5 -23.5 76.5 -25.5c26.667 1.33301 44.167 15.333 52.5 42s12.5 67 12.5 121v39c-1.33301 30.667 -2.66602 55.334 -3.99902 74.001s-4.33301 33 -9 43s-11.334 16.667 -20.001 20s-20.667 5 -36 5
c-16.667 0 -37.667 -2.33301 -63 -7c-0.666992 0 -1.33398 -0.166992 -2.00098 -0.5s-1.33398 -0.5 -2.00098 -0.5h1c-4.66699 -1.33301 -11.834 -2.83301 -21.501 -4.5l-25.5 -4.5v323c13.333 -3.33301 26 -7.16602 38 -11.499s21.333 -8.16602 28 -11.499
c12 6.66699 24.667 12.167 38 16.5s26.333 6.5 39 6.5c6 0 14 -1 24 -3s20.167 -4.33301 30.5 -7s20 -5 29 -7s15.5 -3 19.5 -3c16.667 0 34.667 8.66699 54 26l23 -18c-8 -5.33301 -16.833 -14.333 -26.5 -27s-18.5 -26.667 -26.5 -42s-14.667 -30.833 -20 -46.5
s-8 -29.5 -8 -41.5c0 -13.333 2.33301 -23.333 7 -30c6.66699 8 16.667 12 30 12c23.333 0 35 -9.66699 35 -29c0 -9.33301 -5.33301 -16.333 -16 -21s-23.334 -7 -38.001 -7c-14 0.666992 -28 4.83398 -42 12.501s-26.5 17.5 -37.5 29.5s-19.833 25.5 -26.5 40.5
s-10 29.833 -10 44.5c0 3.33301 0.166992 6.33301 0.5 9s0.833008 5.66699 1.5 9c6 -3.33301 9.66699 -5.16602 11 -5.49902s2.33301 -0.5 3 -0.5c4.66699 0 9.5 2.83301 14.5 8.5s7.5 10.167 7.5 13.5c0 20 -14.667 33.333 -44 40
c-16 -2.66699 -28.833 -5.16699 -38.5 -7.5s-17.167 -5.16602 -22.5 -8.49902s-8.83301 -7.5 -10.5 -12.5s-2.5 -11.833 -2.5 -20.5v-176c20 4 40.667 6 62 6c78 0 124.667 -22 140 -66c0 -6 0.833008 -14.667 2.5 -26s4.66699 -23 9 -35s10.166 -23.333 17.499 -34
s17 -19 29 -25v-10z" />
    <glyph glyph-name="six" unicode="6" horiz-adv-x="414" 
d="M269 212c0 107.333 -23 161 -69 161c-50 0 -74.333 -49.333 -73 -148v-9c0 -4.66699 -0.333008 -9.33398 -1 -14.001v-27c0 -44 6.33301 -77.333 19 -100s31.667 -33.667 57 -33c28 0.666992 47.667 23.334 59 68.001c5.33301 22.667 8 56.667 8 102zM393 205
c-2 -1.33301 -4.33008 -3.33203 -6.99707 -5.99902l-11 -8h2c-6 -4 -10 -16 -12 -36c-2.66699 -20 -7.83398 -38.833 -15.501 -56.5s-17.5 -34.167 -29.5 -49.5c-29.333 -36 -68.666 -53.333 -117.999 -52c-90 2.66699 -139.667 52.667 -149 150v-1
c-2 16.667 -3 35.667 -3 57c0.666992 23.333 1 41.5 1 54.5v21.5c-0.666992 18.667 -12.334 38.667 -35.001 60l5 4l13 8h-2c22.667 17.333 33 32.666 31 45.999v121c-1.33301 36.667 4.5 66.5 17.5 89.5s30.333 40 52 51s46 16.5 73 16.5s53.833 -4.66699 80.5 -14
c15.333 -6.66699 25.666 -10 30.999 -10c9.33301 0 22.666 7 39.999 21l25 -17c-8.66699 -6.66699 -17.167 -15.5 -25.5 -26.5s-16.833 -24.167 -25.5 -39.5c-7.33301 -15.333 -13.166 -30.666 -17.499 -45.999s-6.5 -29 -6.5 -41c0 -14 2.66699 -24.667 8 -32
c5.33301 8 14.333 12 27 12c19.333 0 28.333 -9.66699 27 -29c-2 -12.667 -20.667 -18.334 -56 -17.001c-34.667 0.666992 -62.334 17.334 -83.001 50.001c-18 30 -25 60.667 -21 92l18 -6c4.66699 0 9.83398 2.66699 15.501 8s9.16699 10.333 10.5 15
c2 4.66699 3 9.66699 3 15c0 16.667 -18.667 24 -56 22c-38.667 -2 -58 -32.667 -58 -92v-144c9.33301 6 18.666 10.167 27.999 12.5s20 3.5 32 3.5c19.333 0 38.5 -3.83301 57.5 -11.5s37.167 -18.167 54.5 -31.5c17.333 -14.667 30.833 -29.5 40.5 -44.5
s14.5 -29.833 14.5 -44.5c0 -16.667 0.666992 -26.334 2 -29.001c3.33301 -9.33301 14.333 -21 33 -35z" />
    <glyph glyph-name="seven" unicode="7" horiz-adv-x="422" 
d="M417 657c-12 -12 -27.0059 -36.6699 -45.0059 -74.0029c-8 -17.333 -14.667 -32.666 -20 -45.999s-8.66602 -24.333 -9.99902 -33c-5.33301 -19.333 -11.666 -43.666 -18.999 -72.999s-15.333 -63.666 -24 -102.999c-7.33301 -42 -12.833 -78.667 -16.5 -110
s-5.5 -57.333 -5.5 -78c0 -17.333 0.166992 -31.333 0.5 -42s0.833008 -19 1.5 -25c2 -12 5.66699 -23.833 11 -35.5s12.333 -24.167 21 -37.5l-170 1c0 5.33301 1.33301 9.33301 4 12c8 4.66699 13 13.334 15 26.001c2 12 4 25.5 6 40.5l7 53.5l2 14.5
c0.666992 5 1 10.167 1 15.5l6 60c1.33301 5.33301 3.5 14.5 6.5 27.5l9.5 42.5c2 10 7 26.333 15 49l-1 -1c1.33301 4.66699 2.5 9.16699 3.5 13.5s2.5 10.166 4.5 17.499c0.666992 1.33301 1.33398 3 2.00098 5s1.33398 3.66699 2.00098 5l32.5 80.5
c10.333 25 20.166 47.167 29.499 66.5c1.33301 2.66699 2.5 4.83398 3.5 6.50098s2.5 4.5 4.5 8.5l8 16c4.66699 3.33301 9.33398 8 14.001 14c1.33301 2.66699 2.83301 6 4.5 10s2.5 7.66699 2.5 11h-1c-12 1.33301 -27.167 2 -45.5 2h-65.5c-38.667 0 -58 -5 -58 -15
s7.66699 -13.333 23 -10c4.66699 -8 7 -13.667 7 -17c0 -23.333 -9.66699 -52.333 -29 -87c-25.333 -44 -55.666 -66 -90.999 -66c-6.66699 0 -13.667 0.666992 -21 2s-16.333 3.66602 -27 6.99902c-0.666992 1.33301 -1.16699 2.5 -1.5 3.5s-0.833008 2.16699 -1.5 3.5
c-2 5.33301 -3.5 9.5 -4.5 12.5s-1.33301 5.5 -1 7.5s1.33301 4.16699 3 6.5s4.16699 5.16602 7.5 8.49902c8 6.66699 16 10 24 10c14.667 0 27.334 -5.66699 38.001 -17c6 10 9 29.333 9 58c0 36.667 -8.66699 78.334 -26 125.001l1 -1c-3.33301 5.33301 -8 12 -14 20
l-14 19h382v-10z" />
    <glyph glyph-name="eight" unicode="8" horiz-adv-x="438" 
d="M299 350v1v-1zM277 564c-4.66699 50.667 -22.998 75.999 -54.998 75.999c-36.667 0 -56 -26.667 -58 -80c0 -18 -0.166992 -36.333 -0.5 -55s-0.5 -37 -0.5 -55c1.33301 -13.333 3.16602 -24 5.49902 -32s4.83301 -14 7.5 -18c8.66699 -16 24 -24.667 46 -26
c19.333 -0.666992 33.666 9.33301 42.999 30c5.33301 12 8 25.333 8 40c0 0.666992 0.333008 5.66699 1 15s1.66699 22.333 3 39c1.33301 13.333 2 25.833 2 37.5s-0.666992 20.834 -2 27.501v1zM289.002 114.999c0 87.333 -1.33301 137.667 -4 151
c-8.66699 44.667 -29.334 67 -62.001 67c-14 0 -26 -3.83301 -36 -11.5s-17.667 -17.167 -23 -28.5c-5.33301 -16.667 -7.66602 -41 -6.99902 -73c2 -88 12 -144 30 -168c8 -10.667 21 -16 39 -16c2.66699 0 10 2.33301 22 7c10.667 3.33301 16 4.66602 16 3.99902
c16.667 18.667 25 41.334 25 68.001zM426.002 193c-4 -4 -8.49414 -9.16797 -13.4941 -15.501s-10.5 -14.166 -16.5 -23.499l1 1c-38 -105.333 -95.667 -158 -173 -158c-40 0 -77 14 -111 42c-7.33301 7.33301 -15.5 17.333 -24.5 30s-17.5 27.334 -25.5 44.001
c-16.667 36.667 -34 62 -52 76c2.66699 1.33301 5.66699 3.33301 9 6s7.66602 6.66699 12.999 12v-1c4 4.66699 8.33301 11.167 13 19.5l17 29.5c6 11.333 11.667 21.166 17 29.499s10.666 15.5 15.999 21.5l10 10l35 36c0 2 -1.33301 4.5 -4 7.5s-6 6.16699 -10 9.5
c-8 6.66699 -16.333 15.334 -25 26.001s-16.667 22.667 -24 36c-4.66699 8.66699 -10.167 17.667 -16.5 27l-21.5 31l3 -1c-1.33301 0.666992 -3.5 2 -6.5 4s-5.16699 3.33301 -6.5 4c-0.666992 0.666992 -1.33398 1.5 -2.00098 2.5s-1.66699 3.16699 -3 6.5
c0.666992 0.666992 1 1.33398 1 2.00098s4 3 12 7l5 5h-1c6 5.33301 13.333 16 22 32c2.66699 8 5 13.333 7 16s4 5.66699 6 9c1.33301 1.33301 2.66602 3.66602 3.99902 6.99902s2.66602 5.66602 3.99902 6.99902h-1c35.333 59.333 82 89 140 89
c34 0 61.333 -8.66699 82 -26c21.333 -20.667 39.333 -43.334 54 -68.001l21 -42l-1 1c10 -16.667 23 -29 39 -37c-16 -8.66699 -29 -23.667 -39 -45c-16.667 -34 -32.667 -59.667 -48 -77l-1 -1c-1.33301 -1.33301 -2.33301 -2.66602 -3 -3.99902l-15 -13h1
c-4 -4 -7 -7.16699 -9 -9.5s-3.66699 -4.16602 -5 -5.49902c0 -1.33301 6 -7 18 -17l6 -5h-2c7.33301 -4 10.666 -6 9.99902 -6s-0.666992 -0.333008 0 -1c8 -7.33301 15.833 -16 23.5 -26s15.5 -21 23.5 -33c1.33301 -1.33301 2.5 -3.5 3.5 -6.5s2.16699 -5.16699 3.5 -6.5
c4.66699 -9.33301 9.5 -18.333 14.5 -27s12.833 -16.334 23.5 -23.001z" />
    <glyph glyph-name="nine" unicode="9" horiz-adv-x="416" 
d="M281 512c0 10.667 -0.333008 20.6699 -1 30.0029s-1.66699 17.666 -3 24.999c-9.33301 44 -32 65.333 -68 64c-30 -0.666992 -49.667 -23.334 -59 -68.001c-5.33301 -22.667 -8 -56.667 -8 -102c0 -106.667 23 -160 69 -160c40 0 62.333 40 67 120
c1.33301 11.333 2.33301 41.666 3 90.999zM404 330.003c-0.666992 -0.666992 -1.33398 -1.00195 -2.00098 -1.00195s-1.66699 -0.666992 -3 -2l-7 -4h2c-18.667 -15.333 -27 -30.666 -25 -45.999c0.666992 -10.667 1 -20.5 1 -29.5v-27.5
c0 -149.333 -52.333 -225.666 -157 -228.999c-23.333 -0.666992 -48 3.33301 -74 12c-24 8.66699 -38.333 13 -43 13c-10 0 -23.667 -8.33301 -41 -25l-25 19c16 12 32.667 34.333 50 67c8 15.333 14 30.333 18 45s6 28 6 40c0 12.667 -2.33301 23 -7 31
c-6 -8 -15.333 -12 -28 -12c-18.667 0 -27.667 10.333 -27 31c2 12.667 21 18.334 57 17.001c32.667 -2 59.334 -19.333 80.001 -52c19.333 -28 27 -58.333 23 -91l-18 6c-5.33301 0 -11 -2.83301 -17 -8.5s-9.66699 -10.5 -11 -14.5l1 2
c0 -1.33301 -0.166992 -2.5 -0.5 -3.5s-0.5 -1.83301 -0.5 -2.5c-0.666992 -3.33301 -1 -7 -1 -11c0 -16.667 18.667 -24 56 -22c38.667 2 58 32.667 58 92v99l-1 57c-17.333 -10.667 -38 -16 -62 -16c-38.667 0 -75 14 -109 42c-36.667 28.667 -55 57.667 -55 87
c0 17.333 -0.666992 27.333 -2 30c-2.66699 10 -13.667 21.667 -33 35c1.33301 1.33301 3.83301 3.5 7.5 6.5l11.5 9.5l11 8h-3c4.66699 4 8.66699 16.667 12 38c5.33301 38 20.333 72.667 45 104c28 36 67.333 53.333 118 52
c106.667 -2.66699 162.667 -71.334 168 -206.001v-78c0 -17.333 6.33301 -33.333 19 -48l-3 1c4 -2 6.5 -3.5 7.5 -4.5s2.16699 -1.83301 3.5 -2.5v-8z" />
    <glyph glyph-name="colon" unicode=":" horiz-adv-x="201" 
d="M178 362c0 -19.333 -7.66699 -35.333 -23 -48s-33.333 -19 -54 -19s-38.834 6.33301 -54.501 19s-23.5 28.667 -23.5 48s7.83301 35.5 23.5 48.5s33.834 19.5 54.501 19.5s38.667 -6.5 54 -19.5s23 -29.167 23 -48.5zM178 66c0 -18.667 -7.66699 -34.5 -23 -47.5
s-33.333 -19.5 -54 -19.5s-38.834 6.5 -54.501 19.5s-23.5 28.833 -23.5 47.5c0 19.333 7.83301 35.5 23.5 48.5s33.834 19.5 54.501 19.5s38.667 -6.5 54 -19.5s23 -29.167 23 -48.5z" />
    <glyph glyph-name="semicolon" unicode=";" horiz-adv-x="201" 
d="M178 360c0 -19.333 -7.5 -35.333 -22.5 -48s-33.167 -19 -54.5 -19c-20.667 0 -38.834 6.33301 -54.501 19s-23.5 28.667 -23.5 48s7.83301 35.5 23.5 48.5s33.834 19.5 54.501 19.5c21.333 0 39.5 -6.5 54.5 -19.5s22.5 -29.167 22.5 -48.5zM195 50
c0 -67.333 -49.665 -122.001 -148.998 -164.001l-19 9v8c1.33301 0.666992 2.16602 1.33398 2.49902 2.00098s1.16602 1.66699 2.49902 3l8 6c2.66699 2 5.66699 4.66699 9 8c15.333 12.667 30.333 28.334 45 47.001l13.5 18.5c3.66699 5 6.5 10.167 8.5 15.5
c-16 -2 -29.5 -1.16699 -40.5 2.5s-20.833 10.167 -29.5 19.5v-1c-13.333 12 -20 28 -20 48c0 8 2.33301 16 7 24s10.667 15.167 18 21.5s16 11.666 26 15.999s20.667 6.5 32 6.5c57.333 0 86 -30 86 -90z" />
    <glyph glyph-name="less" unicode="&#x3c;" horiz-adv-x="1011" 
d="M918 396c-30 1.33301 -63.1719 -0.666992 -99.5049 -6s-74.166 -13.666 -113.499 -24.999c-17.333 -6.66699 -35 -13 -53 -19l-53 -18l-52.5 -18l-52.5 -18c-39.333 -13.333 -76.166 -24.333 -110.499 -33s-66.166 -14.334 -95.499 -17.001
c16 -44.667 62.333 -67 139 -67c50.667 0 104.334 12.667 161.001 38c18 7.33301 39.667 17.833 65 31.5s54 30.5 86 50.5c34 20.667 63.5 37.834 88.5 51.501s46.167 24.167 63.5 31.5l9 -9c-14.667 -9.33301 -33.334 -23.166 -56.001 -41.499s-49.334 -41.5 -80.001 -69.5
c-28 -25.333 -53.5 -47 -76.5 -65s-44.167 -32.667 -63.5 -44c-28 -17.333 -55.667 -29.833 -83 -37.5s-55.333 -11.5 -84 -11.5c-43.333 0 -84.666 13.667 -123.999 41c-22 15.333 -39.167 30.833 -51.5 46.5s-21.166 33.167 -26.499 52.5
c-3.33301 -0.666992 -6.33301 -1 -9 -1h-9c-62.667 0 -115.334 12.333 -158.001 37c-55.333 32 -83 76 -83 132c0 24 10.667 47.333 32 70c20 22 44.667 33 74 33c18.667 0 36.334 -6.33301 53.001 -19c-13.333 -19.333 -20 -39 -20 -59c0 -30 14 -54.333 42 -73h-1
c12.667 -8.66699 24.834 -15.334 36.501 -20.001s23.834 -7.33398 36.501 -8.00098c-2 46 17 88.333 57 127c40 40.667 84.667 58.667 134 54c88 -10 132 -56 132 -138c-42 53.333 -86.333 80 -133 80c-94 0 -146 -40.333 -156 -121c9.33301 1.33301 19.166 2 29.499 2h33.5
c59.333 0 148.333 14.667 267 44c60 14 112.333 24.667 157 32s82.667 11 114 11c39.333 0 74 -7 104 -21l-3 -9z" />
    <glyph glyph-name="equal" unicode="=" horiz-adv-x="447" 
d="M426 345h-406v41h406v-41zM426 246h-406v42h406v-42z" />
    <glyph glyph-name="greater" unicode="&#x3e;" horiz-adv-x="1011" 
d="M991 408c0 -56 -27.6709 -99.998 -83.0039 -131.998c-42.667 -24.667 -95.667 -37 -159 -37h-10.5c-3 0 -6.16699 0.333008 -9.5 1c-8 -37.333 -33.333 -70.333 -76 -99c-39.333 -27.333 -80.666 -41 -123.999 -41c-29.333 0 -57.666 3.83301 -84.999 11.5
s-55 20.167 -83 37.5c-19.333 11.333 -40.333 25.833 -63 43.5s-47.667 39.167 -75 64.5c-32 29.333 -59.333 53.166 -82 71.499s-41 32.166 -55 41.499l9 8c18 -8 39.5 -19 64.5 -33l87.5 -50c32 -20 60.667 -36.833 86 -50.5s47 -24.167 65 -31.5
c57.333 -25.333 111 -38 161 -38c76.667 0 123 22.333 139 67c-29.333 2.66699 -61.166 8.33398 -95.499 17.001s-71.5 19.667 -111.5 33l-45 16c-14.667 5.33301 -29.667 10.333 -45 15l-60 21c-20 6.66699 -39.667 13.667 -59 21c-17.333 4.66699 -35.666 9 -54.999 13
s-38.5 7.33301 -57.5 10s-37.167 4.66699 -54.5 6s-33 2 -47 2c-10 -0.666992 -21.167 -1.16699 -33.5 -1.5s-23.166 -0.833008 -32.499 -1.5l-3 9c30 14 64.333 21 103 21c30.667 0 68.334 -3.66699 113.001 -11s97 -18 157 -32c120.667 -29.333 209.667 -44 267 -44h33.5
c10.333 0 20.166 -0.666992 29.499 -2c-10 80.667 -62 121 -156 121c-46.667 0 -90.334 -27 -131.001 -81c0 82.667 44 129 132 139c48 4.66699 92 -13.333 132 -54c40 -38.667 59 -81 57 -127c12 1.33301 24.333 4.5 37 9.5s25 11.5 37 19.5
c13.333 9.33301 23.5 19.833 30.5 31.5s10.5 25.167 10.5 40.5c0 19.333 -7.33301 38.666 -22 57.999c17.333 13.333 35.333 20 54 20c29.333 0 54 -11 74 -33v1c22.667 -22 34 -45.667 34 -71z" />
    <glyph glyph-name="question" unicode="?" horiz-adv-x="465" 
d="M273 54c0 -15.333 -6.5 -28.666 -19.5 -39.999s-29.167 -17 -48.5 -17c-18.667 0 -34.5 5.66699 -47.5 17s-19.5 24.666 -19.5 39.999c0 17.333 6.5 31.333 19.5 42s28.833 16 47.5 16c19.333 0 35.5 -5.33301 48.5 -16s19.5 -24.667 19.5 -42zM440 526l-14 -5.99902h1
c-8.66699 -5.33301 -17.5 -11.5 -26.5 -18.5s-18.167 -17.167 -27.5 -30.5l-50 -65c-3.33301 -5.33301 -7 -10.166 -11 -14.499s-7.66699 -8.5 -11 -12.5c-15.333 -22.667 -27.833 -44.667 -37.5 -66s-15.834 -41.666 -18.501 -60.999c-1.33301 -15.333 -3 -31.333 -5 -48
s-3.66699 -32.334 -5 -47.001h-57l-8 96c-1.33301 14.667 4.33398 35.5 17.001 62.5s31.334 58.5 56.001 94.5c24 35.333 42.333 65 55 89s19 42 19 54c0 28.667 -8.66699 50.667 -26 66c-8 6.66699 -16.333 11.834 -25 15.501s-18 5.5 -28 5.5
c-16.667 0 -30.667 -4 -42 -12s-17 -18 -17 -30c0 -3.33301 2.16699 -7.5 6.5 -12.5s8.83301 -7.5 13.5 -7.5c0.666992 0.666992 2 1.66699 4 3l12 8c3.33301 -17.333 2.66602 -34 -2.00098 -50s-13 -32.667 -25 -50c-23.333 -32 -53.333 -49.667 -90 -53
c-14.667 -0.666992 -27.667 1.66602 -39 6.99902s-17 13 -17 23c2.66699 20 15.334 30 38.001 30c12.667 0 22.334 -3.33301 29.001 -10c1.33301 3.33301 2.66602 7.33301 3.99902 12s2 9.66699 2 15c0 23.333 -8 50.666 -24 81.999
c-8.66699 15.333 -17.167 28.5 -25.5 39.5s-17.166 19.167 -26.499 24.5l26 19c19.333 -16.667 36.333 -25 51 -25c8.66699 0 26 4 52 12c26.667 9.33301 48.667 14 66 14c48.667 0.666992 86.667 -9 114 -29c9.33301 -6.66699 18.166 -15.334 26.499 -26.001
s16.5 -23 24.5 -37v1c17.333 -30 30.666 -48 39.999 -54z" />
    <glyph glyph-name="at" unicode="@" horiz-adv-x="941" 
d="M577 453c0 15.333 -6.83301 27.834 -20.5 37.501s-30.167 14.5 -49.5 14.5c-44 0 -82.667 -28 -116 -84c-12.667 -22.667 -22.5 -45.334 -29.5 -68.001s-10.5 -44.667 -10.5 -66c0 -62.667 24 -94 72 -94c42 0 79.667 35.333 113 106c27.333 58 41 109.333 41 154z
M920 407.001c0 -28 -6.5 -56.1709 -19.5 -84.5039s-31.833 -56.166 -56.5 -83.499c-27.333 -30 -57 -52.667 -89 -68s-67 -23 -105 -23c-32 0 -57.667 6.83301 -77 20.5s-30.666 31.167 -33.999 52.5c-8 -9.33301 -15.667 -17.5 -23 -24.5s-14.333 -12.833 -21 -17.5
c-28.667 -19.333 -60.667 -29 -96 -29c-54.667 0 -95.667 15.667 -123 47h1c-25.333 27.333 -38 61 -38 101c0 56.667 23 110 69 160c51.333 53.333 114.666 80 189.999 80c48 0 82.333 -10.667 103 -32c1.33301 3.33301 2.16602 6.66602 2.49902 9.99902
s1.16602 6.33301 2.49902 9l105 16l-15 -42c-5.33301 -15.333 -10 -29.666 -14 -42.999c-4.66699 -12.667 -8.83398 -25.334 -12.501 -38.001s-7.5 -25 -11.5 -37v1c-18 -61.333 -27 -112.666 -27 -153.999c0 -27.333 15.667 -41 47 -41c22.667 0 45 7.5 67 22.5
s42 36.5 60 64.5c15.333 23.333 27 46.666 35 69.999s12 45.666 12 66.999c0 36.667 -7.66699 69 -23 97s-37.666 51.667 -66.999 71c-29.333 17.333 -63.666 31 -102.999 41s-83 15 -131 15c-127.333 0 -228.333 -33.333 -303 -100
c-70 -61.333 -105 -142.666 -105 -243.999c0 -38 8 -72.833 24 -104.5s38.333 -59.167 67 -82.5c32 -23.333 68 -41.166 108 -53.499s84.333 -18.5 133 -18.5c54 0 108.667 8.33301 164 25s112.333 42.334 171 77.001l-11 -44c-32 -17.333 -61 -31.666 -87 -42.999
s-49 -20.333 -69 -27c-27.333 -8.66699 -55.166 -15.167 -83.499 -19.5s-58.166 -6.5 -89.499 -6.5c-120.667 0 -219.334 26.333 -296.001 79c-82 56 -123 129 -123 219c0 113.333 46 206 138 278c90.667 70.667 210 106 358 106c56 0 106.5 -5.66699 151.5 -17
s85.833 -29 122.5 -53c81.333 -51.333 122 -117.666 122 -198.999z" />
    <glyph glyph-name="A" unicode="A" horiz-adv-x="443" 
d="M270 260c-7.33301 62 -13.9971 123.167 -19.9971 183.5s-12.667 121.166 -20 182.499h-41c-6.66699 -62.667 -13.5 -123.667 -20.5 -183l-21.5 -183c3.33301 0 5.66602 0.166992 6.99902 0.5s3.66602 0.5 6.99902 0.5s7 2.16699 11 6.5s7.66699 9.16602 11 14.499
c-1.33301 -1.33301 -1.83301 -1.16602 -1.5 0.500977s1.16602 4.16699 2.49902 7.5l4.5 11.5c1.66699 4.33301 3.5 8.83301 5.5 13.5c0.666992 0.666992 1.5 3.16699 2.5 7.5s2.16699 8.83301 3.5 13.5s2.5 9 3.5 13s1.5 6.66699 1.5 8l14 -41
c2 -5.33301 4 -11.166 6 -17.499s4.33301 -12.5 7 -18.5c6.66699 -13.333 14.667 -20 24 -20h14zM320.003 672l21.9951 0.00195312c-9.33301 -16 -14.666 -32.667 -15.999 -50c1.33301 -12 2.66602 -24.833 3.99902 -38.5s2.66602 -28.834 3.99902 -45.501v1l21.5 -199.5
l21.5 -199.5c3.33301 -25.333 10 -50 20 -74s24.667 -46 44 -66h-184c20 22 29 66 27 132c0 1.33301 -0.666992 9.66602 -2 24.999s-3.66602 38 -6.99902 68h-19c-6 0 -12.333 -2 -19 -6s-11.667 -10.333 -15 -19l1 1c-0.666992 -2 -2.16699 -5.66699 -4.5 -11
s-6.16602 -14.666 -11.499 -27.999l-2 1c-2.66699 20.667 -8.16699 36.167 -16.5 46.5s-17.5 15.5 -27.5 15.5h-19c-1.33301 -15.333 -3 -31.166 -5 -47.499s-3.66699 -32.166 -5 -47.499c-1.33301 -13.333 -2.66602 -25 -3.99902 -35s-2.66602 -19 -3.99902 -27
c0 -24 9.66699 -46.667 29 -68h-152c16.667 17.333 29.834 38.166 39.501 62.499s16.5 48.5 20.5 72.5l22.5 195c7.66699 69.333 16.167 140.666 25.5 213.999c3.33301 15.333 5.5 28.166 6.5 38.499s1.5 18.833 1.5 25.5c0 12 -1.66699 23.333 -5 34
s-8.66602 20.667 -15.999 30h224z" />
    <glyph glyph-name="B" unicode="B" horiz-adv-x="472" 
d="M334 189v13.9971c0 36.667 -7.16699 66.167 -21.5 88.5s-32.5 33.5 -54.5 33.5c-12.667 0 -22.834 -2.66699 -30.501 -8s-11.5 -11.333 -11.5 -18c0 -0.666992 0.333008 -1 1 -1c0.666992 -0.666992 1.33398 -1 2.00098 -1h9c24 0 36 -9.33301 36 -28
c0 -17.333 -13.333 -26 -40 -26c-41.333 0 -62 16.667 -62 50c0 13.333 4.33301 25.333 13 36s24 20.334 46 29.001c38.667 15.333 63 27 73 35v-1c21.333 22.667 32 63.334 32 122.001c0 24.667 -3.16699 44.334 -9.5 59.001s-16.333 25.834 -30 33.501s-31 12.667 -52 15
s-45.833 3.5 -74.5 3.5c0 -98 -0.166992 -194.333 -0.5 -289s-0.5 -191.334 -0.5 -290.001c30 0 55.667 1.5 77 4.5s38.833 9.5 52.5 19.5s24.167 24.5 31.5 43.5s12 44.167 14 75.5zM458 181.997c-7.33301 -2 -13.3311 -7.33203 -17.998 -15.999s-7.66699 -16.667 -9 -24
c-5.33301 -42 -25.5 -76.167 -60.5 -102.5s-83.833 -39.5 -146.5 -39.5h-204c30 24 45 57 45 99v476c0 36.667 -16.333 69 -49 97h194c124.667 0 193 -45 205 -135c2 -8.66699 6.16699 -15.5 12.5 -20.5s13.166 -11.167 20.499 -18.5
c-15.333 -11.333 -24.833 -19.333 -28.5 -24s-5.5 -11.334 -5.5 -20.001c-4.66699 -48.667 -34.334 -82.667 -89.001 -102c31.333 -8 55.333 -21.5 72 -40.5s27.667 -44.167 33 -75.5c0 -20 9.66699 -34.667 29 -44z" />
    <glyph glyph-name="C" unicode="C" horiz-adv-x="446" 
d="M441 666c-20.667 -9.33301 -39.6709 -34.667 -57.0039 -76c-8 -19.333 -14.333 -38.333 -19 -57s-7 -35.667 -7 -51c0 -11.333 0.666992 -18.666 2 -21.999c8.66699 8.66699 19.334 13 32.001 13c24 0 36 -8.66699 36 -26c0 -18.667 -17.333 -28.334 -52 -29.001
c-35.333 -0.666992 -62.333 12.333 -81 39c-16 25.333 -24 53.333 -24 84c0 7.33301 0.333008 14.333 1 21s2.33398 13.667 5.00098 21c11.333 -3.33301 18.666 -5 21.999 -5c19.333 0 29 7.66699 29 23c0 22 -27.667 34.333 -83 37
c-23.333 1.33301 -42.5 -7.33398 -57.5 -26.001s-26.167 -44 -33.5 -76c-3.33301 -21.333 -6 -48.666 -8 -81.999s-3 -72 -3 -116c0 -33.333 1 -63.666 3 -90.999s4.66699 -51.666 8 -72.999c0 -90 34 -135 102 -135c34.667 0 61.334 14.333 80.001 43h-1
c14.667 24 22 53 22 87c0 12 -1 24 -3 36c-5.33301 -3.33301 -10.833 -5.5 -16.5 -6.5s-11.167 -1.5 -16.5 -1.5c-15.333 0 -27.666 4.83301 -36.999 14.5s-14 20.834 -14 33.501c0 32 20.667 48 62 48c16.667 0 30.667 -3.33301 42 -10h-1
c32.667 -20.667 49 -55.667 49 -105c0 -23.333 -3.66699 -45.166 -11 -65.499s-17.666 -39.833 -30.999 -58.5c-31.333 -40.667 -72.666 -61 -123.999 -61c-109.333 0 -178.333 77.333 -207 232c-0.666992 0 -1 0.333008 -1 1v2c-1.33301 8 -2.83301 18.167 -4.5 30.5
s-3.83398 27.166 -6.50098 44.499c-3.33301 13.333 -13.666 23.666 -30.999 30.999c5.33301 5.33301 10 10.833 14 16.5s8.66699 13.167 14 22.5c0.666992 3.33301 2 11 4 23l5 31c0 1.33301 0.166992 2.16602 0.5 2.49902s0.5 1.16602 0.5 2.49902
c10 75.333 24.667 129 44 161v-1c32 60 85.333 90 160 90c24 0 46 -3.66699 66 -11c7.33301 -2.66699 14.666 -5 21.999 -7s12 -3 14 -3c6.66699 0 14.667 1.66699 24 5s20.333 9 33 17z" />
    <glyph glyph-name="D" unicode="D" horiz-adv-x="462" 
d="M325 344c0 46.667 -1.83301 87.334 -5.5 122.001s-8.5 61.667 -14.5 81c-19.333 52 -54.333 78.333 -105 79h-59v-579h58c50 0 84.667 29.667 104 89c14.667 41.333 22 110.666 22 207.999zM448 332c-12 -8.66699 -19.667 -16.666 -23 -23.999
c-3.33301 -10 -5.66602 -21.333 -6.99902 -34c-4.66699 -76 -16.334 -134 -35.001 -174c-15.333 -32.667 -37.333 -57.167 -66 -73.5s-62.334 -25.166 -101.001 -26.499c-6 -0.666992 -13 -1 -21 -1h-23h-26.5c-9 0 -18.167 0.333008 -27.5 1h-114
c26.667 23.333 40 49.666 40 78.999v515c0 29.333 -13.333 55.333 -40 78h113.5c37.667 0 69.5 0.333008 95.5 1c80 1.33301 136.333 -31.667 169 -99c18.667 -40 30.667 -98.333 36 -175c0.666992 -12 3 -23 7 -33c2.66699 -8.66699 10.334 -17.334 23.001 -26.001v-8z" />
    <glyph glyph-name="E" unicode="E" horiz-adv-x="480" 
d="M463 235c0 -18 -12.666 -27.001 -37.999 -27.001c-22.667 0 -34 7.33301 -34 22c0 2.66699 1 4.33398 3 5.00098c-8.66699 -2 -13 -12.333 -13 -31c0 -73.333 23.667 -141.333 71 -204h-443l8.5 13.5l8.5 13.5c2 3.33301 3.83301 6.16602 5.5 8.49902
s3.5 5.16602 5.5 8.49902c8.66699 18.667 13 41.667 13 69v455c0 38 -13.667 72.667 -41 104h421c-20.667 -15.333 -36.667 -40.333 -48 -75c-9.33301 -29.333 -14 -54.666 -14 -75.999c0 -9.33301 1.66699 -21.333 5 -36c1.33301 -7.33301 3.33301 -13.333 6 -18
c6.66699 14 19.667 21 39 21c26.667 0 40 -8.66699 40 -26c0 -24 -21.333 -36 -64 -36c-42 0 -76.333 18.333 -103 55c-20.667 32.667 -31.334 67.334 -32.001 104.001c5.33301 -1.33301 10.166 -2.33301 14.499 -3s7.83301 -1 10.5 -1c12 0 18 6 18 18
c0 17.333 -21.667 26 -65 26h-93v-256h60v108h47c-1.33301 -5.33301 -2 -9.33301 -2 -12v-9c0 -10 1.83301 -20.333 5.5 -31s8.83398 -20.834 15.501 -30.501s14.5 -18.5 23.5 -26.5s19.167 -14 30.5 -18v-10c-30.667 -5.33301 -51.334 -22.333 -62.001 -51
c-10 -21.333 -14.333 -47 -13 -77l-46 1v56c0 13.333 -0.166992 24 -0.5 32s-0.166016 15.333 0.500977 22h-54l-1 -276h95c52.667 0 79 10 79 30c0 12 -5.33301 18 -16 18c-0.666992 0 -3 -0.5 -7 -1.5s-10.667 -3.16699 -20 -6.5c0 46.667 8.66699 85.334 26 116.001
c11.333 20.667 25.833 36.667 43.5 48s38.167 17 61.5 17c35.333 0 53 -11 53 -33z" />
    <glyph glyph-name="F" unicode="F" horiz-adv-x="472" 
d="M461 462c0 -26.667 -22.3379 -39.999 -67.0049 -39.999c-21.333 0 -40.666 5.16699 -57.999 15.5s-32 24.5 -44 42.5c-9.33301 15.333 -16.5 32.166 -21.5 50.499s-7.83301 37.833 -8.5 58.5l35 -9c13.333 0 20 6.33301 20 19c0 18 -25 27 -75 27h-95v-257h61
c-0.666992 17.333 -1.16699 35.333 -1.5 54s-0.833008 36.667 -1.5 54h51c-1.33301 -30.667 3.33398 -57 14.001 -79c11.333 -25.333 30.666 -43 57.999 -53c-45.333 -25.333 -68 -69.666 -68 -132.999c0 -12.667 0.333008 -20.334 1 -23.001
c2.66699 1.33301 5.16699 2.16602 7.5 2.49902s4.83301 1.16602 7.5 2.49902c2 0.666992 4.66699 1.5 8 2.5s4.33301 1.16699 3 0.5l10 -5v1c5.33301 -2 10.5 -4.33301 15.5 -7s8.5 -7 10.5 -13c0.666992 -24.667 -17.333 -37 -54 -37c-3.33301 1.33301 -7.5 2.5 -12.5 3.5
s-10.167 2.16699 -15.5 3.5c-22 12 -33 28 -33 48v132h-61c0 -34.667 0.166992 -69.667 0.5 -105s0.5 -70.333 0.5 -105c1.33301 -17.333 2.33301 -31 3 -41s1 -15.333 1 -16c2.66699 -7.33301 7.5 -15.5 14.5 -24.5s15.833 -19.167 26.5 -30.5
c-1.33301 0 -7.66602 0.166992 -18.999 0.5s-23.666 0.5 -36.999 0.5c-12.667 0 -29.167 -0.166992 -49.5 -0.5s-42.833 -0.5 -67.5 -0.5l-3 9c2 1.33301 4.5 3.5 7.5 6.5s6.16699 7.5 9.5 13.5c12.667 21.333 19 49.333 19 84v454c0 38 -13.667 72.667 -41 104h422
c-11.333 -7.33301 -21.166 -17.5 -29.499 -30.5s-15.166 -27.833 -20.499 -44.5c-9.33301 -29.333 -14 -54.666 -14 -75.999c0 -9.33301 1.66699 -21.333 5 -36v1c1.33301 -5.33301 2.5 -9.16602 3.5 -11.499s2.16699 -4.5 3.5 -6.5c3.33301 8 8 13.333 14 16s14 4 24 4
c27.333 0 41 -8.66699 41 -26z" />
    <glyph glyph-name="G" unicode="G" horiz-adv-x="476" 
d="M462 429c0 -22 -19.335 -32.6689 -58.002 -32.002c-39.333 0.666992 -71.333 16.667 -96 48c-20.667 26.667 -31 55 -31 85v10.5c0 3.66699 0.666992 8.5 2 14.5c36 4 54 15.333 54 34c0 11.333 -6.83301 21.333 -20.5 30s-32.167 13 -55.5 13
c-64.667 0 -97 -39 -97 -117c-4 -25.333 -7 -52.666 -9 -81.999s-3.33301 -61 -4 -95c-0.666992 -42 0.166016 -80.667 2.49902 -116s5.83301 -67.666 10.5 -96.999c0 -59.333 26.333 -89 79 -89c54.667 0 82 33 82 99v131c0 30 -12.333 55.333 -37 76h167
c-21.333 -22.667 -32 -45.667 -32 -69v-159c0.666992 -23.333 2.83398 -44.333 6.50098 -63s9.16699 -35.667 16.5 -51l-12 -11c-6 3.33301 -11.5 6.83301 -16.5 10.5s-11.167 8.83398 -18.5 15.501l1 -1c-3.33301 2.66699 -7.33301 5 -12 7s-9.66699 3 -15 3
c-8.66699 0 -26 -5.66699 -52 -17s-52.667 -17.333 -80 -18c-118.667 -2 -186 101 -202 309c-1.33301 20 -10.333 35 -27 45c12 8 22.667 24.333 32 49l-1 -2c14.667 192 87.334 288 218.001 288c8.66699 0 18.834 -1.16699 30.501 -3.5s24.167 -5.5 37.5 -9.5
c12 -3.33301 23 -6 33 -8s17.333 -3 22 -3c16 0 35.667 7.66699 59 23l13 -12l-26 -35.5l-24 -35.5l1 1c-18.667 -35.333 -26 -71 -22 -107v-1c2 -16.667 5.33301 -30.334 10 -41.001c6.66699 8.66699 19 13 37 13c22.667 0 34 -10 34 -30z" />
    <glyph glyph-name="H" unicode="H" horiz-adv-x="427" 
d="M252 0c27.333 41.333 40.998 83.3369 40.998 126.004v209c-6 0.666992 -11.833 1.16699 -17.5 1.5s-11.167 0.5 -16.5 0.5c-3.33301 0.666992 -6.66602 -1 -9.99902 -5s-6.66602 -9.33301 -9.99902 -16c1.33301 1.33301 1.83301 1.16602 1.5 -0.500977
s-1.16602 -4 -2.49902 -7l-5 -11l-6 -13.5c-0.666992 -1.33301 -1.5 -4 -2.5 -8s-2.16699 -8.33301 -3.5 -13l-3.5 -12.5c-1 -3.66699 -1.5 -5.83398 -1.5 -6.50098c-9.33301 25.333 -16.833 44.666 -22.5 57.999s-9.5 21.666 -11.5 24.999
c-2 5.33301 -8.66699 8.33301 -20 9c-4.66699 0 -8 0.166992 -10 0.5s-5.33301 0.5 -10 0.5v-209c0 -45.333 12.333 -88 37 -128h-172c12.667 18.667 21.834 38.334 27.501 59.001s8.5 43 8.5 67v424c0 45.333 -12.667 86 -38 122h174
c-24.667 -36.667 -37 -77.334 -37 -122.001v-175h24c12 0 28 30 48 90c1.33301 -3.33301 3.16602 -8.33301 5.49902 -15l7 -20.5c2.33301 -7 4.83301 -13.833 7.5 -20.5s4.66699 -12 6 -16c5.33301 -12.667 13 -19 23 -19l29 1c0 30 0.166992 59.167 0.5 87.5
s0.5 57.5 0.5 87.5c0 44 -12.667 84.667 -38 122h168c-12.667 -18.667 -21.834 -38 -27.501 -58s-8.5 -41.333 -8.5 -64l2 -422c0 -47.333 11.667 -90 35 -128h-172z" />
    <glyph glyph-name="I" unicode="I" horiz-adv-x="194" 
d="M11 0c3.33301 5.33301 7.16699 11.8369 11.5 19.5039s7.83301 13.167 10.5 16.5h-1c3.33301 4.66699 6 8.16699 8 10.5s3.33301 4.16602 4 5.49902l-1 -1c1.33301 5.33301 2.66602 12.666 3.99902 21.999s2.33301 20.333 3 33v454c0 44.667 -13.333 82 -40 112h170
c-9.33301 -14 -16.833 -25.833 -22.5 -35.5s-9.16699 -16.5 -10.5 -20.5c-1.33301 -4.66699 -2.5 -11.5 -3.5 -20.5s-1.16699 -20.833 -0.5 -35.5c0 -25.333 0.166992 -53.333 0.5 -84s0.5 -65 0.5 -103s-0.166992 -78.833 -0.5 -122.5s-0.5 -90.834 -0.5 -141.501
c-0.666992 -14 -0.5 -25.5 0.5 -34.5s2.16699 -15.833 3.5 -20.5c0.666992 -2.66699 5.33398 -10.334 14.001 -23.001l8.5 -14.5c3.66699 -6.33301 7.16699 -11.833 10.5 -16.5h-169z" />
    <glyph glyph-name="J" unicode="J" horiz-adv-x="444" 
d="M67 225l2 -2c0 1.33301 -0.666992 2 -2 2zM69 223l2 -2l-2 4v-2zM432 122c-5.33301 -2.66699 -11.499 -7.6709 -18.499 -15.0039s-14.5 -17.666 -22.5 -30.999c-8.66699 -13.333 -17.667 -25.333 -27 -36s-18 -19 -26 -25c-27.333 -19.333 -66.666 -28 -117.999 -26
c-28.667 0 -55.334 6.66699 -80.001 20c-23.333 12 -38.666 18 -45.999 18c1.33301 -1.33301 -6.33398 -5.33301 -23.001 -12c-0.666992 -1.33301 -1.66699 -2.66602 -3 -3.99902s-2.66602 -3 -3.99902 -5c-3.33301 -4 -7.33301 -7.83301 -12 -11.5s-8.66699 -5.5 -12 -5.5
c-8.66699 0 -16.334 4.33301 -23.001 13c46 68.667 69 122.667 69 162c0 8.66699 -2.33301 20 -7 34c-1.33301 4 -2.5 7.66699 -3.5 11s-1.83301 6 -2.5 8c0 -14.667 -10.667 -22 -32 -22c-24 0 -36 8.33301 -36 25c0 12 6.66699 21.5 20 28.5s28 10.5 44 10.5
c42 0 75 -20.333 99 -61c19.333 -34.667 28 -69 26 -103c-10 -0.666992 -18.167 -1.5 -24.5 -2.5s-11.166 -2.16699 -14.499 -3.5c-4.66699 -2 -6.66699 -8.33301 -6 -19c2 -13.333 10.667 -22.666 26 -27.999c7.33301 -3.33301 15.166 -5.5 23.499 -6.5
s17.166 -1.5 26.499 -1.5c33.333 0 56 11.333 68 34c7.33301 14.667 11 40.334 11 77.001v413c0 38 -13.667 76 -41 114h176c-25.333 -39.333 -38 -76 -38 -110l-1 -356c0 -12.667 2.66699 -26 8 -40c8.66699 -19.333 17 -31 25 -35z" />
    <glyph glyph-name="K" unicode="K" horiz-adv-x="418" 
d="M495 -168c-5.33301 -8 -12.3291 -10.3311 -20.9961 -6.99805c-38.667 19.333 -92 90 -160 212c-64.667 120 -100.334 213.667 -107.001 281c-2.66699 -2.66699 -5.33398 -6 -8.00098 -10l-9 -14h1c-2 -4 -3 -7.66699 -3 -11s0.333008 -5.5 1 -6.5
s1.66699 -2.16699 3 -3.5c0.666992 -0.666992 1.5 -1.66699 2.5 -3s1.83301 -2.33301 2.5 -3c0 -2 -0.333008 -3.33301 -1 -4c10 -8 15 -16 15 -24c0 -21.333 -12.333 -32 -37 -32c-11.333 0 -22 4.33301 -32 13c-4 0.666992 -7 2.66699 -9 6v-125
c0 -30.667 10.333 -64.667 31 -102h-156c8 16 14.833 31.167 20.5 45.5s9.16699 28.5 10.5 42.5c-0.666992 14.667 -0.833984 32.167 -0.500977 52.5s0.5 43.166 0.5 68.499v149.5c0 59.667 0.333008 130.5 1 212.5c-0.666992 13.333 -3.66699 29 -9 47s-13 36.667 -23 56
l157 -1c-21.333 -37.333 -32 -71.333 -32 -102v-261c6 10 15 20 27 30c32.667 28 59.667 71.667 81 131c14.667 43.333 24.334 87.333 29.001 132v-1c0.666992 13.333 -1.5 26.666 -6.5 39.999s-10.5 21.333 -16.5 24l3 8h151l4 -8c-12 -6 -25.333 -28.333 -40 -67
c-2.66699 -5.33301 -5.83398 -14.666 -9.50098 -27.999s-8.83398 -31 -15.501 -53c-0.666992 -1.33301 -1 -2.83301 -1 -4.5s-0.333008 -3.5 -1 -5.5c-8.66699 -32 -19.334 -56 -32.001 -72l-5 -10c-0.666992 -1.33301 -1.16699 -3 -1.5 -5s-1.16602 -3.66699 -2.49902 -5
c-5.33301 -10.667 -8 -16.667 -8 -18c4 -42 12 -87.833 24 -137.5s27.667 -100.834 47 -153.501c20 -51.333 41 -99.333 63 -144s45.667 -86 71 -124z" />
    <glyph glyph-name="L" unicode="L" horiz-adv-x="476" 
d="M460 234c0 -18 -13 -26.998 -39 -26.998c-22.667 0 -34 7.33301 -34 22c0 2.66699 1.33301 4.33398 4 5.00098c-8.66699 -2 -13 -12.333 -13 -31c0 -70.667 23.667 -138.334 71 -203.001h-435c24.667 35.333 37 73.666 37 114.999v455c0 31.333 -13 65.666 -39 102.999
h170c-24.667 -36.667 -37 -71 -37 -103v-455c0 -15.333 5 -38 15 -68c16 0 31.833 -0.166992 47.5 -0.5s31.5 -0.5 47.5 -0.5c44 0 66 10 66 30c0 12 -5.33301 18 -16 18c-0.666992 0 -3 -0.5 -7 -1.5s-10.667 -3.16699 -20 -6.5c0 46 8 84.667 24 116
c22 43.333 57 65 105 65c35.333 0 53 -11 53 -33z" />
    <glyph glyph-name="M" unicode="M" horiz-adv-x="537" 
d="M522 1c-25.333 -0.666992 -47.168 -1.00293 -65.501 -1.00293h-45.5c-19.333 0 -32.833 0.333008 -40.5 1s-6.5 3.66699 3.5 9l-4 -1c20.667 27.333 31 58.666 31 93.999l-1 474c-15.333 -96 -30 -192.333 -44 -289s-28.667 -192.667 -44 -288h-106l-94 549
c-1.33301 -31.333 -2 -84.666 -2 -159.999s-0.333008 -174 -1 -296c0 -15.333 1.33301 -30.833 4 -46.5s9.66699 -31.167 21 -46.5h-121c22 34.667 33 65.667 33 93v496c0 38 -11.667 65.667 -35 83h208c-7.33301 -5.33301 -14.166 -11.333 -20.499 -18
s-8.83301 -14.667 -7.5 -24c2 -13.333 5 -29.666 9 -48.999s9 -45 15 -77l22.5 -121l32.5 -181l18 109.5l17.5 104l17.5 104.5l18 110c2.66699 9.33301 -6.33301 23.333 -27 42h216c-23.333 -25.333 -35 -52.666 -35 -81.999v-489c0 -49.333 10.667 -79.666 32 -90.999z" />
    <glyph glyph-name="N" unicode="N" horiz-adv-x="480" 
d="M284 249v332.001c-1.33301 22 -4.5 39.833 -9.5 53.5s-12.833 23.167 -23.5 28.5l-3 8l170 -1c-26 -24 -38.333 -53.667 -37 -89h-2c1.33301 -7.33301 1.66602 -54.333 0.999023 -141s-1 -213.667 -1 -381c0 -18.667 14 -38.334 42 -59.001h-170
c15.333 18 21.666 31.667 18.999 41c-7.33301 28.667 -14.666 55.167 -21.999 79.5l-23 74.5l-72 223v-331c1.33301 -22 4.5 -39.5 9.5 -52.5s12.833 -22.167 23.5 -27.5l3 -8l-170 1c25.333 24 37.666 53 36.999 87h2c-1.33301 7.33301 -1.66602 54.333 -0.999023 141
s1 213.667 1 381c0 10 -3.5 19.667 -10.5 29s-17.5 19.333 -31.5 30h170c-15.333 -18 -21.666 -31.667 -18.999 -41l16.5 -60.5c5 -19 10.333 -37.667 16 -56l17.5 -56c6 -19 12.667 -38.833 20 -59.5z" />
    <glyph glyph-name="O" unicode="O" horiz-adv-x="480" 
d="M314 526c-1.33301 18.667 -2.83398 33.998 -4.50098 45.998s-3.5 20.667 -5.5 26c-12 26 -33 39 -63 39c-13.333 0 -24.833 -3.16699 -34.5 -9.5s-17.667 -14.666 -24 -24.999s-11.166 -22.166 -14.499 -35.499s-5 -27 -5 -41c0 -34 -0.5 -72.167 -1.5 -114.5
s-1.5 -84.5 -1.5 -126.5s0.833008 -81.667 2.5 -119s5.5 -68 11.5 -92c3.33301 -14 11.5 -24 24.5 -30s27.167 -9 42.5 -9c30 0 51 13 63 39c2 5.33301 3.83301 14 5.5 26s3.16699 27.333 4.5 46v380zM467.999 335.998c-38.667 -20.667 -58 -82.332 -58 -184.999
c0 -19.333 -4 -37.833 -12 -55.5s-19.333 -34.5 -34 -50.5c-32 -35.333 -73.333 -53 -124 -53c-52.667 0 -93.667 17.667 -123 53c-26 32 -40.333 67.333 -43 106c-1.33301 21.333 -3.66602 43.166 -6.99902 65.499s-7 44.166 -11 65.499c-3.33301 10 -9 18.667 -17 26
l-24 21c-1.33301 1.33301 -2.5 2.33301 -3.5 3s-2.16699 1.66699 -3.5 3c24 13.333 37.667 31.333 41 54c3.33301 15.333 7 34 11 56l14 79c5.33301 38.667 20.666 73.334 45.999 104.001c30.667 36 71.667 54 123 54c50 0 90.667 -18 122 -54
c30 -33.333 45 -68.333 45 -105c-1.33301 -43.333 6 -90.333 22 -141c4.66699 -16.667 17 -31 37 -43z" />
    <glyph glyph-name="P" unicode="P" 
d="M301 540c0 56.667 -43.335 85 -130.002 85c-1.33301 0 -3.16602 0.166992 -5.49902 0.5s-5.5 0.5 -9.5 0.5c-3.33301 0 -5.66602 0.166992 -6.99902 0.5s-5 0.5 -11 0.5v-286h76c58 1.33301 87 32 87 92v107zM404.998 449c2 -26.667 -13.667 -57.6699 -47 -93.0029
c-36 -38 -75.333 -57.333 -118 -58h-102v-205c0 -37.333 15 -68.333 45 -93h-185c29.333 22.667 44 52.667 44 90v497c0 12.667 -2.83301 26.167 -8.5 40.5s-14.167 29.166 -25.5 44.499l198 1c60.667 0 110 -18 148 -54c30 -29.333 47.667 -61.333 53 -96
c4 -11.333 7 -18 9 -20c3.33301 -3.33301 5.83301 -6 7.5 -8s3.16699 -4 4.5 -6c0.666992 -1.33301 -0.5 -2.16602 -3.5 -2.49902s-4.16699 -1.16602 -3.5 -2.49902c0 0.666992 -2.16699 -3.66602 -6.5 -12.999s-7.5 -18.666 -9.5 -27.999v6z" />
    <glyph glyph-name="Q" unicode="Q" horiz-adv-x="482" 
d="M312 524c-2.66699 17.333 -4.99902 31.667 -6.99902 43s-3.66699 19.333 -5 24c-6 13.333 -14.167 23.833 -24.5 31.5s-22.833 11.5 -37.5 11.5c-42.667 0 -67.667 -35.667 -75 -107c-1.33301 -12.667 -2.66602 -32.167 -3.99902 -58.5s-2.16602 -55.833 -2.49902 -88.5
s0 -66.834 1 -102.501s3.16699 -69 6.5 -100s7.83301 -58 13.5 -81s13.167 -38.167 22.5 -45.5v3c2 10 3.66699 20 5 30s3.66602 18.833 6.99902 26.5s8.66602 13.834 15.999 18.501s17.666 7 30.999 7c26.667 0 40 -9.33301 40 -28c0 -17.333 -13.333 -26 -40 -26
c-4.66699 0 -7 -9.33301 -7 -28c0 -9.33301 8.66699 -13.333 26 -12c18 2 30.667 38 38 108zM464.001 330.001c-4 -2 -8.1709 -6.16895 -12.5039 -12.502s-8.83301 -15.5 -13.5 -27.5c-5.33301 -15.333 -10.666 -34.5 -15.999 -57.5s-10.666 -50.5 -15.999 -82.5
c-3.33301 -17.333 -8.66602 -34.166 -15.999 -50.499s-17.333 -32.166 -30 -47.499c-26 -32 -56.333 -51.333 -91 -58c10 -11.333 24.333 -21.5 43 -30.5s40.667 -16.167 66 -21.5l-14 -39c-82 16.667 -133 46.334 -153 89.001c-38.667 7.33301 -70.667 27 -96 59
c-24 30.667 -39 63.667 -45 99c-5.33301 29.333 -10.833 56.5 -16.5 81.5s-11.167 44.5 -16.5 58.5c-2.66699 8.66699 -6 16.334 -10 23.001h1c-7.33301 9.33301 -15.666 16.666 -24.999 21.999c6.66699 3.33301 12.834 8.83301 18.501 16.5s10.834 18.167 15.501 31.5
c5.33301 14.667 10.833 33.5 16.5 56.5s11.167 51.5 16.5 85.5c6.66699 37.333 24 72 52 104c30.667 36 69.667 54 117 54c45.333 0 83.666 -18 114.999 -54c28.667 -32.667 46 -67.334 52 -104.001c5.33301 -33.333 10.666 -61.666 15.999 -84.999
s10.666 -42.333 15.999 -57c2 -5.33301 3.83301 -10 5.5 -14s3.16699 -7.33301 4.5 -10c2.66699 -4.66699 5.33398 -8.83398 8.00098 -12.501s5.66699 -6.16699 9 -7.5z" />
    <glyph glyph-name="R" unicode="R" horiz-adv-x="448" 
d="M314 543c-1.33301 24 -10.667 42.834 -28 56.501s-42 22.5 -74 26.5h-59v-275h34c12 0 24.667 0.333008 38 1c58.667 1.33301 88 32.666 88 93.999v54c0.666992 10 1 18.5 1 25.5v17.5zM392.999 -81.999c-19.333 17.333 -38.5 41.4941 -57.5 72.4941
s-38.833 69.167 -59.5 114.5l-40.5 102l-40.5 101c-5.33301 0 -10.5 -0.166992 -15.5 -0.5s-13.5 -0.166016 -25.5 0.500977c0 -36 -0.166992 -71.667 -0.5 -107s-0.5 -71 -0.5 -107c0 -42 15.333 -73.333 46 -94h-190c30 18.667 45 48.667 45 90v493c0 40 -14 70 -42 90
h218c93.333 -1.33301 155.333 -48 186 -140c4 -11.333 7 -18 9 -20c3.33301 -3.33301 5.83301 -6 7.5 -8s3.16699 -4 4.5 -6c0.666992 -1.33301 -0.5 -2.16602 -3.5 -2.49902s-4.16699 -1.16602 -3.5 -2.49902c0 0.666992 -2.16699 -3.66602 -6.5 -12.999
s-7.5 -18.666 -9.5 -27.999c-5.33301 -27.333 -17.5 -52.5 -36.5 -75.5s-42.5 -41.833 -70.5 -56.5c0 -0.666992 0.166992 -1.5 0.5 -2.5s0.5 -2.16699 0.5 -3.5c0.666992 -2 1.16699 -4.5 1.5 -7.5s0.833008 -6.16699 1.5 -9.5c13.333 -63.333 29.833 -124.333 49.5 -183
s41.167 -111 64.5 -157c3.33301 -6.66699 7.5 -14.167 12.5 -22.5s9.5 -16.166 13.5 -23.499l16 -29z" />
    <glyph glyph-name="S" unicode="S" horiz-adv-x="464" 
d="M455 174c-6 -5.33301 -11.3369 -11.5039 -16.0039 -18.5039s-8 -14.167 -10 -21.5c-9.33301 -38.667 -31.333 -71.5 -66 -98.5s-78.334 -43.167 -131.001 -48.5c-14 -1.33301 -28.667 -0.166016 -44 3.50098s-29 8.16699 -41 13.5c-26.667 14 -42.667 21.667 -48 23
c-10 1.33301 -19.333 -3 -28 -13c-12 -13.333 -21.333 -20 -28 -20c-4 0 -7.66699 0.833008 -11 2.5s-7 4.16699 -11 7.5c46.667 70 70 124.333 70 163c0 40.667 -6 61 -18 61c2 -1.33301 2.66699 -4.66602 2 -9.99902c-1.33301 -13.333 -11 -20 -29 -20
c-24.667 0 -37.334 8 -38.001 24c-1.33301 26.667 20.334 40 65.001 40c20.667 0 38.667 -4 54 -12s28.666 -19.333 39.999 -34c20.667 -28.667 31 -58 31 -88c0 -4 -0.333008 -8.5 -1 -13.5s-1 -9.83301 -1 -14.5c-27.333 2 -41 -4.33301 -41 -19
c0 -11.333 7 -21.833 21 -31.5s33.333 -14.5 58 -14.5c31.333 0 57.333 13.667 78 41c18 22.667 26 51.334 24 86.001c0 11.333 -9.66699 29 -29 53s-47.666 53.333 -84.999 88c-41.333 38 -75.166 71.333 -101.499 100s-43.166 50 -50.499 64
c-2 4.66699 -4.5 10.167 -7.5 16.5s-5.16699 11.833 -6.5 16.5c-5.33301 9.33301 -16.333 18.666 -33 27.999c15.333 10 31.666 30 48.999 60c18 28 36 49.333 54 64c26.667 20.667 63 31 109 31c20.667 0 43 -5.33301 67 -16c24.667 -10 40.667 -15 48 -15
c12 0 27.333 7.66699 46 23l26 -19c-17.333 -12 -34.333 -33.333 -51 -64c-16.667 -32 -25 -59.333 -25 -82c0 -5.33301 0.666992 -10.333 2 -15s2.66602 -8.66699 3.99902 -12c6.66699 6.66699 16.334 10 29.001 10c22 0 34.667 -10 38 -30c0 -10 -5.66699 -17.667 -17 -23
s-24.666 -7.66602 -39.999 -6.99902c-35.333 3.33301 -65 21 -89 53c-24 34 -32.667 67.333 -26 100c10.667 -7.33301 16.334 -11 17.001 -11c4 0 8.16699 2.5 12.5 7.5s6.5 9.16699 6.5 12.5c0 12.667 -6.33301 23 -19 31s-27 11.667 -43 11
c-10.667 -0.666992 -20.167 -2.66699 -28.5 -6s-16.166 -8.66602 -23.499 -15.999c-16 -15.333 -24 -37 -24 -65c1.33301 -28.667 18 -61 50 -97c9.33301 -11.333 22.5 -25.5 39.5 -42.5s38.167 -36.5 63.5 -58.5c24 -20.667 44 -38.834 60 -54.501s27.667 -28.167 35 -37.5
c5.33301 -5.33301 10.833 -11.833 16.5 -19.5s11.834 -16.834 18.501 -27.501c2.66699 -5.33301 6 -10.666 10 -15.999s9.66699 -10.666 17 -15.999v-7z" />
    <glyph glyph-name="T" unicode="T" horiz-adv-x="531" 
d="M76 395h-1l1 -1v1zM522 375c-8 -18 -26.335 -27.3301 -55.002 -27.9971c-15.333 -1.33301 -28.666 2 -39.999 10c-0.666992 -2.66699 -1.33398 -3.83398 -2.00098 -3.50098s-1.33398 2.16602 -2.00098 5.49902c-20.667 14 -37.334 37 -50.001 69
c-5.33301 16 -10 34 -14 54s-6.66699 40.333 -8 61c-1.33301 9.33301 -2.16602 17.666 -2.49902 24.999s-0.5 12.666 -0.5 15.999c9.33301 -3.33301 16.166 -5.66602 20.499 -6.99902s7.16602 -2 8.49902 -2c13.333 0 18 9.66699 14 29
c-3.33301 14.667 -26.666 22 -69.999 22c-1.33301 0 -2.16602 -0.166992 -2.49902 -0.5s-3.83301 -0.166016 -10.5 0.500977v-523c-1.33301 -39.333 9.33398 -73.666 32.001 -102.999h-154c22.667 31.333 32.667 65.666 30 102.999l2 523h-26
c-20 0 -34.667 -1.16699 -44 -3.5s-15.666 -7.5 -18.999 -15.5c-1.33301 -7.33301 -0.333008 -14.5 3 -21.5s9 -10.5 17 -10.5c2.66699 0 7.16699 0.166992 13.5 0.5s11.166 0.5 14.499 0.5c0 -2 -0.166992 -6 -0.5 -12s-0.833008 -12.667 -1.5 -20
c-1.33301 -20.667 -4.16602 -41 -8.49902 -61s-9.16602 -38.333 -14.499 -55c-10.667 -27.333 -24 -48 -40 -62s-34.333 -20.333 -55 -19c-4 0.666992 -8 1.16699 -12 1.5s-8.33301 1.16602 -13 2.49902c-14.667 4.66699 -25 13.334 -31 26.001c-2 24.667 9.66699 37 35 37
c15.333 0 25 -1.5 29 -4.5s7.66699 -7.5 11 -13.5v-1c2 20 2.83301 42 2.5 66s-2.5 48.167 -6.5 72.5s-9.83301 48.5 -17.5 72.5s-17.5 46 -29.5 66h474c-12 -20.667 -21.833 -42.834 -29.5 -66.501s-13.5 -47.5 -17.5 -71.5s-6.33301 -48 -7 -72s0 -46.667 2 -68
c1.33301 1.33301 2.5 3 3.5 5s2.16699 3.66699 3.5 5l-1 -1c4 8.66699 14.333 13 31 13c28 0 41 -13 39 -39z" />
    <glyph glyph-name="U" unicode="U" 
d="M424 127c-8.66699 -4.66699 -16.8311 -11.335 -24.498 -20.002s-16.167 -20 -25.5 -34h1c-17.333 -29.333 -37.833 -50.333 -61.5 -63s-56.834 -19 -99.501 -19c-20 0 -37.833 1.5 -53.5 4.5s-29.667 7.83301 -42 14.5s-23.5 15.667 -33.5 27s-20 25.333 -30 42
c-14.667 24.667 -31 41 -49 49c27.333 13.333 41 40 41 80l-1 352c0 18.667 -2.83301 37.334 -8.5 56.001s-14.834 37.334 -27.501 56.001h171c-25.333 -38.667 -38 -76.667 -38 -114c-0.666992 -3.33301 -1 -14.5 -1 -33.5v-79.5v-29v-49.5c0 -19 0.166992 -39.5 0.5 -61.5
s0.5 -43.333 0.5 -64v-56.5v-39.5c0 -69.333 29.667 -104 89 -104c26.667 0 48.667 7.66699 66 23s26 38.333 26 69l-2 438c0 44 -12.333 77.667 -37 101c5.33301 0 12.166 0.166992 20.499 0.5s17.5 0.5 27.5 0.5c9.33301 0 19.333 -0.166992 30 -0.5s21 -0.5 31 -0.5h34
c-24 -22 -36 -55.667 -36 -101l-1 -346c0 -17.333 0.166992 -30.833 0.5 -40.5s0.5 -16.167 0.5 -19.5v1c2.66699 -12.667 12.334 -24 29.001 -34z" />
    <glyph glyph-name="V" unicode="V" horiz-adv-x="455" 
d="M453 672c-10 -10.667 -18.498 -21.6699 -25.498 -33.0029s-12.833 -22.666 -17.5 -33.999l1 1c-0.666992 -2 -1.5 -5.33301 -2.5 -10s-2.16699 -11 -3.5 -19c-1.33301 -5.33301 -2.5 -10.666 -3.5 -15.999l-3.5 -19c-3.33301 -20 -12.833 -64.167 -28.5 -132.5
l-65.5 -278.5c-6 -24 -9 -44.333 -9 -61c0 -26.667 7.66699 -49.667 23 -69h-167c14 24 21 45.667 21 65c0 12.667 -4 35.667 -12 69l-94 408c-0.666992 3.33301 -1.33398 6.33301 -2.00098 9s-1.33398 5.66699 -2.00098 9c-3.33301 13.333 -5.83301 24.333 -7.5 33
s-3.16699 14 -4.5 16c-8 24.667 -25.667 45.334 -53 62.001h180c-14.667 -20 -22 -41.333 -22 -64c0 -14 4 -36 12 -66c9.33301 -38 20.333 -88.167 33 -150.5l45 -224.5l40 188l41 188c6 32.667 9 57.667 9 75c0 19.333 -3.33301 37.333 -10 54h128z" />
    <glyph glyph-name="W" unicode="W" horiz-adv-x="698" 
d="M694 672c-19.333 -20.667 -33.3301 -43.6709 -41.9971 -69.0039c-2.66699 -5.33301 -8.33398 -26.666 -17.001 -63.999c-6.66699 -26 -12.667 -52.167 -18 -78.5l-16 -81.5c-4 -28 -10.833 -62.667 -20.5 -104l-34.5 -141c-6.66699 -24 -10 -45 -10 -63
c0 -26.667 8 -50 24 -70h-162c13.333 22 20 43 20 63c0 4 -0.833008 12 -2.5 24s-4.16699 27.667 -7.5 47l-14.5 77l-12.5 69.5c-4 23 -8.33301 46.5 -13 70.5s-9.33398 50.333 -14.001 79c-6 -30.667 -14.333 -70.667 -25 -120l-39 -177c-6.66699 -24 -10 -45 -10 -63
c0 -26.667 8 -50 24 -70h-153c14 24 21 45.667 21 65c0 13.333 -3.66699 36.333 -11 69l-48.5 205.5l-48.5 205.5c-8.66699 34.667 -13.667 55.334 -15 62.001l1 -1c-8 22 -24 44 -48 66h174c-13.333 -23.333 -20 -47.333 -20 -72c0 -15.333 3 -35 9 -59
c2 -9.33301 4.5 -21.666 7.5 -36.999s7.33301 -35.666 13 -60.999l21.5 -93l32 -134l43.5 229l42.5 227l70 -1c3.33301 -20 7.66602 -43.333 12.999 -70l19.5 -95l27.5 -127.5l37 -166.5l35 165l35 164c3.33301 18 5.83301 33.167 7.5 45.5s2.5 21.5 2.5 27.5
c0 20.667 -6 40 -18 58z" />
    <glyph glyph-name="X" unicode="X" horiz-adv-x="434" 
d="M252 1c13.333 14.667 20.001 32.998 20.001 54.998c0 13.333 -1.16699 25.833 -3.5 37.5s-5.5 23.834 -9.5 36.501l-20 54c-6.66699 18 -15.667 40.667 -27 68l-26 -62.5l-25 -62.5c-10 -23.333 -15 -45.333 -15 -66c0 -21.333 6.33301 -41.666 19 -60.999l-165 1
c43.333 40 74.666 86.333 93.999 139l74 198c-5.33301 16.667 -13.833 41.667 -25.5 75l-45.5 127c-18 50 -47.667 94.667 -89 134h178c-4.66699 -10.667 -8.33398 -20.5 -11.001 -29.5s-4 -18.167 -4 -27.5c0 -15.333 4 -35 12 -59l35 -107l22 56l22 57
c4 10.667 7.16699 20.167 9.5 28.5s3.5 16.5 3.5 24.5c0 11.333 -3.33301 30 -10 56l151 1c-19.333 -18 -36.666 -38.5 -51.999 -61.5s-28.333 -47.5 -39 -73.5l-9.5 -25.5l-11.5 -29.5l-21 -53.5l-24 -61.5l43.5 -113.5l42.5 -113.5l13.5 -35.5
c4.33301 -11.667 8.83301 -23.167 13.5 -34.5c12 -26.667 33.333 -50.667 64 -72z" />
    <glyph glyph-name="Y" unicode="Y" horiz-adv-x="447" 
d="M448 673c-20.667 -18.667 -38 -38.6709 -52 -60.0039s-25.667 -44.333 -35 -69l-93 -238l1 2v-206c1.33301 -23.333 3.33301 -40 6 -50l-1 1c4.66699 -12.667 17.334 -30 38.001 -52l-171 -2l21.5 34.5c5 8.33301 8.5 14.5 10.5 18.5c2.66699 8 4.66699 23.667 6 47v210
l1 -2l-92 251c-10.667 32.667 -40 71 -88 115h169c-6.66699 -11.333 -10 -24.666 -10 -39.999c0 -11.333 1.16699 -22.666 3.5 -33.999s5.5 -22.666 9.5 -33.999l13.5 -40l13.5 -39.5l15 -43.5c5.33301 -15.333 11.666 -32.666 18.999 -51.999l25 71.5l32 87.5
c10 26 15 51 15 75c0 14 -3.33301 30.333 -10 49h153z" />
    <glyph glyph-name="Z" unicode="Z" horiz-adv-x="482" 
d="M460 255c6 -6.66699 9 -13.0029 9 -19.0029c0 -9.33301 -4.66699 -17.166 -14 -23.499s-19 -9.5 -29 -9.5c-19.333 0 -32 6.33301 -38 19c-7.33301 -10.667 -11 -27.334 -11 -50.001c0 -33.333 6.66699 -67.333 20 -102c12 -29.333 26.667 -52.666 44 -69.999h-440
c30.667 18.667 54.667 47.667 72 87l36.5 83.5l36.5 83.5l32 79.5l45 110.5l78 181c-6 0 -11.833 0.166992 -17.5 0.5s-11.167 0.5 -16.5 0.5c-74 0 -111 -9 -111 -27c0 -12 5.66699 -17.667 17 -17c0.666992 0 3 0.666992 7 2c3.33301 0.666992 8 1.5 14 2.5s12 1.5 18 1.5
c-5.33301 -8.66699 -9.16602 -16.5 -11.499 -23.5s-3.83301 -13.167 -4.5 -18.5c-2 -31.333 -11 -59.333 -27 -84h1c-20 -31.333 -49 -47 -87 -47c-20 0 -34.667 9.66699 -44 29c0 18 12.333 27 37 27c8.66699 0 17.667 -4 27 -12c3.33301 6.66699 5 17.334 5 32.001
c0 17.333 -7.66699 46.333 -23 87c-8 20 -15.833 38 -23.5 54s-16.167 29.667 -25.5 41h410c-15.333 -12 -28 -25 -38 -39s-18.667 -28.667 -26 -44c-4 -9.33301 -9 -21.666 -15 -36.999l-22 -55l-189 -451h107c38.667 -3.33301 58 6 58 28c0 8 -7 12.667 -21 14
c-4 -1.33301 -8.33301 -2 -13 -2c0 0.666992 -3 0.5 -9 -0.5s-11.333 -2.16699 -16 -3.5c0 46.667 19 93.667 57 141c26 31.333 57 47 93 47c17.333 0 32.666 -5 45.999 -15z" />
    <glyph glyph-name="bracketleft" unicode="[" horiz-adv-x="216" 
d="M181 0h-145v670h145v-41h-84v-588h84v-41z" />
    <glyph glyph-name="backslash" unicode="\" horiz-adv-x="341" 
d="M314 -2h-60l-208 672h60z" />
    <glyph glyph-name="bracketright" unicode="]" horiz-adv-x="216" 
d="M181 0h-145v41h83v588h-83v41h145v-670z" />
    <glyph glyph-name="asciicircum" unicode="^" horiz-adv-x="443" 
d="M345 696c-18.667 1.33301 -35.1699 2.83203 -49.5029 4.49902s-25.5 3.5 -33.5 5.5c-11.333 3.33301 -21.666 7.33301 -30.999 12s-16.666 10.334 -21.999 17.001c-26 -22 -68.333 -35 -127 -39v23c23.333 0 44.333 8.33301 63 25c6.66699 6 11.834 12.333 15.501 19
s6.5 13.667 8.5 21l88 -2c0 -13.333 9 -27 27 -41c20.667 -14.667 41 -22 61 -22v-23z" />
    <glyph glyph-name="underscore" unicode="_" horiz-adv-x="426" 
d="M445 -115h-457v37h457v-37z" />
    <glyph glyph-name="grave" unicode="`" horiz-adv-x="503" 
d="M326 689c-61.333 4.66699 -108 15.5 -140 32.5s-54.333 39.5 -67 67.5l101 -1c2.66699 -5.33301 6.16699 -11.5 10.5 -18.5l11.5 -18.5c18.667 -24.667 46.667 -37 84 -37v-25z" />
    <glyph glyph-name="a" unicode="a" horiz-adv-x="399" 
d="M243 234c-6.66699 56 -12.6689 111.17 -18.002 165.503s-11.333 108.833 -18 163.5h-37c-6 -56 -12.167 -110.667 -18.5 -164l-19.5 -165c3.33301 0 5.5 0.166992 6.5 0.5s3.16699 0.5 6.5 0.5c2.66699 0 5.83398 2 9.50098 6s7.16699 8.33301 10.5 13
c-1.33301 -1.33301 -1.83301 -1.33301 -1.5 0s1 3.5 2 6.5s2.33301 6.5 4 10.5s3.5 8 5.5 12c0 0.666992 0.5 3 1.5 7s2.16699 8.16699 3.5 12.5s2.33301 8.16602 3 11.499s1 5.66602 1 6.99902l13 -37c2 -4.66699 3.83301 -9.83398 5.5 -15.501
s3.83398 -11.167 6.50098 -16.5c6 -12 13 -18 21 -18h13zM287.998 605.003l19.998 -0.00390625c-8.66699 -14.667 -13.667 -29.667 -15 -45c1.33301 -10.667 2.66602 -22.167 3.99902 -34.5s2.66602 -26.166 3.99902 -41.499v1l18.5 -179.5l19.5 -179.5
c3.33301 -22.667 9.5 -44.834 18.5 -66.501s22.167 -41.5 39.5 -59.5h-166c18 20 26.333 59.667 25 119c0 1.33301 -0.666992 8.83301 -2 22.5s-3.66602 33.834 -6.99902 60.501h-17c-5.33301 0 -11 -1.66699 -17 -5s-10.333 -9 -13 -17l1 1
c-0.666992 -2 -2.16699 -5.33301 -4.5 -10s-5.83301 -13 -10.5 -25l-2 1c-2 18.667 -6.83301 32.5 -14.5 41.5s-15.834 13.5 -24.501 13.5h-17c-1.33301 -13.333 -2.83301 -27.333 -4.5 -42s-3.16699 -29 -4.5 -43c-1.33301 -12 -2.66602 -22.5 -3.99902 -31.5
s-2.33301 -17.167 -3 -24.5c0 -21.333 8.66699 -41.666 26 -60.999h-137c14.667 15.333 26.334 34 35.001 56s15 43.667 19 65c6.66699 54.667 13.334 113.334 20.001 176.001s14.334 127 23.001 193c3.33301 13.333 5.33301 24.666 6 33.999s1 17 1 23
c0 10.667 -1.5 20.834 -4.5 30.501s-7.83301 18.834 -14.5 27.501h202z" />
    <glyph glyph-name="b" unicode="b" horiz-adv-x="425" 
d="M301 170l-0.000976562 13c0 32.667 -6.5 59 -19.5 79s-29.5 30 -49.5 30c-11.333 0 -20.5 -2.33301 -27.5 -7s-10.5 -10 -10.5 -16c0 -0.666992 0.333008 -1 1 -1c0.666992 -0.666992 1.33398 -1 2.00098 -1h8c22 0 33 -8.33301 33 -25c0 -15.333 -12 -23 -36 -23
c-37.333 0 -56 15 -56 45c0 12 3.83301 22.667 11.5 32s21.5 18 41.5 26c34.667 14 56.667 24.667 66 32v-1c18.667 20 28 56.667 28 110c0 22 -2.83301 39.5 -8.5 52.5s-14.667 23 -27 30s-27.833 11.5 -46.5 13.5s-41 3 -67 3c0 -88 -0.166992 -174.5 -0.5 -259.5
s-0.5 -172.167 -0.5 -261.5c27.333 0 50.5 1.33301 69.5 4s34.667 8.5 47 17.5s21.833 22.167 28.5 39.5s11 40 13 68zM411.999 164c-6.66699 -2 -12 -6.83105 -16 -14.498s-6.66699 -14.834 -8 -21.501c-4.66699 -38 -22.834 -68.833 -54.501 -92.5
s-75.5 -35.5 -131.5 -35.5h-184c26.667 21.333 40 51 40 89v428c0 33.333 -14.667 62.666 -44 87.999h175c112 0 173.333 -40.667 184 -122c2 -7.33301 5.83301 -13.333 11.5 -18s11.834 -10.334 18.501 -17.001c-14 -10 -22.5 -17.167 -25.5 -21.5
s-4.5 -10.166 -4.5 -17.499c-4.66699 -44 -31.667 -74.667 -81 -92c28.667 -7.33301 50.5 -19.5 65.5 -36.5s24.833 -39.833 29.5 -68.5c0 -18 8.66699 -31 26 -39z" />
    <glyph glyph-name="c" unicode="c" horiz-adv-x="401" 
d="M397 599c-18.667 -8 -35.6689 -30.6592 -51.002 -67.9922c-7.33301 -17.333 -13.166 -34.5 -17.499 -51.5s-6.5 -32.167 -6.5 -45.5c0 -10.667 0.666992 -17.334 2 -20.001c8 8 17.667 12 29 12c21.333 0 32 -8 32 -24c0 -16.667 -15.667 -25.334 -47 -26.001
s-55.666 11 -72.999 35c-14 22.667 -21 48 -21 76c0 6.66699 0.333008 13 1 19s2 12.333 4 19c10.667 -3.33301 17.334 -5 20.001 -5c17.333 0 26 7 26 21c0 20 -25 31 -75 33c-20.667 1.33301 -37.834 -6.33398 -51.501 -23.001s-23.5 -39.667 -29.5 -69
c-3.33301 -18.667 -5.83301 -43 -7.5 -73s-2.5 -65 -2.5 -105c0 -30 0.833008 -57.333 2.5 -82s4.16699 -46.334 7.5 -65.001c0 -81.333 30.333 -122 91 -122c31.333 0 55.333 13 72 39h-1c13.333 21.333 20 47.333 20 78c0 10.667 -0.666992 21.334 -2 32.001
c-5.33301 -2.66699 -10.5 -4.5 -15.5 -5.5s-9.83301 -1.5 -14.5 -1.5c-14 0 -25.167 4.33301 -33.5 13s-12.5 18.667 -12.5 30c0 29.333 18.667 44 56 44c14.667 0 27.334 -3 38.001 -9h-1c29.333 -18.667 44 -50.334 44 -95.001c0 -20.667 -3.33301 -40.167 -10 -58.5
s-16 -35.833 -28 -52.5c-28 -36.667 -65.333 -55 -112 -55c-98 0 -160 69.333 -186 208c-0.666992 0 -1 0.333008 -1 1v2c-1.33301 7.33301 -2.66602 16.5 -3.99902 27.5s-3.33301 24.5 -6 40.5c-2.66699 12 -12 21.333 -28 28c5.33301 4.66699 9.66602 9.5 12.999 14.5
l13 20.5c0 2.66699 1 9.5 3 20.5l5 27.5c0 1.33301 0.166992 2.16602 0.5 2.49902s0.5 1.16602 0.5 2.49902c8.66699 67.333 21.667 115.666 39 144.999v-1c28.667 54 76.667 81 144 81c22 0 42 -3.33301 60 -10c6 -2.66699 12.333 -4.83398 19 -6.50098s11 -2.5 13 -2.5
c6 0 13.167 1.5 21.5 4.5s18.166 8.16699 29.499 15.5z" />
    <glyph glyph-name="d" unicode="d" horiz-adv-x="416" 
d="M292 310c0 42 -1.5 78.499 -4.5 109.499s-7.5 55.167 -13.5 72.5c-17.333 46.667 -48.666 70.334 -93.999 71.001h-53v-521h52c45.333 0 76.666 26.667 93.999 80c12.667 37.333 19 100 19 188zM403 298.999c-10.667 -8 -17.668 -15.334 -21.001 -22.001
c-2.66699 -8.66699 -4.66699 -18.667 -6 -30c-4 -68.667 -14.333 -121 -31 -157c-14 -29.333 -33.833 -51.333 -59.5 -66s-56.167 -22.667 -91.5 -24c-5.33301 -0.666992 -11.5 -1 -18.5 -1h-20.5h-24c-8 0 -16.333 0.333008 -25 1h-102c24 20.667 36 44.334 36 71.001v464
c0 26 -12 49.333 -36 70h102c34 0 62.667 0.333008 86 1c72 0.666992 122.667 -29 152 -89c16.667 -36 27.334 -88.667 32.001 -158c0.666992 -10.667 2.66699 -20.667 6 -30c2.66699 -7.33301 9.66699 -15 21 -23v-7z" />
    <glyph glyph-name="e" unicode="e" 
d="M417 211c0 -16 -11.668 -23.999 -35.001 -23.999c-20 0 -30 6.66699 -30 20c0 2.66699 1 4 3 4c-8 -1.33301 -12 -10.333 -12 -27c0 -66 21.333 -127.333 64 -184h-399c2 2.66699 4.66699 6.66699 8 12s5.66602 9.33301 6.99902 12c2 3.33301 3.83301 6 5.5 8
s3.16699 4.66699 4.5 8c8 16.667 12 37.334 12 62.001v409c0 34 -12.333 65.333 -37 94h379c-18.667 -14 -33 -36.667 -43 -68c-8.66699 -26 -13 -48.667 -13 -68c0 -8.66699 1.66699 -19.667 5 -33c0.666992 -6 2.33398 -11.333 5.00098 -16c6 12.667 17.667 19 35 19
c24 0 36 -7.66699 36 -23c0 -22 -19 -33 -57 -33s-69 16.667 -93 50c-18.667 29.333 -28.334 60.333 -29.001 93c4.66699 -0.666992 9 -1.33398 13 -2.00098s7.33301 -1 10 -1c10.667 0 16 5.33301 16 16c0 15.333 -19.667 23 -59 23h-83v-230h54v97h42
c-1.33301 -4.66699 -2 -8.16699 -2 -10.5v-8.5c0 -8.66699 1.66699 -17.834 5 -27.501s8 -18.834 14 -27.501s13 -16.667 21 -24s17.333 -12.666 28 -15.999v-9c-28 -4.66699 -46.667 -20 -56 -46c-9.33301 -19.333 -13.333 -42.333 -12 -69l-41 1v50
c0 12 -0.166992 21.667 -0.5 29s-0.166016 14 0.500977 20h-49l-1 -249h86c47.333 0 71 9 71 27c0 10.667 -5 16 -15 16c-0.666992 0 -2.66699 -0.333008 -6 -1s-9.33301 -2.66699 -18 -6c0 42 7.66699 77 23 105c10.667 18.667 23.834 33 39.501 43s34.167 15 55.5 15
c32 0 48 -10 48 -30z" />
    <glyph glyph-name="f" unicode="f" horiz-adv-x="425" 
d="M415 416c0 -24 -19.999 -35.9951 -59.999 -35.9951c-19.333 0 -36.833 4.66699 -52.5 14s-28.834 22 -39.501 38c-8.66699 14 -15.167 29.167 -19.5 45.5s-6.83301 33.833 -7.5 52.5l31 -8c12 0 18 5.66699 18 17c0 16 -22.333 24 -67 24h-86v-231h55
c-0.666992 15.333 -1.16699 31.5 -1.5 48.5s-0.833008 33.167 -1.5 48.5h46c-0.666992 -27.333 3.66602 -51 12.999 -71c10 -22.667 27.333 -38.667 52 -48c-40.667 -22.667 -61 -62.334 -61 -119.001c0 -11.333 0.333008 -18.333 1 -21
c2 1.33301 4.16699 2.16602 6.5 2.49902s4.5 1.16602 6.5 2.49902c2 0 4.5 0.5 7.5 1.5s3.83301 1.16699 2.5 0.5l9 -4v1c4.66699 -2 9.33398 -4.16699 14.001 -6.5s8 -6.16602 10 -11.499c0.666992 -22.667 -15.666 -34 -48.999 -34
c-2.66699 1.33301 -6.33398 2.5 -11.001 3.5s-9.33398 2.16699 -14.001 3.5c-20 10.667 -30 25 -30 43v119h-55c0 -31.333 0.166992 -63 0.5 -95s0.5 -63.333 0.5 -94c1.33301 -16 2.33301 -28.5 3 -37.5s1 -13.833 1 -14.5c2 -6.66699 6.16699 -14 12.5 -22
s14.5 -17 24.5 -27c-1.33301 0 -7.16602 0.166992 -17.499 0.5s-21.5 0.5 -33.5 0.5c-11.333 0 -26.166 -0.166992 -44.499 -0.5s-38.5 -0.5 -60.5 -0.5l-3 8c2 1.33301 4.33301 3.33301 7 6s5.66699 6.66699 9 12c11.333 19.333 17 44.666 17 75.999v408
c0 34 -12.333 65.333 -37 94h380c-10.667 -6.66699 -19.667 -15.834 -27 -27.501s-13.333 -25.167 -18 -40.5c-8.66699 -26 -13 -48.667 -13 -68c0 -8.66699 1.33301 -19.667 4 -33v1c1.33301 -4.66699 2.5 -8 3.5 -10s2.16699 -4 3.5 -6
c2.66699 7.33301 6.66699 12.166 12 14.499s12.666 3.5 21.999 3.5c24.667 0 37 -7.66699 37 -23z" />
    <glyph glyph-name="g" unicode="g" horiz-adv-x="428" 
d="M416 386c0 -20 -17.332 -29.6641 -51.999 -28.9971c-36 0.666992 -65 15 -87 43c-18.667 24 -28 49.667 -28 77v9c0 3.33301 0.666992 7.66602 2 12.999c32.667 4 49 14.333 49 31c0 10 -6.16699 19 -18.5 27s-29.166 12 -50.499 12c-58 0 -87 -35.333 -87 -106
c-3.33301 -22.667 -6 -47.167 -8 -73.5s-3.33301 -54.833 -4 -85.5c-0.666992 -38 0.166016 -72.833 2.49902 -104.5s5.5 -60.834 9.5 -87.501c0 -53.333 23.667 -80 71 -80c49.333 0 74 29.667 74 89v118c0 27.333 -11 50.333 -33 69h150
c-19.333 -20.667 -29 -41.334 -29 -62.001v-143c0.666992 -21.333 2.66699 -40.333 6 -57s8.33301 -32 15 -46l-11 -10l-15 9.5c-4.66699 3 -10.334 7.5 -17.001 13.5h1c-2.66699 2 -6.16699 4 -10.5 6s-8.83301 3 -13.5 3c-8 0 -23.667 -5.33301 -47 -16
c-23.333 -10 -47.333 -15.333 -72 -16c-106.667 -2 -167.334 90.667 -182.001 278c-0.666992 18 -8.66699 31.667 -24 41c10.667 6.66699 20.334 21.334 29.001 44.001l-1 -2c13.333 172.667 78.666 259 195.999 259c8 0 17.167 -1 27.5 -3s21.5 -5 33.5 -9
c11.333 -2.66699 21.5 -4.83398 30.5 -6.50098s15.5 -2.5 19.5 -2.5c14.667 0 32.334 6.66699 53.001 20l12 -11c-8 -10 -15.833 -20.5 -23.5 -31.5l-21.5 -31.5h1c-17.333 -31.333 -24 -63.333 -20 -96v-1c2 -14.667 5 -27 9 -37c6 8 17 12 33 12c20.667 0 31 -9 31 -27z
" />
    <glyph glyph-name="h" unicode="h" horiz-adv-x="384" 
d="M227 0c24.667 37.333 36.999 74.999 36.999 112.999v188c-5.33301 0.666992 -10.666 1.16699 -15.999 1.5s-10.333 0.5 -15 0.5c-2.66699 0.666992 -5.5 -0.833008 -8.5 -4.5s-6.16699 -8.5 -9.5 -14.5c1.33301 1.33301 1.83301 1.33301 1.5 0
s-1.16602 -3.33301 -2.49902 -6s-2.83301 -6 -4.5 -10s-3.5 -8 -5.5 -12c-0.666992 -1.33301 -1.33398 -3.83301 -2.00098 -7.5s-1.66699 -7.66699 -3 -12l-3.5 -11.5l-1.5 -5c-8 22.667 -14.667 40 -20 52s-8.66602 19.333 -9.99902 22c-2 4.66699 -8 7.33398 -18 8.00098
c-4.66699 0 -7.83398 0.166992 -9.50098 0.5s-4.5 0.5 -8.5 0.5v-188c0 -40.667 11 -79 33 -115h-155c11.333 16.667 19.666 34.334 24.999 53.001s8 38.667 8 60v382c0 40.667 -11.667 77.334 -35 110.001h157c-22 -33.333 -33 -70 -33 -110v-158h21c11.333 0 26 27 44 81
c0.666992 -2.66699 2.16699 -7 4.5 -13s4.5 -12.167 6.5 -18.5s4.16699 -12.5 6.5 -18.5l5.5 -14c4.66699 -11.333 11.667 -17 21 -17h26c0 27.333 0.166992 53.666 0.5 78.999s0.5 51.666 0.5 78.999c0 39.333 -11.667 76 -35 110h152
c-11.333 -16.667 -19.666 -34 -24.999 -52s-8 -37.333 -8 -58l2 -380c0 -42.667 10.667 -81 32 -115h-155z" />
    <glyph glyph-name="i" unicode="i" horiz-adv-x="175" 
d="M10 0l10 17.502c4 7 7.33301 11.833 10 14.5h-1c2.66699 4.66699 5 8 7 10s3.33301 3.66699 4 5l-1 -1c0.666992 4.66699 1.66699 11.167 3 19.5s2.33301 18.166 3 29.499v409c0 40 -12 73.667 -36 101h153c-8.66699 -12.667 -15.5 -23.334 -20.5 -32.001
s-8.16699 -15 -9.5 -19s-2.33301 -10 -3 -18s-0.666992 -18.667 0 -32c0 -22.667 0.166992 -47.834 0.5 -75.501s0.5 -58.5 0.5 -92.5c0 -34.667 -0.166992 -71.667 -0.5 -111s-0.5 -81.666 -0.5 -126.999c-0.666992 -12.667 -0.666992 -23 0 -31s1.66699 -14 3 -18
c0.666992 -2.66699 5 -9.66699 13 -21c2 -3.33301 4.5 -7.83301 7.5 -13.5s6.16699 -10.5 9.5 -14.5h-152z" />
    <glyph glyph-name="j" unicode="j" horiz-adv-x="400" 
d="M60 202l2 -1c0 0.666992 -0.666992 1 -2 1zM62 201l2 -2l-2 3v-1zM389 110c-4.66699 -2.66699 -10.1699 -7.33496 -16.5029 -14.002s-13.166 -16 -20.499 -28c-8 -12 -16.167 -22.667 -24.5 -32s-16.166 -17 -23.499 -23c-24.667 -17.333 -60 -25 -106 -23
c-26 0 -50 6 -72 18c-21.333 10.667 -35 16 -41 16c0.666992 -1.33301 -6.33301 -5 -21 -11l-3 -3c-1.33301 -1.33301 -2.33301 -3 -3 -5c-3.33301 -3.33301 -7.16602 -6.66602 -11.499 -9.99902s-7.83301 -5 -10.5 -5c-8 0 -15 4 -21 12c41.333 61.333 62 110 62 146
c0 7.33301 -2 17.333 -6 30c-1.33301 4 -2.33301 7.5 -3 10.5s-1.33398 5.16699 -2.00098 6.5c0 -13.333 -9.66699 -20 -29 -20c-22 0 -33 7.66699 -33 23c0 10.667 6 19.167 18 25.5s25.333 9.5 40 9.5c38 0 67.667 -18.333 89 -55c17.333 -31.333 25.333 -62.333 24 -93
c-9.33301 0 -16.833 -0.5 -22.5 -1.5s-10.167 -2.16699 -13.5 -3.5c-4 -2 -5.66699 -7.66699 -5 -17c2 -12 9.66699 -20.333 23 -25c6.66699 -3.33301 13.834 -5.33301 21.501 -6s15.5 -1 23.5 -1c30 0 50.667 10 62 30c6.66699 13.333 10 36.333 10 69v372
c0 34 -12.333 68.333 -37 103h158c-22.667 -35.333 -34 -68.333 -34 -99l-1 -321c0 -11.333 2.33301 -23.333 7 -36c8 -17.333 15.667 -27.666 23 -30.999z" />
    <glyph glyph-name="k" unicode="k" horiz-adv-x="376" 
d="M445 -151c-4.66699 -7.33301 -10.665 -9.66895 -17.998 -7.00195c-35.333 18 -83.333 81.667 -144 191c-58.667 108 -91 192.333 -97 253c-2 -2 -4.33301 -4.83301 -7 -8.5s-5.33398 -7.83398 -8.00098 -12.501h1c-2 -4 -3 -7.33301 -3 -10
c0 -3.33301 0.333008 -5.5 1 -6.5s1.66699 -1.83301 3 -2.5c0.666992 -0.666992 1.33398 -1.66699 2.00098 -3s1.33398 -2.33301 2.00098 -3c0 -1.33301 -0.333008 -2.33301 -1 -3c9.33301 -7.33301 14 -14.666 14 -21.999c0 -19.333 -11 -29 -33 -29
c-10.667 0 -20.334 4 -29.001 12c-4 0.666992 -6.66699 2.33398 -8 5.00098v-112c0 -28 9.33301 -58.667 28 -92h-141c7.33301 14.667 13.5 28.334 18.5 41.001s8.16699 25.334 9.5 38.001c-0.666992 13.333 -0.833984 29.166 -0.500977 47.499s0.5 38.833 0.5 61.5v134.5
c0 53.667 0.333008 117.5 1 191.5c-0.666992 12 -3.33398 26.167 -8.00098 42.5s-11.667 33.166 -21 50.499l141 -1c-18.667 -34 -28 -64.667 -28 -92v-235c5.33301 9.33301 13.333 18.333 24 27c29.333 25.333 53.666 64.666 72.999 117.999
c13.333 38.667 22 78.334 26 119.001v-1c0.666992 12 -1.33301 24 -6 36s-9.66699 19 -15 21l3 8h136l3 -8c-10.667 -5.33301 -22.667 -25.333 -36 -60c-2 -4.66699 -4.66699 -13 -8 -25l-14 -48c-0.666992 -1.33301 -1 -2.66602 -1 -3.99902s-0.333008 -3 -1 -5
c-8 -28.667 -17.667 -50.334 -29 -65.001l-4 -9c-0.666992 -0.666992 -1.16699 -2 -1.5 -4s-1.16602 -3.66699 -2.49902 -5c-4.66699 -9.33301 -7 -14.666 -7 -15.999c3.33301 -37.333 10.5 -78.5 21.5 -123.5s25.167 -91.167 42.5 -138.5
c18 -46 36.833 -89.167 56.5 -129.5s41.167 -77.5 64.5 -111.5v-5z" />
    <glyph glyph-name="l" unicode="l" horiz-adv-x="428" 
d="M414 211c0 -16.667 -11.665 -25.002 -34.998 -25.002c-20.667 0 -31 6.66699 -31 20c0 2.66699 1.33301 4.33398 4 5.00098c-8 -2 -12 -11.333 -12 -28c0 -64 21.333 -125 64 -183h-391c22 32 33 66.333 33 103v410c0 28 -11.667 59 -35 93h153
c-22.667 -33.333 -34 -64.333 -34 -93v-410c0 -13.333 4.66699 -33.666 14 -60.999c14.667 0 29 -0.166992 43 -0.5s28 -0.5 42 -0.5c40 0 60 9 60 27c0 11.333 -5 17 -15 17l-5.5 -1.5c-3.66699 -1 -9.83398 -3.16699 -18.501 -6.5c0 41.333 7.33301 76.333 22 105
c19.333 38.667 50.666 58 93.999 58c32 0 48 -9.66699 48 -29z" />
    <glyph glyph-name="m" unicode="m" horiz-adv-x="483" 
d="M470 1c-22.667 -0.666992 -42.3311 -1.00098 -58.998 -1.00098h-41c-17.333 0 -29.5 0.333008 -36.5 1s-5.83301 3.33398 3.5 8.00098l-4 -1c18.667 24.667 28 53 28 85l-1 426c-14 -86 -27.333 -172.5 -40 -259.5l-39 -259.5h-96l-84 494c-1.33301 -28 -2 -76 -2 -144
s-0.333008 -156.667 -1 -266c0 -14 1.16699 -28 3.5 -42s8.83301 -28 19.5 -42h-109c19.333 31.333 29 59.333 29 84v446c0 34 -10.333 59 -31 75h187c-6.66699 -4.66699 -12.834 -10 -18.501 -16s-7.83398 -13.333 -6.50098 -22c2 -12 4.66699 -26.667 8 -44l13.5 -69.5
l20.5 -109l29 -162.5l16 98.5l16 93.5l16 94l16 99c2 8.66699 -6 21.334 -24 38.001h194c-21.333 -22.667 -32 -47.334 -32 -74.001v-440c0 -44.667 9.66699 -72 29 -82z" />
    <glyph glyph-name="n" unicode="n" 
d="M256 224v299.003c-1.33301 20 -4.33301 36 -9 48s-11.667 20.667 -21 26l-3 7l153 -1c-23.333 -21.333 -34.333 -48 -33 -80h-2c1.33301 -6.66699 1.66602 -49 0.999023 -127s-1 -192.333 -1 -343c0 -16.667 12.667 -34.334 38 -53.001h-153c14 16 19.667 28.333 17 37
c-6.66699 26 -13.334 49.833 -20.001 71.5l-21 66.5l-64 201v-298c0.666992 -19.333 3.33398 -35 8.00098 -47s11.667 -20.333 21 -25l3 -7l-153 1c22.667 21.333 33.667 47.333 33 78h2c-1.33301 6.66699 -1.66602 49 -0.999023 127s1 192.333 1 343
c0 9.33301 -3.16699 18.166 -9.5 26.499s-15.833 17.166 -28.5 26.499h153c-13.333 -16 -19 -28.333 -17 -37l15 -54.5c4.66699 -17 9.5 -33.667 14.5 -50l15.5 -50.5c5.33301 -17.333 11.333 -35.333 18 -54z" />
    <glyph glyph-name="o" unicode="o" 
d="M283 473c-1.33301 17.333 -2.83301 31.332 -4.5 41.999s-3.16699 18.334 -4.5 23.001c-11.333 23.333 -30.333 35 -57 35c-12 0 -22.333 -2.83301 -31 -8.5s-15.834 -13.167 -21.501 -22.5s-10 -20 -13 -32s-4.5 -24.333 -4.5 -37c0 -30.667 -0.5 -65 -1.5 -103
s-1.5 -75.833 -1.5 -113.5s0.666992 -73.334 2 -107.001s5 -61.167 11 -82.5c2.66699 -12.667 9.83398 -21.834 21.501 -27.501s24.5 -8.5 38.5 -8.5c26.667 0 45.667 12 57 36c1.33301 4.66699 2.83301 12.334 4.5 23.001s3.16699 24.334 4.5 41.001v342zM421 301.999
c-34.667 -18.667 -52.002 -74.0029 -52.002 -166.003c0 -17.333 -3.66699 -34 -11 -50s-17.333 -31.333 -30 -46c-29.333 -31.333 -66.666 -47 -111.999 -47c-47.333 0 -84.333 15.667 -111 47c-23.333 29.333 -36 61.333 -38 96c-1.33301 19.333 -3.5 39 -6.5 59
s-6.5 39.667 -10.5 59c-2.66699 8.66699 -7.66699 16.334 -15 23.001s-14.666 13 -21.999 19c-0.666992 1.33301 -1.5 2.33301 -2.5 3s-2.16699 1.33398 -3.5 2.00098c22 12 34.333 28.333 37 49c3.33301 14 6.66602 30.833 9.99902 50.5s7.66602 43.5 12.999 71.5
c4.66699 34.667 18.334 65.667 41.001 93c27.333 32.667 64.333 49 111 49c44.667 0 81 -16.333 109 -49c27.333 -30 41 -61.333 41 -94c-1.33301 -39.333 5.33398 -81.666 20.001 -126.999c4 -15.333 15 -28.333 33 -39z" />
    <glyph glyph-name="p" unicode="p" horiz-adv-x="389" 
d="M271 486c0 50.667 -39.001 76 -117.001 76c-1.33301 0 -3 0.166992 -5 0.5s-5 0.5 -9 0.5c-2.66699 0 -4.66699 0.166992 -6 0.5s-4.66602 0.5 -9.99902 0.5v-257h69c52 1.33301 78 29 78 83v96zM363.999 404c2 -24 -12 -52 -42 -84c-32 -34 -67.333 -51.333 -106 -52
h-92v-184c0 -34 13.667 -62 41 -84h-167c26.667 20.667 40 47.667 40 81v447c0 11.333 -2.66699 23.5 -8 36.5s-13 26.5 -23 40.5l178 1c54.667 0 99.334 -16.333 134.001 -49c26.667 -26.667 42.334 -55.334 47.001 -86.001c4 -10.667 6.66699 -16.667 8 -18
c3.33301 -3.33301 5.66602 -5.83301 6.99902 -7.5s2.66602 -3.5 3.99902 -5.5c0.666992 -1.33301 -0.333008 -2.16602 -3 -2.49902s-3.66699 -0.833008 -3 -1.5l-6 -12.5c-4 -8.33301 -7 -16.5 -9 -24.5v5z" />
    <glyph glyph-name="q" unicode="q" horiz-adv-x="434" 
d="M281 472l-6.50391 38.5029c-1.66699 10.333 -3.16699 17.5 -4.5 21.5c-5.33301 12 -12.666 21.5 -21.999 28.5s-20.666 10.5 -33.999 10.5c-38 0 -60.333 -32.333 -67 -97c-1.33301 -11.333 -2.66602 -28.833 -3.99902 -52.5s-2.16602 -50.167 -2.49902 -79.5
s0 -60 1 -92s3 -62 6 -90s7 -52.333 12 -73s11.833 -34.334 20.5 -41.001v3c2 8.66699 3.5 17.5 4.5 26.5s3 17 6 24s7.83301 12.5 14.5 16.5s16 6 28 6c24 0 36 -8.33301 36 -25c0 -15.333 -12 -23 -36 -23c-4 0 -6 -8.33301 -6 -25c0 -8.66699 7.66699 -12.334 23 -11.001
c16 1.33301 27.333 33.666 34 96.999zM417.996 297.003c-4 -2 -8.00098 -5.83496 -12.001 -11.502s-8 -13.834 -12 -24.501c-4.66699 -14 -9.33398 -31.333 -14.001 -52s-9.66699 -45.334 -15 -74.001c-2.66699 -15.333 -7.33398 -30.5 -14.001 -45.5
s-15.667 -29.167 -27 -42.5c-23.333 -28.667 -50.666 -46 -81.999 -52c9.33301 -10.667 22.333 -20 39 -28s36.334 -14.333 59.001 -19l-12 -35c-74 14.667 -120 41.334 -138 80.001c-34.667 6.66699 -63.667 24.334 -87 53.001c-21.333 27.333 -34.666 57 -39.999 89
c-4.66699 26.667 -9.66699 51.167 -15 73.5s-10.333 39.833 -15 52.5c-2 8 -5 15 -9 21h1c-6.66699 8 -14 14.333 -22 19c6 3.33301 11.5 8.5 16.5 15.5s9.5 16.5 13.5 28.5c4.66699 12.667 9.66699 29.5 15 50.5s10.333 46.5 15 76.5c6 34 21.667 65.333 47 94
c27.333 32.667 62.333 49 105 49c40.667 0 75.334 -16.333 104.001 -49c25.333 -29.333 40.666 -60.666 45.999 -93.999c5.33301 -30 10.333 -55.5 15 -76.5s9.33398 -37.833 14.001 -50.5l5 -13c1.33301 -3.33301 2.66602 -6.33301 3.99902 -9l7.5 -11
c2.33301 -3.33301 4.83301 -5.66602 7.5 -6.99902v-8z" />
    <glyph glyph-name="r" unicode="r" horiz-adv-x="403" 
d="M283 489c-1.33301 21.333 -9.83203 38.168 -25.499 50.501s-37.834 20.166 -66.501 23.499h-53v-247h30c10.667 0 22 0.333008 34 1c53.333 1.33301 80 29.333 80 84v49c0.666992 8.66699 1 16.167 1 22.5v16.5zM354.001 -73.998
c-17.333 16 -34.666 37.8311 -51.999 65.498s-35.333 61.834 -54 102.501l-36.5 92l-36.5 91c-4.66699 0 -9.16699 -0.166992 -13.5 -0.5s-11.833 -0.166016 -22.5 0.500977c0 -32 -0.166992 -64 -0.5 -96s-0.5 -64 -0.5 -96c0 -38 13.667 -66.333 41 -85h-171
c27.333 16.667 41 43.667 41 81v444c0 36 -12.667 63 -38 81h196c84 -1.33301 139.667 -43.333 167 -126c4 -10.667 6.66699 -16.667 8 -18c3.33301 -3.33301 5.66602 -5.83301 6.99902 -7.5s2.66602 -3.5 3.99902 -5.5c0.666992 -1.33301 -0.333008 -2.16602 -3 -2.49902
s-3.66699 -0.833008 -3 -1.5l-6 -12.5c-4 -8.33301 -6.66699 -16.5 -8 -24.5c-5.33301 -24.667 -16.5 -47.334 -33.5 -68.001s-38.167 -37.667 -63.5 -51c0 -0.666992 0.166992 -1.5 0.5 -2.5s0.5 -2.16699 0.5 -3.5c0.666992 -1.33301 1.16699 -3.33301 1.5 -6
s0.833008 -5.66699 1.5 -9c12 -56.667 26.833 -111.5 44.5 -164.5s36.834 -100.167 57.501 -141.5l11.5 -20l12.5 -21l14 -26z" />
    <glyph glyph-name="s" unicode="s" horiz-adv-x="418" 
d="M409 157c-5.33301 -5.33301 -10.002 -11.1709 -14.002 -17.5039s-7 -12.5 -9 -18.5c-8.66699 -35.333 -28.5 -65.166 -59.5 -89.499s-70.167 -38.833 -117.5 -43.5c-12.667 -1.33301 -26 -0.333008 -40 3s-26.333 7.66602 -37 12.999c-24 12 -38.333 18.667 -43 20
c-8.66699 1.33301 -17 -2.33398 -25 -11.001c-10.667 -12 -19 -18 -25 -18c-4 0 -7.5 0.666992 -10.5 2s-6.16699 3.66602 -9.5 6.99902c42 62.667 63 111.334 63 146.001c0 36.667 -5.33301 55 -16 55c1.33301 -1.33301 1.66602 -4.33301 0.999023 -9
c-0.666992 -12 -9.33398 -18 -26.001 -18c-22 0 -33.333 7.33301 -34 22c-1.33301 24 18.334 36 59.001 36c18.667 0 34.834 -3.66699 48.501 -11s25.5 -17.666 35.5 -30.999c18.667 -25.333 28 -51.666 28 -78.999c0 -3.33301 -0.333008 -7.33301 -1 -12s-1 -9 -1 -13
c-24.667 2 -37 -3.66699 -37 -17c0 -10 6.33301 -19.5 19 -28.5s30.334 -13.5 53.001 -13.5c28 0 51.333 12.333 70 37c16 20.667 23 46.667 21 78c0 10 -8.66699 25.833 -26 47.5s-42.666 48.167 -75.999 79.5c-37.333 34 -67.833 63.833 -91.5 89.5
s-38.834 44.834 -45.501 57.501c-2 4.66699 -4.33301 9.83398 -7 15.501s-4.66699 10.5 -6 14.5c-4.66699 8.66699 -14.334 17 -29.001 25c13.333 9.33301 28 27.333 44 54c16 25.333 32 44.666 48 57.999c24 18.667 56.667 28 98 28c18.667 0 39 -5 61 -15
c22 -8.66699 36.333 -13 43 -13c10.667 0 24.334 6.66699 41.001 20l24 -17c-16 -10.667 -31.333 -29.667 -46 -57c-15.333 -28.667 -23 -53.334 -23 -74.001c0 -4.66699 0.666992 -9.16699 2 -13.5s2.66602 -7.83301 3.99902 -10.5c6 6 14.667 9 26 9
c20 0 31.333 -9 34 -27c0 -9.33301 -5.16699 -16.333 -15.5 -21s-22.166 -6.66699 -35.499 -6c-32 2.66699 -58.667 18.334 -80 47.001c-22 30.667 -30 60.667 -24 90c10 -6.66699 15.333 -10 16 -10c3.33301 0 7 2.33301 11 7s6 8.33398 6 11.001
c0 12 -5.83301 21.5 -17.5 28.5s-24.5 10.167 -38.5 9.5c-10 -0.666992 -18.667 -2.5 -26 -5.5s-14.333 -7.83301 -21 -14.5c-14.667 -13.333 -22 -32.666 -22 -57.999c1.33301 -26 16.333 -55 45 -87c8.66699 -10.667 20.667 -23.667 36 -39s34.333 -32.666 57 -51.999
c22 -18.667 40.167 -35 54.5 -49s24.833 -25.333 31.5 -34c4.66699 -4.66699 9.5 -10.5 14.5 -17.5s10.5 -15.167 16.5 -24.5c2.66699 -5.33301 5.83398 -10.333 9.50098 -15s8.5 -9.33398 14.5 -14.001v-6z" />
    <glyph glyph-name="t" unicode="t" horiz-adv-x="478" 
d="M68 355h-1h1v0zM470 337c-7.33301 -16 -24.0088 -24.3301 -50.0088 -24.9971c-13.333 -1.33301 -25.333 1.66699 -36 9c-0.666992 -2 -1.16699 -2.83301 -1.5 -2.5s-0.833008 1.83301 -1.5 4.5c-18.667 12.667 -33.667 33.334 -45 62.001
c-5.33301 14.667 -9.66602 31 -12.999 49s-5.66602 36.333 -6.99902 55c-1.33301 8 -2.16602 15.333 -2.49902 22s-0.5 11.667 -0.5 15l18.5 -7c3.66699 -1.33301 6.16699 -2 7.5 -2c12 0 16.333 9 13 27c-3.33301 12.667 -24.333 19 -63 19
c-1.33301 0 -2.16602 -0.166992 -2.49902 -0.5s-3.5 -0.166016 -9.5 0.500977v-470c-1.33301 -35.333 8.33398 -66.333 29.001 -93h-139c20.667 28 29.667 59 27 93l2 470h-23c-18 0 -31.167 -1 -39.5 -3s-14.166 -6.66699 -17.499 -14
c-1.33301 -6.66699 -0.5 -13.167 2.5 -19.5s8.16699 -9.5 15.5 -9.5c2.66699 0 6.83398 0.166992 12.501 0.5s9.83398 0.5 12.501 0.5c0 -1.33301 -0.166992 -4.83301 -0.5 -10.5s-0.833008 -11.5 -1.5 -17.5c-0.666992 -18.667 -3 -37 -7 -55s-8.33301 -34.667 -13 -50
c-10 -24.667 -22.167 -43.334 -36.5 -56.001s-30.833 -18.334 -49.5 -17.001c-3.33301 0.666992 -6.83301 1.16699 -10.5 1.5s-7.5 1.16602 -11.5 2.49902c-13.333 4 -22.666 11.667 -27.999 23c-2 22.667 8.33301 34 31 34c14 0 22.833 -1.5 26.5 -4.5
s6.83398 -7.16699 9.50098 -12.5v-1c2 18 2.83301 37.833 2.5 59.5s-2.33301 43.5 -6 65.5s-8.83398 43.833 -15.501 65.5s-15.667 41.5 -27 59.5h427c-10.667 -18.667 -19.5 -38.667 -26.5 -60s-12.333 -42.833 -16 -64.5s-5.66699 -43.334 -6 -65.001
s0.166992 -41.834 1.5 -60.501c1.33301 0.666992 2.5 2 3.5 4s2.16699 3.66699 3.5 5l-1 -1c3.33301 7.33301 12.666 11 27.999 11c24.667 0 36.334 -11.667 35.001 -35z" />
    <glyph glyph-name="u" unicode="u" horiz-adv-x="389" 
d="M382 114c-8 -4 -15.498 -9.83008 -22.498 -17.4971s-14.5 -17.834 -22.5 -30.501v0c-15.333 -26.667 -33.666 -45.667 -54.999 -57s-51 -17 -89 -17c-18 0 -34.167 1.33301 -48.5 4s-27 7 -38 13s-21 14.167 -30 24.5s-18.167 22.833 -27.5 37.5
c-12.667 22 -27.334 36.667 -44.001 44c24.667 12 37 36 37 72l-1 317c0 16.667 -2.5 33.5 -7.5 50.5s-13.167 33.833 -24.5 50.5h154c-22.667 -34.667 -34 -69 -34 -103c-0.666992 -2.66699 -1 -12.667 -1 -30v-72v-26v-44.5c0 -17 0.166992 -35.333 0.5 -55
s0.5 -38.834 0.5 -57.501v-51v-36c0 -62 26.667 -93 80 -93c24 0 43.833 6.83301 59.5 20.5s23.5 34.5 23.5 62.5l-2 394c0 39.333 -11.333 69.666 -34 90.999c5.33301 0 11.666 0.166992 18.999 0.5s15.666 0.5 24.999 0.5c8 0 16.833 -0.166992 26.5 -0.5
s19.167 -0.5 28.5 -0.5h30c-21.333 -20 -32 -50.333 -32 -91l-1 -312c0 -15.333 0.166992 -27.333 0.5 -36s0.5 -14.667 0.5 -18v1c2 -11.333 10.667 -21.333 26 -30z" />
    <glyph glyph-name="v" unicode="v" horiz-adv-x="409" 
d="M408 605c-9.33301 -10 -17.1689 -19.9961 -23.502 -29.9961s-11.5 -20.333 -15.5 -31l1 1c-0.666992 -1.33301 -1.5 -4.16602 -2.5 -8.49902s-2.16699 -10.166 -3.5 -17.499c-0.666992 -4.66699 -1.5 -9.33398 -2.5 -14.001l-3.5 -17
c-2.66699 -18 -11.167 -57.833 -25.5 -119.5l-58.5 -250.5c-6 -22 -9 -40.333 -9 -55c0 -24 7 -44.667 21 -62h-150c12.667 21.333 19 40.666 19 57.999c0 11.333 -3.66699 32 -11 62l-85 368c-0.666992 2.66699 -1.16699 5.16699 -1.5 7.5s-0.833008 5.16602 -1.5 8.49902
c-3.33301 12 -5.66602 21.833 -6.99902 29.5s-2.66602 12.5 -3.99902 14.5c-7.33301 22 -23.333 40.667 -48 56h162c-13.333 -18 -20 -37.333 -20 -58c0 -12.667 3.66699 -32.334 11 -59.001c8.66699 -34.667 18.667 -80 30 -136l40 -202l36 169.5l37 169.5
c5.33301 29.333 8 51.666 8 66.999c0 17.333 -3 33.666 -9 48.999h116z" />
    <glyph glyph-name="w" unicode="w" horiz-adv-x="628" 
d="M625 605c-18 -18.667 -30.6699 -39.333 -38.0029 -62c-2.66699 -5.33301 -8 -24.666 -16 -57.999c-6 -23.333 -11.333 -46.833 -16 -70.5l-14 -73.5c-4 -25.333 -10.333 -56.5 -19 -93.5l-31 -126.5c-6 -22 -9 -41 -9 -57c0 -24 7.33301 -45 22 -63h-146
c12 20 18 39 18 57c0 3.33301 -0.666992 10.333 -2 21s-3.66602 24.667 -6.99902 42l-13 69.5l-11.5 62.5l-11.5 63.5c-4 21.667 -8 45.5 -12 71.5l-23 -108.5l-35 -158.5c-6 -22 -9 -41 -9 -57c0 -24 7.33301 -45 22 -63h-138c12.667 21.333 19 40.666 19 57.999
c0 12 -3.33301 32.667 -10 62l-44 185.5l-43 184.5c-8 31.333 -12.667 50 -14 56l1 -1c-7.33301 20 -21.666 40 -42.999 60h156c-12 -21.333 -18 -43 -18 -65c0 -14 2.66699 -31.667 8 -53c2 -8.66699 4.33301 -19.834 7 -33.501s6.66699 -32 12 -55l19.5 -84l28.5 -120.5
l39 206.5l38 204.5l63 -1l12 -63c4.66699 -24 10.5 -52.5 17.5 -85.5l25 -115l33.5 -149.5l31 148l32 148c2.66699 16 4.83398 29.5 6.50098 40.5s2.5 19.167 2.5 24.5c0 18.667 -5.33301 36.334 -16 53.001z" />
    <glyph glyph-name="x" unicode="x" horiz-adv-x="391" 
d="M227 1c12 13.333 17.998 29.6719 17.998 49.0049c0 12 -1.16699 23.333 -3.5 34s-5.16602 21.667 -8.49902 33l-18 48.5c-6 16.333 -14 36.833 -24 61.5c-8 -18 -15.833 -36.833 -23.5 -56.5l-22.5 -56.5c-9.33301 -20.667 -14 -40.334 -14 -59.001
c0 -19.333 5.66699 -37.666 17 -54.999l-148 1c38.667 36 67 77.667 85 125l66 178c-4.66699 15.333 -12.334 38 -23.001 68l-41 114c-16 44.667 -42.667 85 -80 121h160c-4 -10 -7.16699 -19 -9.5 -27s-3.5 -16.333 -3.5 -25c0 -13.333 3.66699 -31 11 -53l31 -96l20 50
l20 52c3.33301 9.33301 6 17.666 8 24.999s3 14.666 3 21.999c0 10.667 -3 27.667 -9 51l136 1c-17.333 -16.667 -32.833 -35.334 -46.5 -56.001s-25.5 -42.667 -35.5 -66c-2 -6.66699 -4.66699 -14.334 -8 -23.001l-10 -26l-19 -48.5l-22 -55.5l39.5 -102l37.5 -102
c4.66699 -10.667 8.83398 -21.334 12.501 -32.001s7.83398 -21 12.501 -31c10.667 -24 29.667 -45.667 57 -65z" />
    <glyph glyph-name="y" unicode="y" horiz-adv-x="402" 
d="M403 606c-18.667 -17.333 -34.334 -35.5 -47.001 -54.5s-23 -39.5 -31 -61.5l-84 -215l1 2v-185c1.33301 -21.333 3 -36.333 5 -45v1c4 -11.333 15.333 -27 34 -47l-154 -2l19 31c4.66699 7.33301 8 13 10 17c2 7.33301 3.66699 21.333 5 42v189l1 -2l-83 226
c-9.33301 29.333 -35.666 64 -78.999 104h152c-6 -10.667 -9 -22.667 -9 -36c0 -10.667 1 -21 3 -31s5 -20.333 9 -31l12 -35.5l12 -36c4 -12.333 8.5 -25.333 13.5 -39l17.5 -46.5l22.5 64.5l28.5 78.5c8.66699 23.333 13 46 13 68c0 12 -3 26.667 -9 44h138z" />
    <glyph glyph-name="z" unicode="z" horiz-adv-x="434" 
d="M414 229c5.33301 -6 7.99609 -11.665 7.99609 -16.998c0 -8 -4.16699 -14.833 -12.5 -20.5s-17.166 -8.5 -26.499 -8.5c-17.333 0 -28.666 5.66699 -33.999 17c-6.66699 -10 -10 -25 -10 -45c0 -30 6 -60.667 18 -92c10.667 -26.667 24 -47.667 40 -63h-396
c27.333 16.667 49 42.667 65 78l32.5 75.5l32.5 75.5l29 71l41 100l70 162c-5.33301 0 -10.666 0.166992 -15.999 0.5s-10.333 0.5 -15 0.5c-66.667 0 -100 -8 -100 -24c0 -10.667 5.33301 -15.667 16 -15c0.666992 0 2.66699 0.666992 6 2
c2.66699 0 6.83398 0.5 12.501 1.5s11.167 1.5 16.5 1.5c-4.66699 -8 -8.16699 -15 -10.5 -21s-3.83301 -11.667 -4.5 -17c-1.33301 -28 -9.33301 -53 -24 -75h1c-18 -28.667 -44 -43 -78 -43c-18 0 -31.333 9 -40 27c0 16 11 24 33 24c8 0 16.333 -3.66699 25 -11
c2.66699 6 4 15.667 4 29c0 15.333 -7 41.333 -21 78c-6.66699 18 -13.5 34.167 -20.5 48.5s-14.833 26.833 -23.5 37.5h369c-13.333 -11.333 -24.5 -23.166 -33.5 -35.499s-16.833 -25.5 -23.5 -39.5c-4 -8.66699 -8.66699 -19.834 -14 -33.501l-20 -49.5l-170 -406h97
c34.667 -2.66699 52 5.66602 52 24.999c0 7.33301 -6.33301 11.666 -19 12.999c-3.33301 -1.33301 -7.33301 -2 -12 -2c0 0.666992 -2.66699 0.5 -8 -0.5s-10 -1.83301 -14 -2.5c0 42 17 84.333 51 127c23.333 28 51.333 42 84 42c15.333 0 29 -4.66699 41 -14z" />
    <glyph glyph-name="braceleft" unicode="{" horiz-adv-x="225" 
d="M196 -34c-102.667 8.66699 -154 52.668 -154 132.001c0 15.333 6.33301 40.666 19 75.999c6 16 10.333 30 13 42s4 22.333 4 31c0 31.333 -18.333 57 -55 77c35.333 19.333 53 44.666 53 75.999c0 17.333 -5.66699 41.666 -17 72.999c-5.33301 17.333 -9.5 32 -12.5 44
s-4.5 22.333 -4.5 31c0 73.333 51.333 117.333 154 132v-19c-52 -21.333 -78 -51 -78 -89c0 -9.33301 1.33301 -19 4 -29c0.666992 -2.66699 1.33398 -5.66699 2.00098 -9s1.66699 -7 3 -11l12 -48c2.66699 -13.333 4 -27.333 4 -42
c0 -23.333 -4.83301 -43.666 -14.5 -60.999s-25.167 -33.333 -46.5 -48c19.333 -13.333 34.333 -29.666 45 -48.999s16 -40.333 16 -63c0 -14 -1 -26.333 -3 -37c-2.66699 -7.33301 -5.83398 -17.333 -9.50098 -30l-12.5 -42l-3.5 -20c-1 -6 -1.5 -11.667 -1.5 -17
c0 -36.667 27 -63 81 -79z" />
    <glyph glyph-name="bar" unicode="|" horiz-adv-x="135" 
d="M97 -2h-59v672h59v-672z" />
    <glyph glyph-name="braceright" unicode="}" horiz-adv-x="225" 
d="M190 317l5.00195 1.00391c-30 -15.333 -45 -39 -45 -71c0 -8.66699 1.33301 -19 4 -31s7 -26 13 -42c7.33301 -18.667 12.5 -34.334 15.5 -47.001s4.5 -22.334 4.5 -29.001c0 -79.333 -52.667 -123.333 -158 -132l6 21c53.333 16 80 42.333 80 79
c0 9.33301 -1.66699 21.666 -5 36.999c-3.33301 6.66699 -6.5 15.5 -9.5 26.5l-11.5 41.5c-2 14 -3 27.667 -3 41c0 24 4.66699 45.167 14 63.5s24.666 34.5 45.999 48.5c-18.667 14 -33.5 30.167 -44.5 48.5s-16.5 38.5 -16.5 60.5c0 14.667 1 27.667 3 39l7.5 26l12.5 45
c1.33301 5.33301 2.16602 10.666 2.49902 15.999s0.5 9.66602 0.5 12.999c0 38 -26.667 67.667 -80 89v19c104 -15.333 156 -59.333 156 -132c0 -14.667 -6.33301 -39.667 -19 -75c-10.667 -30 -16 -54.333 -16 -73c0 -31.333 17.667 -56.666 53 -75.999z" />
    <glyph glyph-name="asciitilde" unicode="~" horiz-adv-x="480" 
d="M370 749c-20 -38 -54.3311 -55.667 -102.998 -53c-7.33301 0.666992 -15.333 2.5 -24 5.5s-17.667 7.16699 -27 12.5c-16.667 9.33301 -30 14 -40 14c-17.333 0 -32.333 -11.667 -45 -35c-10.667 5.33301 -23.334 9 -38.001 11c6.66699 11.333 12.834 20.5 18.501 27.5
s11.167 12.833 16.5 17.5c16 12.667 38.667 20 68 22c18 0.666992 38 -5.33301 60 -18c20 -10.667 34.333 -16 43 -16c16 0 32 11.333 48 34c8 -8.66699 12.333 -13 13 -13c1.33301 -0.666992 2.16602 -1.16699 2.49902 -1.5s1.16602 -0.833008 2.49902 -1.5z" />
    <glyph glyph-name="nonbreakingspace" unicode="&#xa0;" horiz-adv-x="261" 
 />
    <glyph glyph-name="copyright" unicode="&#xa9;" horiz-adv-x="955" 
d="M627 417c-19.333 51.333 -64.668 77 -136.001 77c-24.667 0 -48.167 -4.16699 -70.5 -12.5s-41.5 -19.166 -57.5 -32.499c-15.333 -14.667 -27.166 -30.667 -35.499 -48s-12.5 -36.333 -12.5 -57c0 -17.333 3.83301 -34.166 11.5 -50.499s17.5 -30.5 29.5 -42.5
c16.667 -14 36.167 -24.833 58.5 -32.5s47.166 -11.5 74.499 -11.5c74.667 0 120.667 24.667 138 74h76c-13.333 -40 -39.333 -72.333 -78 -97s-83.667 -37 -135 -37c-75.333 0 -136.333 19.333 -183 58c-21.333 19.333 -37.833 40.666 -49.5 63.999s-17.5 49 -17.5 77
c0 53.333 23 99.333 69 138c46.667 40 107.334 60 182.001 60c25.333 0 49.5 -2.83301 72.5 -8.5s44.167 -13.834 63.5 -24.501c19.333 -11.333 35.5 -25 48.5 -41s21.833 -33.667 26.5 -53h-75zM851.998 343c0 80 -36.666 147.664 -109.999 202.997
c-74.667 56.667 -162.667 85 -264 85c-50 0 -97.667 -7.66699 -143 -23s-86.333 -36 -123 -62c-34 -27.333 -60.667 -58.166 -80 -92.499s-29 -71.166 -29 -110.499c0 -80.667 33 -147 99 -199c70.667 -54.667 162.667 -84 276 -88c51.333 -2 98.666 3.83301 141.999 17.5
s84 34.834 122 63.501c73.333 56 110 124.667 110 206zM926.999 342.997c0 -92 -44.334 -171.333 -133.001 -238c-43.333 -32.667 -91.166 -57 -143.499 -73s-109.833 -24.667 -172.5 -26c-136.667 -2.66699 -245.667 28 -327 92c-78 62.667 -119 141 -123 235
c-1.33301 47.333 9 91.666 31 132.999s55 79 99 113c43.333 32.667 92 57.834 146 75.501s112 26.5 174 26.5c60.667 0 117.667 -8.33301 171 -25s101.333 -41 144 -73c44 -33.333 77.333 -70 100 -110s34 -83.333 34 -130z" />
    <glyph glyph-name="guillemotleft" unicode="&#xab;" horiz-adv-x="290" 
d="M262 139h-34l-105 105l106 112h33l-58 -110zM160 139h-35l-104 105l105 112h34l-58 -109z" />
    <glyph glyph-name="registered" unicode="&#xae;" horiz-adv-x="451" 
d="M268 584c0 7.33301 -11.333 11 -34 11h-42v-27h47c19.333 0 29 5.33301 29 16zM317 585c0 -28 -19.001 -44 -57.001 -48c9.33301 -10 19.333 -21.333 30 -34s20.667 -24 30 -34h-52l-60 67h-19v-67h-49v157h98v-7c2.66699 1.33301 6.83398 2.5 12.501 3.5
s12.167 1.5 19.5 1.5c31.333 -7.33301 47 -20.333 47 -39zM377.999 541c0 32.667 -14.665 59.665 -43.998 80.998c-29.333 22 -65 33.667 -107 35c-42.667 0.666992 -79 -10.666 -109 -33.999c-28 -21.333 -42 -48.666 -42 -81.999c0 -30.667 14.667 -57.667 44 -81
c15.333 -10 32.166 -18 50.499 -24s37.166 -9 56.499 -9c20 0 39 3 57 9s34.667 14 50 24c29.333 23.333 44 50.333 44 81zM426.001 540.998c0 -39.333 -19.666 -73.667 -58.999 -103c-36.667 -28.667 -83.334 -43 -140.001 -43c-56 0 -103.333 14.333 -142 43
c-40 30 -60 64.667 -60 104c0 40 20 74.667 60 104c38.667 28 86 42 142 42s102.667 -14 140 -42c39.333 -30 59 -65 59 -105z" />
    <glyph glyph-name="degree" unicode="&#xb0;" horiz-adv-x="347" 
d="M278 554c0 11.333 -2.83301 21.998 -8.5 31.998s-13.167 18.833 -22.5 26.5s-20.5 13.667 -33.5 18s-26.5 6.5 -40.5 6.5c-26.667 0 -51.334 -8.33301 -74.001 -25c-20 -15.333 -30 -34.666 -30 -57.999s10 -42.333 30 -57c22.667 -16.667 47.334 -25 74.001 -25
c14 0 27.5 2.16699 40.5 6.5s24.167 10.333 33.5 18s16.833 16.334 22.5 26.001s8.5 20.167 8.5 31.5zM329 553.998c0 -31.333 -15.999 -59.002 -47.999 -83.002c-29.333 -22 -65.333 -33 -108 -33c-43.333 0 -79.333 11 -108 33c-31.333 23.333 -47 51 -47 83
c0 31.333 15.667 59 47 83c28.667 22.667 64.667 34 108 34s79.333 -11.333 108 -34c15.333 -11.333 27.166 -24.166 35.499 -38.499s12.5 -29.166 12.5 -44.499z" />
    <glyph glyph-name="periodcentered" unicode="&#xb7;" horiz-adv-x="227" 
d="M191 324c0 -16.667 -7.5 -30.667 -22.5 -42s-33.5 -17 -55.5 -17s-40.5 5.66699 -55.5 17s-22.5 25.333 -22.5 42c0 16 7.5 29.833 22.5 41.5s33.5 17.5 55.5 17.5s40.5 -5.83301 55.5 -17.5s22.5 -25.5 22.5 -41.5z" />
    <glyph glyph-name="guillemotright" unicode="&#xbb;" horiz-adv-x="290" 
d="M259 251l-106 -112h-33l57 109l-28 54l-29 54h34zM157 251l-107 -112h-32l57 109l-29 54l-28 54h33z" />
    <glyph glyph-name="afii10023" unicode="&#x401;" horiz-adv-x="480" 
d="M463 235c0 -18 -12.666 -27.001 -37.999 -27.001c-22.667 0 -34 7.33301 -34 22c0 2.66699 1 4.33398 3 5.00098c-8.66699 -2 -13 -12.333 -13 -31c0 -73.333 23.667 -141.333 71 -204h-443l8.5 13.5l8.5 13.5c2 3.33301 3.83301 6.16602 5.5 8.49902
s3.5 5.16602 5.5 8.49902c8.66699 18.667 13 41.667 13 69v455c0 38 -13.667 72.667 -41 104h421c-20.667 -15.333 -36.667 -40.333 -48 -75c-9.33301 -29.333 -14 -54.666 -14 -75.999c0 -9.33301 1.66699 -21.333 5 -36c1.33301 -7.33301 3.33301 -13.333 6 -18
c6.66699 14 19.667 21 39 21c26.667 0 40 -8.66699 40 -26c0 -24 -21.333 -36 -64 -36c-42 0 -76.333 18.333 -103 55c-20.667 32.667 -31.334 67.334 -32.001 104.001c5.33301 -1.33301 10.166 -2.33301 14.499 -3s7.83301 -1 10.5 -1c12 0 18 6 18 18
c0 17.333 -21.667 26 -65 26h-93v-256h60v108h47c-1.33301 -5.33301 -2 -9.33301 -2 -12v-9c0 -10 1.83301 -20.333 5.5 -31s8.83398 -20.834 15.501 -30.501s14.5 -18.5 23.5 -26.5s19.167 -14 30.5 -18v-10c-30.667 -5.33301 -51.334 -22.333 -62.001 -51
c-10 -21.333 -14.333 -47 -13 -77l-46 1v56c0 13.333 -0.166992 24 -0.5 32s-0.166016 15.333 0.500977 22h-54l-1 -276h95c52.667 0 79 10 79 30c0 12 -5.33301 18 -16 18c-0.666992 0 -3 -0.5 -7 -1.5s-10.667 -3.16699 -20 -6.5c0 46.667 8.66699 85.334 26 116.001
c11.333 20.667 25.833 36.667 43.5 48s38.167 17 61.5 17c35.333 0 53 -11 53 -33zM187.001 751.999c0 -30 -18.333 -45 -55 -45c-38.667 0 -58 15 -58 45c0 29.333 19.333 44 58 44c36.667 0 55 -14.667 55 -44zM359.001 751.999c0 -30 -19 -45 -57 -45
c-38.667 0 -58 15 -58 45c0 29.333 19.333 44 58 44c38 0 57 -14.667 57 -44z" />
    <glyph glyph-name="afii10053" unicode="&#x404;" horiz-adv-x="450" 
d="M194 365l-0.000976562 103h48c-1.33301 -5.33301 -2 -9.33301 -2 -12v-9c0 -10 1.83301 -20 5.5 -30s8.83398 -19.667 15.501 -29s14.667 -17.666 24 -24.999s19.333 -13 30 -17v-10c-30.667 -5.33301 -51.334 -22.333 -62.001 -51c-5.33301 -11.333 -9 -22.333 -11 -33
s-2.66699 -23.667 -2 -39l-46 1v49.5v29c0 7 0.166992 12.333 0.5 16s0.5 7.16699 0.5 10.5h-57h-1c0.666992 -40 1.83398 -75 3.50098 -105s4.16699 -54.667 7.5 -74c7.33301 -32 18.5 -57.333 33.5 -76s34.167 -27.334 57.5 -26.001c55.333 2.66699 83 15 83 37
c0 15.333 -9.66699 23 -29 23c-3.33301 0 -10.666 -1.66699 -21.999 -5c-2.66699 7.33301 -4.33398 14.333 -5.00098 21s-1 13.667 -1 21c0 30.667 8 58.667 24 84c18.667 26.667 45.667 39.667 81 39c34.667 -0.666992 52 -10.334 52 -29.001c0 -17.333 -12 -26 -36 -26
c-12.667 0 -23.334 4.33301 -32.001 13c-1.33301 -3.33301 -2 -10.666 -2 -21.999c0 -15.333 2.33301 -32.333 7 -51s11 -37.667 19 -57c17.333 -41.333 36.333 -66.666 57 -75.999l-34 -17c-12.667 8 -23.667 13.667 -33 17s-17.333 5 -24 5c-2 0 -6.66699 -1 -14 -3
s-14.666 -4.33301 -21.999 -7c-20 -7.33301 -42 -11 -66 -11c-74.667 0 -128 30 -160 90v-1c-19.333 32 -34 85.667 -44 161c0 1.33301 -0.166992 2.16602 -0.5 2.49902s-0.5 1.16602 -0.5 2.49902l-5 31c-2 12 -3.33301 19.667 -4 23c-5.33301 9.33301 -10 16.833 -14 22.5
s-8.66699 11.167 -14 16.5c17.333 7.33301 27.666 17.666 30.999 30.999c2.66699 17.333 4.83398 32.166 6.50098 44.499s3.16699 22.5 4.5 30.5c0.666992 0.666992 1 1.33398 1 2.00098v1c28.667 154.667 97.667 232 207 232c24 0 46 -3.66699 66 -11
c7.33301 -2.66699 14.666 -5 21.999 -7s12 -3 14 -3c6.66699 0 14.667 1.66699 24 5s20.333 9 33 17l34 -17c-20.667 -9.33301 -39.667 -34.666 -57 -75.999c-8 -19.333 -14.333 -38.333 -19 -57s-7 -35.667 -7 -51c0 -11.333 0.666992 -18.666 2 -21.999
c8.66699 8.66699 19.334 13 32.001 13c24 0 36 -8.66699 36 -26c0 -18.667 -17.333 -28.334 -52 -29.001c-35.333 -0.666992 -62.333 12.333 -81 39c-16 25.333 -24 53.333 -24 84c0 7.33301 0.333008 14.333 1 21s2.33398 13.667 5.00098 21
c11.333 -3.33301 18.666 -5 21.999 -5c19.333 0 29 7.66699 29 23c0 22 -27.667 34.333 -83 37l3 -2c-28.667 -1.33301 -50.667 -11 -66 -29s-26.5 -40.5 -33.5 -67.5s-11 -56.167 -12 -87.5s-1.5 -60.666 -1.5 -87.999h57z" />
    <glyph glyph-name="uni0406" unicode="&#x406;" horiz-adv-x="194" 
d="M11 0c3.33301 5.33301 7.16699 11.8369 11.5 19.5039s7.83301 13.167 10.5 16.5h-1c3.33301 4.66699 6 8.16699 8 10.5s3.33301 4.16602 4 5.49902l-1 -1c1.33301 5.33301 2.66602 12.666 3.99902 21.999s2.33301 20.333 3 33v454c0 44.667 -13.333 82 -40 112h170
c-9.33301 -14 -16.833 -25.833 -22.5 -35.5s-9.16699 -16.5 -10.5 -20.5c-1.33301 -4.66699 -2.5 -11.5 -3.5 -20.5s-1.16699 -20.833 -0.5 -35.5c0 -25.333 0.166992 -53.333 0.5 -84s0.5 -65 0.5 -103s-0.166992 -78.833 -0.5 -122.5s-0.5 -90.834 -0.5 -141.501
c-0.666992 -14 -0.5 -25.5 0.5 -34.5s2.16699 -15.833 3.5 -20.5c0.666992 -2.66699 5.33398 -10.334 14.001 -23.001l8.5 -14.5c3.66699 -6.33301 7.16699 -11.833 10.5 -16.5h-169z" />
    <glyph glyph-name="afii10056" unicode="&#x407;" horiz-adv-x="194" 
d="M11 0c3.33301 5.33301 7.16699 11.8369 11.5 19.5039s7.83301 13.167 10.5 16.5h-1c3.33301 4.66699 6 8.16699 8 10.5s3.33301 4.16602 4 5.49902l-1 -1c1.33301 5.33301 2.66602 12.666 3.99902 21.999s2.33301 20.333 3 33v454c0 44.667 -13.333 82 -40 112h170
c-9.33301 -14 -16.833 -25.833 -22.5 -35.5s-9.16699 -16.5 -10.5 -20.5c-1.33301 -4.66699 -2.5 -11.5 -3.5 -20.5s-1.16699 -20.833 -0.5 -35.5c0 -25.333 0.166992 -53.333 0.5 -84s0.5 -65 0.5 -103s-0.166992 -78.833 -0.5 -122.5s-0.5 -90.834 -0.5 -141.501
c-0.666992 -14 -0.5 -25.5 0.5 -34.5s2.16699 -15.833 3.5 -20.5c0.666992 -2.66699 5.33398 -10.334 14.001 -23.001l8.5 -14.5c3.66699 -6.33301 7.16699 -11.833 10.5 -16.5h-169zM66.001 752.004c0 -30 -18.333 -45 -55 -45c-38.667 0 -58 15 -58 45
c0 29.333 19.333 44 58 44c36.667 0 55 -14.667 55 -44zM238.001 752.004c0 -30 -19 -45 -57 -45c-38.667 0 -58 15 -58 45c0 29.333 19.333 44 58 44c38 0 57 -14.667 57 -44z" />
    <glyph glyph-name="afii10057" unicode="&#x408;" horiz-adv-x="444" 
d="M67 225l2 -2c0 1.33301 -0.666992 2 -2 2zM69 223c1.33301 -1.33301 1.33301 -0.666992 0 2v-2zM432 121.999c-5.33301 -2.66699 -11.499 -7.6709 -18.499 -15.0039s-14.5 -17.666 -22.5 -30.999c-8.66699 -13.333 -17.667 -25.333 -27 -36s-18 -19 -26 -25
c-27.333 -19.333 -66.666 -28 -117.999 -26c-28.667 0 -55.334 6.66699 -80.001 20c-23.333 12 -38.666 18 -45.999 18c1.33301 -1.33301 -6.33398 -5.33301 -23.001 -12c-0.666992 -1.33301 -1.66699 -2.66602 -3 -3.99902s-2.66602 -3 -3.99902 -5
c-3.33301 -4 -7.33301 -7.83301 -12 -11.5s-8.66699 -5.5 -12 -5.5c-8.66699 0 -16.334 4.33301 -23.001 13c46 68.667 69 122.667 69 162c0 8.66699 -2.33301 20 -7 34c-1.33301 4 -2.5 7.66699 -3.5 11s-1.83301 6 -2.5 8c0 -14.667 -10.667 -22 -32 -22
c-24 0 -36 8.33301 -36 25c0 12 6.66699 21.5 20 28.5s28 10.5 44 10.5c42 0 75 -20.333 99 -61c19.333 -34.667 28 -69 26 -103c-10 -0.666992 -18.167 -1.5 -24.5 -2.5s-11.166 -2.16699 -14.499 -3.5c-4.66699 -2 -6.66699 -8.33301 -6 -19
c2 -13.333 10.667 -22.666 26 -27.999c7.33301 -3.33301 15.166 -5.5 23.499 -6.5s17.166 -1.5 26.499 -1.5c33.333 0 56 11.333 68 34c7.33301 14.667 11 40.334 11 77.001v413c0 38 -13.667 76 -41 114h176c-25.333 -39.333 -38 -76 -38 -110l-1 -356
c0 -12.667 2.66699 -26 8 -40c8.66699 -19.333 17 -31 25 -35z" />
    <glyph glyph-name="afii10062" unicode="&#x40e;" horiz-adv-x="458" 
d="M71 28c0 -0.666992 -3.50391 -1.66016 -10.5039 -2.99316l-20.5 -4c-1.33301 -1.33301 -2.83301 -2.5 -4.5 -3.5s-3.5 -2.16699 -5.5 -3.5c-3.33301 -3.33301 -7.16602 -6.5 -11.499 -9.5s-8.16602 -4.16699 -11.499 -3.5c-3.33301 1.33301 -6.16602 3.5 -8.49902 6.5
l-7.5 9.5c52 60 82.667 108.667 92 146c0.666992 4 1.16699 9 1.5 15s-0.166992 12.667 -1.5 20c0 5.33301 -0.666992 11.333 -2 18c-2 -13.333 -12.333 -18 -31 -14c-10 2 -17.5 5.66699 -22.5 11s-5.83301 11.666 -2.5 18.999c6 15.333 15 25.166 27 29.499
s25 4.66602 39 0.999023s27.667 -10.834 41 -21.501s24.166 -23.334 32.499 -38.001s13 -31 14 -49s-3.83301 -36 -14.5 -54c-20.667 3.33301 -32 3.66602 -34 0.999023c-10 -10.667 -12 -19.167 -6 -25.5s15.333 -8.16602 28 -5.49902s26.667 11 42 25s27.333 36 36 66
l-181 454c-4 12.667 -10.333 23.667 -19 33s-19 18 -31 26h165c-12.667 -18.667 -19 -40 -19 -64l128 -319l37 126.5c13.333 43.667 25 86.5 35 128.5c4 16.667 6.33301 31.167 7 43.5s1.66699 22.5 3 30.5c1.33301 10 1.33301 19.833 0 29.5s-3.33301 18.167 -6 25.5h128
c-9.33301 -10 -17.833 -21.5 -25.5 -34.5s-14.167 -25.167 -19.5 -36.5l2 1c-1.33301 -2 -2.5 -5.33301 -3.5 -10s-2.5 -11 -4.5 -19c-1.33301 -5.33301 -2.83301 -10.5 -4.5 -15.5s-3.5 -11.167 -5.5 -18.5l-23.5 -87l-32 -116.5c-11.667 -41 -23.834 -81.5 -36.501 -121.5
s-25 -73.667 -37 -101c-11.333 -26.667 -24.666 -49.334 -39.999 -68.001s-32.166 -32.334 -50.499 -41.001s-38.166 -11.5 -59.499 -8.5s-43.333 12.833 -66 29.5zM208.996 771.007c0 -9.33301 4.83203 -16.501 14.499 -21.501s20.667 -7.33301 33 -7
s23.833 3.33301 34.5 9s16.334 13.834 17.001 24.501c2.66699 13.333 7.5 23.833 14.5 31.5s14.833 12.5 23.5 14.5s17.167 0.833008 25.5 -3.5s14.833 -11.5 19.5 -21.5c0.666992 -20.667 -5.33301 -37.667 -18 -51s-29 -23.5 -49 -30.5s-41.333 -10.667 -64 -11
s-44 2.5 -64 8.5s-36.667 15.333 -50 28s-20 28.334 -20 47.001c2 13.333 7.5 23.166 16.5 29.499s18.5 8.5 28.5 6.5s18.833 -7.33301 26.5 -16s11.5 -21 11.5 -37z" />
    <glyph glyph-name="afii10017" unicode="&#x410;" horiz-adv-x="443" 
d="M270 260c-7.33301 62 -13.9971 123.167 -19.9971 183.5s-12.667 121.166 -20 182.499h-41c-6.66699 -62.667 -13.5 -123.667 -20.5 -183l-21.5 -183c3.33301 0 5.66602 0.166992 6.99902 0.5s3.66602 0.5 6.99902 0.5s7 2.16699 11 6.5s7.66699 9.16602 11 14.499
c-1.33301 -1.33301 -1.83301 -1.16602 -1.5 0.500977s1.16602 4.16699 2.49902 7.5l4.5 11.5c1.66699 4.33301 3.5 8.83301 5.5 13.5c0.666992 0.666992 1.5 3.16699 2.5 7.5s2.16699 8.83301 3.5 13.5s2.5 9 3.5 13s1.5 6.66699 1.5 8l14 -41
c2 -5.33301 4 -11.166 6 -17.499s4.33301 -12.5 7 -18.5c6.66699 -13.333 14.667 -20 24 -20h14zM320.003 672l21.9951 0.00195312c-9.33301 -16 -14.666 -32.667 -15.999 -50c1.33301 -12 2.66602 -24.833 3.99902 -38.5s2.66602 -28.834 3.99902 -45.501v1l21.5 -199.5
l21.5 -199.5c3.33301 -25.333 10 -50 20 -74s24.667 -46 44 -66h-184c20 22 29 66 27 132c0 1.33301 -0.666992 9.66602 -2 24.999s-3.66602 38 -6.99902 68h-19c-6 0 -12.333 -2 -19 -6s-11.667 -10.333 -15 -19l1 1c-0.666992 -2 -2.16699 -5.66699 -4.5 -11
s-6.16602 -14.666 -11.499 -27.999l-2 1c-2.66699 20.667 -8.16699 36.167 -16.5 46.5s-17.5 15.5 -27.5 15.5h-19c-1.33301 -15.333 -3 -31.166 -5 -47.499s-3.66699 -32.166 -5 -47.499c-1.33301 -13.333 -2.66602 -25 -3.99902 -35s-2.66602 -19 -3.99902 -27
c0 -24 9.66699 -46.667 29 -68h-152c16.667 17.333 29.834 38.166 39.501 62.499s16.5 48.5 20.5 72.5l22.5 195c7.66699 69.333 16.167 140.666 25.5 213.999c3.33301 15.333 5.5 28.166 6.5 38.499s1.5 18.833 1.5 25.5c0 12 -1.66699 23.333 -5 34
s-8.66602 20.667 -15.999 30h224z" />
    <glyph glyph-name="afii10018" unicode="&#x411;" horiz-adv-x="458" 
d="M311 239c0 60 -29 90.667 -87 92h-76v-286c20 0 40.167 0.833008 60.5 2.5s38.5 5 54.5 10s28.5 12.5 37.5 22.5s12.5 23.667 10.5 41v118zM146 625c0 -17.333 0.168945 -36.8379 0.501953 -58.5049s0.5 -44 0.5 -67s0.166992 -45.333 0.5 -67s0.5 -41.167 0.5 -58.5h102
c42.667 -0.666992 82 -20 118 -58c33.333 -35.333 49 -66.333 47 -93v6c2 -9.33301 5.16699 -18.666 9.5 -27.999s6.5 -13.666 6.5 -12.999c-0.666992 -1.33301 0.5 -2.16602 3.5 -2.49902s4.16699 -1.16602 3.5 -2.49902c-1.33301 -2 -2.83301 -4 -4.5 -6
s-4.16699 -4.66699 -7.5 -8c-2 -2 -5 -8.66699 -9 -20c-5.33301 -34.667 -23 -66.667 -53 -96c-38 -36 -87.333 -54 -148 -54l-198 1c11.333 15.333 19.833 30.166 25.5 44.499s8.5 27.833 8.5 40.5v483c0 38 -13.667 72.667 -41 104h421
c-20.667 -15.333 -36.667 -40.333 -48 -75c-9.33301 -29.333 -14 -54.666 -14 -75.999c0 -9.33301 1.66699 -21.333 5 -36c1.33301 -7.33301 3.33301 -13.333 6 -18c6.66699 14 19.667 21 39 21c26.667 0 40 -8.66699 40 -26c0 -24 -21.333 -36 -64 -36
c-42 0 -76.333 18.333 -103 55c-20.667 32.667 -31.334 67.334 -32.001 104.001c5.33301 -1.33301 10.166 -2.33301 14.499 -3s7.83301 -1 10.5 -1c12 0 18 6 18 18c0 17.333 -21.667 26 -65 26h-93z" />
    <glyph glyph-name="afii10019" unicode="&#x412;" horiz-adv-x="472" 
d="M334 189v13.9971c0 36.667 -7.16699 66.167 -21.5 88.5s-32.5 33.5 -54.5 33.5c-12.667 0 -22.834 -2.66699 -30.501 -8s-11.5 -11.333 -11.5 -18c0 -0.666992 0.333008 -1 1 -1c0.666992 -0.666992 1.33398 -1 2.00098 -1h9c24 0 36 -9.33301 36 -28
c0 -17.333 -13.333 -26 -40 -26c-41.333 0 -62 16.667 -62 50c0 13.333 4.33301 25.333 13 36s24 20.334 46 29.001c38.667 15.333 63 27 73 35v-1c21.333 22.667 32 63.334 32 122.001c0 24.667 -3.16699 44.334 -9.5 59.001s-16.333 25.834 -30 33.501s-31 12.667 -52 15
s-45.833 3.5 -74.5 3.5c0 -98 -0.166992 -194.333 -0.5 -289s-0.5 -191.334 -0.5 -290.001c30 0 55.667 1.5 77 4.5s38.833 9.5 52.5 19.5s24.167 24.5 31.5 43.5s12 44.167 14 75.5zM458 181.997c-7.33301 -2 -13.3311 -7.33203 -17.998 -15.999s-7.66699 -16.667 -9 -24
c-5.33301 -42 -25.5 -76.167 -60.5 -102.5s-83.833 -39.5 -146.5 -39.5h-204c30 24 45 57 45 99v476c0 36.667 -16.333 69 -49 97h194c124.667 0 193 -45 205 -135c2 -8.66699 6.16699 -15.5 12.5 -20.5s13.166 -11.167 20.499 -18.5
c-15.333 -11.333 -24.833 -19.333 -28.5 -24s-5.5 -11.334 -5.5 -20.001c-4.66699 -48.667 -34.334 -82.667 -89.001 -102c31.333 -8 55.333 -21.5 72 -40.5s27.667 -44.167 33 -75.5c0 -20 9.66699 -34.667 29 -44z" />
    <glyph glyph-name="afii10020" unicode="&#x413;" horiz-adv-x="456" 
d="M139 112l2.99512 -41.501c0.666992 -9 2.16699 -16.333 4.5 -22s6.33301 -11.667 12 -18s14.167 -16.5 25.5 -30.5c-1.33301 0 -7.66602 0.166992 -18.999 0.5s-23.666 0.5 -36.999 0.5c-12.667 0 -29.167 -0.166992 -49.5 -0.5s-42.833 -0.5 -67.5 -0.5l-3 9
c2 1.33301 4.5 3.5 7.5 6.5s6.16699 7.5 9.5 13.5c12.667 21.333 19 49.333 19 84v455c0 38 -13.667 72.667 -41 104h287h135c-11.333 -7.33301 -21.166 -17.5 -29.499 -30.5s-15.166 -27.833 -20.499 -44.5c-9.33301 -29.333 -14 -54.666 -14 -75.999
c0 -9.33301 1.66699 -21.333 5 -36v1c1.33301 -5.33301 2.5 -9.16602 3.5 -11.499s2.16699 -4.5 3.5 -6.5c3.33301 8 8 13.333 14 16s14 4 24 4c27.333 0 41 -8.66699 41 -26c0 -26.667 -22.333 -40 -67 -40c-21.333 0 -40.666 5.16699 -57.999 15.5s-32 24.5 -44 42.5
c-9.33301 15.333 -16.5 32.166 -21.5 50.499s-7.83301 37.833 -8.5 58.5l35 -9c13.333 0 20 6.33301 20 19c0 18 -25 27 -75 27h-95z" />
    <glyph glyph-name="afii10021" unicode="&#x414;" horiz-adv-x="472" 
d="M128 0c-29.333 2 -43.9951 -4.33203 -43.9951 -18.999c0 -2.66699 1.16699 -5.5 3.5 -8.5s6.16602 -4.83301 11.499 -5.5c4.66699 1.33301 9.5 2.16602 14.5 2.49902s10.833 1.16602 17.5 2.49902c0 -35.333 -15.333 -69.333 -46 -102c-23.333 -22 -49 -33 -77 -33
c-8 0 -14.833 0.833008 -20.5 2.5s-10.834 4.16699 -15.501 7.5l-2 1c-5.33301 6.66699 -8 11.667 -8 15c0 16 11.667 24 35 24c16 0 26.667 -4 32 -12c8 21.333 11 40.833 9 58.5s-6.33301 33.834 -13 48.501s-14.834 27.834 -24.501 39.501l-25.5 30.5h77
c8.66699 22.667 17.167 50.167 25.5 82.5s15.5 67.333 21.5 105s10.333 76.667 13 117s2.83398 79.833 0.500977 118.5s-7.83301 75 -16.5 109s-21.334 63.667 -38.001 89h355c-20.667 -20.667 -33 -55.334 -37 -104.001v-123.5c0 -44.333 -0.166992 -89.333 -0.5 -135
s-0.5 -90.667 -0.5 -135v-123.5h89l-25.5 -30.5c-9.66699 -11.667 -17.834 -24.834 -24.501 -39.501s-11 -30.834 -13 -48.501s1 -37.167 9 -58.5c4.66699 8 15.334 12 32.001 12c23.333 0 35 -8 35 -24c0 -3.33301 -2.66699 -8.33301 -8 -15l-2 -1
c-4.66699 -3.33301 -9.83398 -5.83301 -15.501 -7.5s-12.5 -2.5 -20.5 -2.5c-28 0 -53.667 11 -77 33c-30.667 32.667 -46 66.667 -46 102c6.66699 -1.33301 12.5 -2.16602 17.5 -2.49902s9.83301 -1.16602 14.5 -2.49902c5.33301 0.666992 9.16602 2.5 11.499 5.5
s3.5 5.83301 3.5 8.5c0 14.667 -14.667 21 -44 19h-183zM281.005 625.001h-61.998c-30 0 -50.833 -1 -62.5 -3s-17.5 -9 -17.5 -21c0 -4.66699 2 -9 6 -13s8 -6 12 -6h44c4.66699 -22.667 6.66699 -49.167 6 -79.5s-3.16699 -62.5 -7.5 -96.5s-9.83301 -68.667 -16.5 -104
s-13.834 -69 -21.501 -101s-15.334 -61 -23.001 -87s-14.5 -46.667 -20.5 -62h164z" />
    <glyph glyph-name="afii10022" unicode="&#x415;" horiz-adv-x="480" 
d="M463 235c0 -18 -12.666 -27.001 -37.999 -27.001c-22.667 0 -34 7.33301 -34 22c0 2.66699 1 4.33398 3 5.00098c-8.66699 -2 -13 -12.333 -13 -31c0 -73.333 23.667 -141.333 71 -204h-443l8.5 13.5l8.5 13.5c2 3.33301 3.83301 6.16602 5.5 8.49902
s3.5 5.16602 5.5 8.49902c8.66699 18.667 13 41.667 13 69v455c0 38 -13.667 72.667 -41 104h421c-20.667 -15.333 -36.667 -40.333 -48 -75c-9.33301 -29.333 -14 -54.666 -14 -75.999c0 -9.33301 1.66699 -21.333 5 -36c1.33301 -7.33301 3.33301 -13.333 6 -18
c6.66699 14 19.667 21 39 21c26.667 0 40 -8.66699 40 -26c0 -24 -21.333 -36 -64 -36c-42 0 -76.333 18.333 -103 55c-20.667 32.667 -31.334 67.334 -32.001 104.001c5.33301 -1.33301 10.166 -2.33301 14.499 -3s7.83301 -1 10.5 -1c12 0 18 6 18 18
c0 17.333 -21.667 26 -65 26h-93v-256h60v108h47c-1.33301 -5.33301 -2 -9.33301 -2 -12v-9c0 -10 1.83301 -20.333 5.5 -31s8.83398 -20.834 15.501 -30.501s14.5 -18.5 23.5 -26.5s19.167 -14 30.5 -18v-10c-30.667 -5.33301 -51.334 -22.333 -62.001 -51
c-10 -21.333 -14.333 -47 -13 -77l-46 1v56c0 13.333 -0.166992 24 -0.5 32s-0.166016 15.333 0.500977 22h-54l-1 -276h95c52.667 0 79 10 79 30c0 12 -5.33301 18 -16 18c-0.666992 0 -3 -0.5 -7 -1.5s-10.667 -3.16699 -20 -6.5c0 46.667 8.66699 85.334 26 116.001
c11.333 20.667 25.833 36.667 43.5 48s38.167 17 61.5 17c35.333 0 53 -11 53 -33z" />
    <glyph glyph-name="afii10024" unicode="&#x416;" horiz-adv-x="660" 
d="M251 1c20.667 37.333 31.0059 71 31.0059 101v125c-2 -3.33301 -5 -5.33301 -9 -6c-10 -8.66699 -20.667 -13 -32 -13c-24.667 0 -37 10.667 -37 32c0 8 5 16 15 24c-0.666992 0.666992 -1 2 -1 4c0.666992 0.666992 1.5 1.66699 2.5 3s1.83301 2.33301 2.5 3
c1.33301 1.33301 2.33301 2.5 3 3.5s1 3.16699 1 6.5s-1 7 -3 11h1l-9 14c-2.66699 4 -5.33398 7.33301 -8.00098 10c-6.66699 -67.333 -42.334 -161 -107.001 -281c-68 -122 -121.333 -192.667 -160 -212c-8.66699 -3.33301 -15.667 -1 -21 7l1 6
c25.333 38 49 79.333 71 124s43 92.667 63 144c19.333 52.667 35 103.834 47 153.501s20 95.5 24 137.5c0 1.33301 -2.66699 7.33301 -8 18c-1.33301 1.33301 -2.16602 3 -2.49902 5s-0.833008 3.66699 -1.5 5l-5 10c-12.667 16 -23.334 40 -32.001 72
c-0.666992 2 -1 3.83301 -1 5.5s-0.333008 3.16699 -1 4.5c-6.66699 22 -11.834 39.667 -15.501 53s-6.83398 22.666 -9.50098 27.999c-14.667 38.667 -28 61 -40 67l4 8h151l3 -8c-6 -2.66699 -11.5 -10.667 -16.5 -24s-7.16699 -26.666 -6.5 -39.999v1
c4.66699 -44.667 14.334 -88.667 29.001 -132c21.333 -59.333 48.333 -103 81 -131c12 -10 21 -20 27 -30v261c0 30.667 -10.667 64.667 -32 102l157 -1c-21.333 -37.333 -32 -71.333 -32 -102v-261c6 10 15 20 27 30c32.667 28 59.667 71.667 81 131
c14.667 43.333 24.334 87.333 29.001 132v-1c0.666992 13.333 -1.5 26.666 -6.5 39.999s-10.5 21.333 -16.5 24l3 8h151l4 -8c-12 -6 -25.333 -28.333 -40 -67c-2.66699 -5.33301 -5.83398 -14.666 -9.50098 -27.999s-8.83398 -31 -15.501 -53
c-0.666992 -1.33301 -1 -2.83301 -1 -4.5s-0.333008 -3.5 -1 -5.5c-8.66699 -32 -19.334 -56 -32.001 -72l-5 -10c-0.666992 -1.33301 -1.16699 -3 -1.5 -5s-1.16602 -3.66699 -2.49902 -5c-5.33301 -10.667 -8 -16.667 -8 -18c4 -42 12 -87.833 24 -137.5
s27.667 -100.834 47 -153.501c20 -51.333 41 -99.333 63 -144s45.667 -86 71 -124l1 -6c-5.33301 -8 -12.333 -10.333 -21 -7c-38.667 19.333 -92 90 -160 212c-64.667 120 -100.334 213.667 -107.001 281c-2.66699 -2.66699 -5.33398 -6 -8.00098 -10l-9 -14h1
c-2 -4 -3 -7.66699 -3 -11s0.333008 -5.5 1 -6.5s1.66699 -2.16699 3 -3.5c0.666992 -0.666992 1.5 -1.66699 2.5 -3s1.83301 -2.33301 2.5 -3c0 -2 -0.333008 -3.33301 -1 -4c10 -8 15 -16 15 -24c0 -21.333 -12.333 -32 -37 -32c-11.333 0 -22 4.33301 -32 13
c-4 0.666992 -7 2.66699 -9 6v-125c0 -30 10.333 -63.667 31 -101h-156z" />
    <glyph glyph-name="afii10025" unicode="&#x417;" horiz-adv-x="466" 
d="M234 -5c-14 -1.33301 -28.667 -0.168945 -44 3.49805s-29 8.16699 -41 13.5c-26.667 14 -42.667 21.667 -48 23c-10 1.33301 -19.333 -3 -28 -13c-12 -13.333 -21.333 -20 -28 -20c-4 0 -7.66699 0.833008 -11 2.5s-7 4.16699 -11 7.5c46.667 70 70 124.333 70 163
c0 40.667 -6 61 -18 61c2 -1.33301 2.66699 -4.66602 2 -9.99902c-1.33301 -13.333 -11 -20 -29 -20c-24.667 0 -37.334 8 -38.001 24c-1.33301 26.667 20.334 40 65.001 40c20.667 0 38.667 -4 54 -12s28.666 -19.333 39.999 -34c20.667 -28.667 31 -58 31 -88
c0 -4 -0.333008 -8.5 -1 -13.5s-1 -9.83301 -1 -14.5c-27.333 2 -41 -4.33301 -41 -19c0 -11.333 7 -21.833 21 -31.5s33.333 -14.5 58 -14.5c36 0 55 20.333 57 61c1.33301 22 2.33301 43 3 63s1 37.667 1 53c0 22.667 -0.666992 40 -2 52s-3 22 -5 30
c-4.66699 7.33301 -12.667 13.833 -24 19.5s-22.666 8.5 -33.999 8.5c-5.33301 0 -13.166 -3.16699 -23.499 -9.5s-19.5 -16.166 -27.5 -29.499c-1.33301 16 -2.33301 34.667 -3 56s-0.666992 38.333 0 51l13 -6.5c6 -3 12 -6.16699 18 -9.5l16.5 -9
c5 -2.66699 8.5 -4 10.5 -4c39.333 0 59 47.333 59 142c0 22 -1 44 -3 66s-6.33301 37.333 -13 46c-6 8 -15.167 12.833 -27.5 14.5s-24.5 0.833984 -36.5 -2.49902s-22.5 -8.5 -31.5 -15.5s-13.5 -15.5 -13.5 -25.5c0 -3.33301 2.16699 -7.5 6.5 -12.5s8.5 -7.5 12.5 -7.5
l17 11c6.66699 -32.667 -2 -66 -26 -100c-24 -32 -53.667 -49.667 -89 -53c-15.333 -0.666992 -28.666 1.66602 -39.999 6.99902s-17 13 -17 23c2.66699 20 15.334 30 38.001 30c12.667 0 22.334 -3.33301 29.001 -10c1.33301 3.33301 2.66602 7.33301 3.99902 12
s2 9.66699 2 15c0 22.667 -8.33301 50 -25 82c-16.667 30.667 -33.667 52 -51 64l26 19c18.667 -15.333 34 -23 46 -23c6.66699 0 22.667 5 48 15c12.667 5.33301 26.5 9.5 41.5 12.5s27.167 4.5 36.5 4.5c34.667 2.66699 67.667 -4.83301 99 -22.5
s54.666 -44.5 69.999 -80.5c1.33301 -4.66699 3.33301 -10.334 6 -17.001l10 -24c3.33301 -4 7.5 -9.33301 12.5 -16l15.5 -21c-14.667 -8 -25.667 -21.667 -33 -41l-11.5 -28.5c-3 -7.66699 -5.83301 -13.167 -8.5 -16.5c-5.33301 -7.33301 -15 -16.5 -29 -27.5
s-30.667 -23.167 -50 -36.5l3 -3c9.33301 -6 19 -12.833 29 -20.5s19.667 -16.167 29 -25.5c5.33301 -11.333 12.5 -22.833 21.5 -34.5s19.833 -27.834 32.5 -48.501c0.666992 -3.33301 2.33398 -5.83301 5.00098 -7.5s5 -3.5 7 -5.5c11.333 -8 17 -14 17 -18
c0 -1.33301 -6 -7.33301 -18 -18c-8.66699 -8.66699 -13.334 -14 -14.001 -16l-21.5 -45.5c-5.66699 -12.333 -10.167 -21.166 -13.5 -26.499c-6.66699 -10.667 -15.334 -21.167 -26.001 -31.5s-22.5 -19.666 -35.5 -27.999s-26.833 -15 -41.5 -20
s-29.334 -7.5 -44.001 -7.5z" />
    <glyph glyph-name="afii10026" unicode="&#x418;" horiz-adv-x="428" 
d="M229 273l-19.999 -59.999l-17.5 -55.5c-5.66699 -18.333 -11 -37 -16 -56l-16.5 -60.5c-2.66699 -9.33301 3.66602 -23 18.999 -41h-169c28 20.667 42 40.334 42 59.001v217v155c0 42 0.166992 75.167 0.5 99.5s0.5 41.166 0.5 50.499
c0.666992 17.333 -2.5 33.5 -9.5 48.5s-17.167 28.5 -30.5 40.5l169 1l-3 -8c-10.667 -5.33301 -18.5 -14.833 -23.5 -28.5s-8.16699 -31.5 -9.5 -53.5v-323l72 215l23 74.5c7.33301 24.333 14.666 50.833 21.999 79.5c2.66699 9.33301 -3.66602 23 -18.999 41h166
c-14 -10.667 -24.5 -20.667 -31.5 -30s-10.5 -19 -10.5 -29c0 -167.333 0.333008 -294.333 1 -381s0.333984 -133.667 -0.999023 -141h2c-0.666992 -34 11.666 -63 36.999 -87h-166l3 8c19.333 9.33301 30.333 35.666 33 78.999v332z" />
    <glyph glyph-name="afii10027" unicode="&#x419;" horiz-adv-x="428" 
d="M229 273l-20.001 -59.9971l-17.5 -55.5c-5.66699 -18.333 -11 -37 -16 -56l-16.5 -60.5c-0.666992 -1.33301 -1 -3 -1 -5c0 -7.33301 6.66699 -19.333 20 -36h-169c28 20.667 42 40.334 42 59.001v522c0 35.333 -13 65 -39 89l169 1l-3 -8
c-10.667 -5.33301 -18.5 -14.833 -23.5 -28.5s-8.16699 -31.5 -9.5 -53.5v-323l72 215c8.66699 25.333 16.334 50.166 23.001 74.499l22 79.5c0 1.33301 0.166992 2.16602 0.5 2.49902s0.5 1.16602 0.5 2.49902c0 7.33301 -6.66699 19.333 -20 36h166
c-14 -10.667 -24.5 -20.667 -31.5 -30s-10.5 -19 -10.5 -29c0 -112 0.166992 -205.5 0.5 -280.5s0.5 -132.833 0.5 -173.5v-47c0 -11.333 -0.333008 -18.333 -1 -21h2c0 -18 2.83301 -34 8.5 -48s15.167 -27 28.5 -39h-166l3 8c19.333 9.33301 30.333 35.666 33 78.999v332z
M161.999 779.003c0 -9.33301 4.83203 -16.501 14.499 -21.501s20.667 -7.33301 33 -7s23.833 3.33301 34.5 9s16.334 13.834 17.001 24.501c2.66699 13.333 7.5 23.833 14.5 31.5s14.833 12.5 23.5 14.5s17.167 0.833008 25.5 -3.5s14.833 -11.5 19.5 -21.5
c0.666992 -20.667 -5.33301 -37.667 -18 -51s-29 -23.5 -49 -30.5s-41.333 -10.667 -64 -11s-44 2.5 -64 8.5s-36.667 15.333 -50 28s-20 28.334 -20 47.001c2 13.333 7.5 23.166 16.5 29.499s18.5 8.5 28.5 6.5s18.833 -7.33301 26.5 -16s11.5 -21 11.5 -37z" />
    <glyph glyph-name="afii10028" unicode="&#x41a;" horiz-adv-x="416" 
d="M493 -168c-5.33301 -8 -12.3291 -10.3311 -20.9961 -6.99805c-38.667 19.333 -92 90 -160 212c-64.667 120 -100.334 213.667 -107.001 281c-2.66699 -2.66699 -5.33398 -6 -8.00098 -10l-9 -14h1c-2 -4 -3 -7.66699 -3 -11s0.333008 -5.5 1 -6.5
s1.66699 -2.16699 3 -3.5c0.666992 -0.666992 1.5 -1.66699 2.5 -3s1.83301 -2.33301 2.5 -3c0 -2 -0.333008 -3.33301 -1 -4c10 -8 15 -16 15 -24c0 -21.333 -12.333 -32 -37 -32c-11.333 0 -22 4.33301 -32 13c-4 0.666992 -7 2.66699 -9 6v-125
c0 -30 10.333 -63.667 31 -101h-156c8 16 14.833 31 20.5 45s9.16699 28 10.5 42c-0.666992 14.667 -0.833984 32.167 -0.500977 52.5s0.5 43.166 0.5 68.499v149.5c0 59.667 0.333008 130.5 1 212.5c-0.666992 13.333 -3.66699 29 -9 47s-13 36.667 -23 56l157 -1
c-21.333 -37.333 -32 -71.333 -32 -102v-261c6 10 15 20 27 30c32.667 28 59.667 71.667 81 131c14.667 43.333 24.334 87.333 29.001 132v-1c0.666992 13.333 -1.5 26.666 -6.5 39.999s-10.5 21.333 -16.5 24l3 8h151l4 -8c-12 -6 -25.333 -28.333 -40 -67
c-2.66699 -5.33301 -5.83398 -14.666 -9.50098 -27.999s-8.83398 -31 -15.501 -53c-0.666992 -1.33301 -1 -2.83301 -1 -4.5s-0.333008 -3.5 -1 -5.5c-8.66699 -32 -19.334 -56 -32.001 -72l-5 -10c-0.666992 -1.33301 -1.16699 -3 -1.5 -5s-1.16602 -3.66699 -2.49902 -5
c-5.33301 -10.667 -8 -16.667 -8 -18c4 -42 12 -87.833 24 -137.5s27.667 -100.834 47 -153.501c20 -51.333 41 -99.333 63 -144s45.667 -86 71 -124z" />
    <glyph glyph-name="afii10029" unicode="&#x41b;" horiz-adv-x="383" 
d="M232 298l-0.000976562 326.004h-35c-30 0 -50.833 -1 -62.5 -3s-17.5 -9 -17.5 -21c0 -4.66699 2 -9 6 -13s8 -6 12 -6h33c-1.33301 -21.333 -3.33301 -51 -6 -89s-7 -79.833 -13 -125.5s-13.667 -92.5 -23 -140.5s-21.166 -92.5 -35.499 -133.5s-31 -75.833 -50 -104.5
s-41.167 -46.334 -66.5 -53.001c12 29.333 23.167 63.666 33.5 102.999s19.333 81 27 125s13.834 89.5 18.501 136.5s7.33398 93 8.00098 138s-1 87.5 -5 127.5s-10.667 75.667 -20 107h328c-20.667 -20.667 -33 -55.334 -37 -104.001
c0 -78.667 -0.166992 -156.834 -0.5 -234.501s-0.5 -155.167 -0.5 -232.5c3.33301 -21.333 7.16602 -40.5 11.499 -57.5s14.166 -31.5 29.499 -43.5h-175c28 28 42 61.667 42 101z" />
    <glyph glyph-name="afii10030" unicode="&#x41c;" horiz-adv-x="537" 
d="M522 1c-25.333 -0.666992 -47.168 -1.00293 -65.501 -1.00293h-45.5c-19.333 0 -32.833 0.333008 -40.5 1s-6.5 3.66699 3.5 9l-4 -1c20.667 27.333 31 58.666 31 93.999l-1 474c-15.333 -96 -30 -192.333 -44 -289s-28.667 -192.667 -44 -288h-106l-94 549
c-1.33301 -31.333 -2 -84.666 -2 -159.999s-0.333008 -174 -1 -296c0 -15.333 1.33301 -30.833 4 -46.5s9.66699 -31.167 21 -46.5h-121c22 34.667 33 65.667 33 93v496c0 38 -11.667 65.667 -35 83h208c-7.33301 -5.33301 -14.166 -11.333 -20.499 -18
s-8.83301 -14.667 -7.5 -24c2 -13.333 5 -29.666 9 -48.999s9 -45 15 -77l22.5 -121l32.5 -181l18 109.5l17.5 104l17.5 104.5l18 110c2.66699 9.33301 -6.33301 23.333 -27 42h216c-23.333 -25.333 -35 -52.666 -35 -81.999v-489c0 -49.333 10.667 -79.666 32 -90.999z" />
    <glyph glyph-name="afii10031" unicode="&#x41d;" horiz-adv-x="442" 
d="M258 0c27.333 41.333 40.998 83.3369 40.998 126.004v209c-6 0.666992 -11.833 1.16699 -17.5 1.5s-11.167 0.5 -16.5 0.5c-3.33301 0.666992 -6.66602 -1 -9.99902 -5s-6.66602 -9.33301 -9.99902 -16c1.33301 1.33301 1.83301 1.16602 1.5 -0.500977
s-1.16602 -4 -2.49902 -7l-5 -11l-6 -13.5c-0.666992 -1.33301 -1.5 -4 -2.5 -8s-2.16699 -8.33301 -3.5 -13l-3.5 -12.5c-1 -3.66699 -1.5 -5.83398 -1.5 -6.50098c-9.33301 25.333 -16.833 44.666 -22.5 57.999s-9.5 21.666 -11.5 24.999
c-2 5.33301 -8.66699 8.33301 -20 9c-4.66699 0 -8 0.166992 -10 0.5s-5.33301 0.5 -10 0.5v-209c0 -45.333 12.333 -88 37 -128h-172c12.667 18.667 21.834 38.334 27.501 59.001s8.5 43 8.5 67v424c0 45.333 -12.667 86 -38 122h174
c-24.667 -36.667 -37 -77.334 -37 -122.001v-175h24c12 0 28 30 48 90c1.33301 -3.33301 3.16602 -8.33301 5.49902 -15l7 -20.5c2.33301 -7 4.83301 -13.833 7.5 -20.5s4.66699 -12 6 -16c5.33301 -12.667 13 -19 23 -19l29 1c0 30 0.166992 59.167 0.5 87.5
s0.5 57.5 0.5 87.5c0 44 -12.667 84.667 -38 122h168c-12.667 -18.667 -21.834 -38 -27.501 -58s-8.5 -41.333 -8.5 -64l2 -422c0 -47.333 11.667 -90 35 -128h-172z" />
    <glyph glyph-name="afii10032" unicode="&#x41e;" horiz-adv-x="480" 
d="M314 526c-1.33301 18.667 -2.83398 33.998 -4.50098 45.998s-3.5 20.667 -5.5 26c-12 26 -33 39 -63 39c-13.333 0 -24.833 -3.16699 -34.5 -9.5s-17.667 -14.666 -24 -24.999s-11.166 -22.166 -14.499 -35.499s-5 -27 -5 -41c0 -34 -0.5 -72.167 -1.5 -114.5
s-1.5 -84.5 -1.5 -126.5s0.833008 -81.667 2.5 -119s5.5 -68 11.5 -92c3.33301 -14 11.5 -24 24.5 -30s27.167 -9 42.5 -9c30 0 51 13 63 39c2 5.33301 3.83301 14 5.5 26s3.16699 27.333 4.5 46v380zM467.999 335.998c-38.667 -20.667 -58 -82.332 -58 -184.999
c0 -19.333 -4 -37.833 -12 -55.5s-19.333 -34.5 -34 -50.5c-32 -35.333 -73.333 -53 -124 -53c-52.667 0 -93.667 17.667 -123 53c-26 32 -40.333 67.333 -43 106c-1.33301 21.333 -3.66602 43.166 -6.99902 65.499s-7 44.166 -11 65.499c-3.33301 10 -9 18.667 -17 26
l-24 21c-1.33301 1.33301 -2.5 2.33301 -3.5 3s-2.16699 1.66699 -3.5 3c24 13.333 37.667 31.333 41 54c3.33301 15.333 7 34 11 56l14 79c5.33301 38.667 20.666 73.334 45.999 104.001c30.667 36 71.667 54 123 54c50 0 90.667 -18 122 -54
c30 -33.333 45 -68.333 45 -105c-1.33301 -43.333 6 -90.333 22 -141c4.66699 -16.667 17 -31 37 -43z" />
    <glyph glyph-name="afii10033" unicode="&#x41f;" horiz-adv-x="446" 
d="M431 672c-10 -10 -18.168 -25.0029 -24.501 -45.0029s-10.5 -42.333 -12.5 -67l2 -432c0 -47.333 11.667 -90 35 -128h-172c27.333 41.333 41 83.333 41 126v209v60.5c0 25.667 -0.166992 52.334 -0.5 80.001s-0.5 54.334 -0.5 80.001v60.5h-151l1 -279v-209
c0 -45.333 12.333 -88 37 -128h-172c12.667 18.667 21.834 38.334 27.501 59.001s8.5 43 8.5 67v434c-2 24.667 -6.16699 47 -12.5 67s-14.5 35 -24.5 45h418z" />
    <glyph glyph-name="afii10034" unicode="&#x420;" 
d="M301 540c0 56.667 -43.335 85 -130.002 85c-1.33301 0 -3.16602 0.166992 -5.49902 0.5s-5.5 0.5 -9.5 0.5c-3.33301 0 -5.66602 0.166992 -6.99902 0.5s-5 0.5 -11 0.5v-286h76c58 1.33301 87 32 87 92v107zM404.998 449c2 -26.667 -13.667 -57.6699 -47 -93.0029
c-36 -38 -75.333 -57.333 -118 -58h-102v-205c0 -37.333 15 -68.333 45 -93h-185c29.333 22.667 44 52.667 44 90v497c0 12.667 -2.83301 26.167 -8.5 40.5s-14.167 29.166 -25.5 44.499l198 1c60.667 0 110 -18 148 -54c30 -29.333 47.667 -61.333 53 -96
c4 -11.333 7 -18 9 -20c3.33301 -3.33301 5.83301 -6 7.5 -8s3.16699 -4 4.5 -6c0.666992 -1.33301 -0.5 -2.16602 -3.5 -2.49902s-4.16699 -1.16602 -3.5 -2.49902c0 0.666992 -2.16699 -3.66602 -6.5 -12.999s-7.5 -18.666 -9.5 -27.999v6z" />
    <glyph glyph-name="afii10035" unicode="&#x421;" horiz-adv-x="446" 
d="M441 666c-20.667 -9.33301 -39.6709 -34.667 -57.0039 -76c-8 -19.333 -14.333 -38.333 -19 -57s-7 -35.667 -7 -51c0 -11.333 0.666992 -18.666 2 -21.999c8.66699 8.66699 19.334 13 32.001 13c24 0 36 -8.66699 36 -26c0 -18.667 -17.333 -28.334 -52 -29.001
c-35.333 -0.666992 -62.333 12.333 -81 39c-16 25.333 -24 53.333 -24 84c0 7.33301 0.333008 14.333 1 21s2.33398 13.667 5.00098 21c11.333 -3.33301 18.666 -5 21.999 -5c19.333 0 29 7.66699 29 23c0 22 -27.667 34.333 -83 37
c-23.333 1.33301 -42.5 -7.33398 -57.5 -26.001s-26.167 -44 -33.5 -76c-3.33301 -21.333 -6 -48.666 -8 -81.999s-3 -72 -3 -116c0 -33.333 1 -63.666 3 -90.999s4.66699 -51.666 8 -72.999c0 -90 34 -135 102 -135c34.667 0 61.334 14.333 80.001 43h-1
c14.667 24 22 53 22 87c0 12 -1 24 -3 36c-5.33301 -3.33301 -10.833 -5.5 -16.5 -6.5s-11.167 -1.5 -16.5 -1.5c-15.333 0 -27.666 4.83301 -36.999 14.5s-14 20.834 -14 33.501c0 32 20.667 48 62 48c16.667 0 30.667 -3.33301 42 -10h-1
c32.667 -20.667 49 -55.667 49 -105c0 -23.333 -3.66699 -45.166 -11 -65.499s-17.666 -39.833 -30.999 -58.5c-31.333 -40.667 -72.666 -61 -123.999 -61c-109.333 0 -178.333 77.333 -207 232c-0.666992 0 -1 0.333008 -1 1v2c-1.33301 8 -2.83301 18.167 -4.5 30.5
s-3.83398 27.166 -6.50098 44.499c-3.33301 13.333 -13.666 23.666 -30.999 30.999c5.33301 5.33301 10 10.833 14 16.5s8.66699 13.167 14 22.5c0.666992 3.33301 2 11 4 23l5 31c0 1.33301 0.166992 2.16602 0.5 2.49902s0.5 1.16602 0.5 2.49902
c10 75.333 24.667 129 44 161v-1c32 60 85.333 90 160 90c24 0 46 -3.66699 66 -11c7.33301 -2.66699 14.666 -5 21.999 -7s12 -3 14 -3c6.66699 0 14.667 1.66699 24 5s20.333 9 33 17z" />
    <glyph glyph-name="afii10036" unicode="&#x422;" horiz-adv-x="531" 
d="M76 395h-1l1 -1v1zM522 375c-8 -18 -26.335 -27.3301 -55.002 -27.9971c-15.333 -1.33301 -28.666 2 -39.999 10c-0.666992 -2.66699 -1.33398 -3.83398 -2.00098 -3.50098s-1.33398 2.16602 -2.00098 5.49902c-20.667 14 -37.334 37 -50.001 69
c-5.33301 16 -10 34 -14 54s-6.66699 40.333 -8 61c-1.33301 9.33301 -2.16602 17.666 -2.49902 24.999s-0.5 12.666 -0.5 15.999c9.33301 -3.33301 16.166 -5.66602 20.499 -6.99902s7.16602 -2 8.49902 -2c13.333 0 18 9.66699 14 29
c-3.33301 14.667 -26.666 22 -69.999 22c-1.33301 0 -2.16602 -0.166992 -2.49902 -0.5s-3.83301 -0.166016 -10.5 0.500977v-523c-1.33301 -39.333 9.33398 -73.666 32.001 -102.999h-154c22.667 31.333 32.667 65.666 30 102.999l2 523h-26
c-20 0 -34.667 -1.16699 -44 -3.5s-15.666 -7.5 -18.999 -15.5c-1.33301 -7.33301 -0.333008 -14.5 3 -21.5s9 -10.5 17 -10.5c2.66699 0 7.16699 0.166992 13.5 0.5s11.166 0.5 14.499 0.5c0 -2 -0.166992 -6 -0.5 -12s-0.833008 -12.667 -1.5 -20
c-1.33301 -20.667 -4.16602 -41 -8.49902 -61s-9.16602 -38.333 -14.499 -55c-10.667 -27.333 -24 -48 -40 -62s-34.333 -20.333 -55 -19c-4 0.666992 -8 1.16699 -12 1.5s-8.33301 1.16602 -13 2.49902c-14.667 4.66699 -25 13.334 -31 26.001c-2 24.667 9.66699 37 35 37
c15.333 0 25 -1.5 29 -4.5s7.66699 -7.5 11 -13.5v-1c2 20 2.83301 42 2.5 66s-2.5 48.167 -6.5 72.5s-9.83301 48.5 -17.5 72.5s-17.5 46 -29.5 66h474c-12 -20.667 -21.833 -42.834 -29.5 -66.501s-13.5 -47.5 -17.5 -71.5s-6.33301 -48 -7 -72s0 -46.667 2 -68
c1.33301 1.33301 2.5 3 3.5 5s2.16699 3.66699 3.5 5l-1 -1c4 8.66699 14.333 13 31 13c28 0 41 -13 39 -39z" />
    <glyph glyph-name="afii10037" unicode="&#x423;" horiz-adv-x="458" 
d="M71 28c0 -0.666992 -3.50684 -1.66211 -10.5068 -2.99512l-20.5 -4c-1.33301 -1.33301 -2.83301 -2.5 -4.5 -3.5s-3.5 -2.16699 -5.5 -3.5c-3.33301 -3.33301 -7.16602 -6.5 -11.499 -9.5s-8.16602 -4.16699 -11.499 -3.5c-3.33301 1.33301 -6.16602 3.5 -8.49902 6.5
l-7.5 9.5c52.667 60.667 83.334 109.334 92.001 146.001c0.666992 4 1.16699 9 1.5 15s-0.166992 12.667 -1.5 20c0 6.66699 -0.666992 12.667 -2 18c-2 -13.333 -12.333 -18 -31 -14c-10 2 -17.5 5.66699 -22.5 11s-5.83301 11.666 -2.5 18.999
c6 15.333 15.167 25.166 27.5 29.499s25.5 4.66602 39.5 0.999023s27.667 -10.834 41 -21.501s24 -23.5 32 -38.5s12.5 -31.333 13.5 -49s-3.83301 -35.5 -14.5 -53.5c-9.33301 1.33301 -17 2.33301 -23 3s-9.66699 0 -11 -2c-10 -10.667 -12 -19.167 -6 -25.5
s15.5 -8.16602 28.5 -5.49902s27 11 42 25s26.833 36 35.5 66l-181 454c-4 12.667 -10.333 23.667 -19 33s-19 18 -31 26h165c-12.667 -18.667 -19 -40 -19 -64l128 -319l37 126.5c13.333 43.667 25 86.5 35 128.5c4 16.667 6.33301 31.167 7 43.5s1.66699 22.5 3 30.5
c1.33301 10 1.33301 19.833 0 29.5s-3.33301 18.167 -6 25.5h128c-9.33301 -10 -17.833 -21.5 -25.5 -34.5s-14.167 -25.167 -19.5 -36.5l2 1c-1.33301 -2 -2.5 -5.33301 -3.5 -10s-2.5 -11 -4.5 -19c-1.33301 -5.33301 -2.83301 -10.5 -4.5 -15.5s-3.5 -11.167 -5.5 -18.5
l-15 -53l-19 -70.5c-6.66699 -25.667 -14 -52.334 -22 -80.001l-24 -82c-8 -27 -16.167 -52.667 -24.5 -77s-16.5 -45.5 -24.5 -63.5c-11.333 -26.667 -24.666 -49.334 -39.999 -68.001s-32.166 -32.334 -50.499 -41.001s-38.166 -11.5 -59.499 -8.5
s-43.333 12.833 -66 29.5z" />
    <glyph glyph-name="afii10038" unicode="&#x424;" horiz-adv-x="730" 
d="M267 0c15.333 12.667 26.8262 26.5 34.4932 41.5s10.834 36.833 9.50098 65.5c-41.333 -3.33301 -76.666 -2.5 -105.999 2.5s-54.833 15 -76.5 30s-40.334 35.833 -56.001 62.5s-30.167 60.334 -43.5 101.001c-4.66699 18 -12.667 29.667 -24 35
c12.667 5.33301 20.334 14.166 23.001 26.499s5 25.5 7 39.5c4.66699 33.333 16.334 62.166 35.001 86.499s41 44 67 59s54.333 25 85 30s60.334 4.83301 89.001 -0.5c0 12.667 -2.83301 27.5 -8.5 44.5s-14.167 33.167 -25.5 48.5h165
c-11.333 -15.333 -19.833 -31.5 -25.5 -48.5s-8.5 -31.833 -8.5 -44.5c28.667 5.33301 58.334 5.5 89.001 0.5s59 -15 85 -30s48.333 -34.667 67 -59s30.334 -53.166 35.001 -86.499c1.33301 -14 3.5 -27.167 6.5 -39.5s10.833 -21.166 23.5 -26.499
c-11.333 -5.33301 -19.333 -17 -24 -35c-13.333 -40.667 -27.833 -74.334 -43.5 -101.001s-34.334 -47.5 -56.001 -62.5s-47.167 -25 -76.5 -30s-64.666 -5.83301 -105.999 -2.5c-1.33301 -28.667 1.83398 -50.5 9.50098 -65.5s19.167 -28.833 34.5 -41.5h-185zM148.993 270
c0 -18 1.99902 -35.1709 5.99902 -51.5039s11.833 -30.166 23.5 -41.499s28.167 -19.166 49.5 -23.499s49 -3.16602 83 3.50098v374c-44 10.667 -80.667 6.83398 -110 -11.499s-46.666 -49.5 -51.999 -93.5v-156zM571.992 425.996c-5.33301 44 -23 75.1709 -53 93.5039
s-67 22.166 -111 11.499v-374c34 -6.66699 61.667 -7.83398 83 -3.50098s38 12.166 50 23.499s20.167 25.166 24.5 41.499s6.5 33.5 6.5 51.5v156z" />
    <glyph glyph-name="afii10039" unicode="&#x425;" horiz-adv-x="434" 
d="M252 1c13.333 14.667 20 32.9971 20 54.9971c0 13.333 -1.16699 25.833 -3.5 37.5s-5.5 23.834 -9.5 36.501l-20 54c-6.66699 18 -15.667 40.667 -27 68l-26 -62.5l-25 -62.5c-10 -23.333 -15 -45.333 -15 -66c0 -21.333 6.33301 -41.666 19 -60.999h-165
c22 20.667 40.833 42.834 56.5 66.501s28.167 48.167 37.5 73.5l74 198c-5.33301 16.667 -13.833 41.667 -25.5 75l-45.5 127c-18 50 -47.667 94.667 -89 134h178c-4.66699 -10.667 -8.33398 -20.5 -11.001 -29.5s-4 -18.167 -4 -27.5c0 -15.333 4 -35 12 -59l35 -107l22 56
l22 57c4 10.667 7.16699 20.167 9.5 28.5s3.5 16.5 3.5 24.5c0 11.333 -3.33301 30 -10 56l151 1c-19.333 -18 -36.666 -38.5 -51.999 -61.5s-28.333 -47.5 -39 -73.5l-9.5 -25.5l-11.5 -29.5l-21 -53.5l-24 -61.5l43.5 -113.5l42.5 -113.5l13.5 -35.5
c4.33301 -11.667 8.83301 -23.167 13.5 -34.5c12 -26.667 33.333 -50.667 64 -72z" />
    <glyph glyph-name="afii10040" unicode="&#x426;" horiz-adv-x="496" 
d="M397 55l89.0029 -0.00488281l-25.5 -31c-9.66699 -12 -17.834 -25.5 -24.501 -40.5s-11 -31.5 -13 -49.5s1 -37.667 9 -59c4.66699 8 15.334 12 32.001 12c23.333 0 35 -8 35 -24c0 -3.33301 -2.66699 -8.33301 -8 -15l-2 -1
c-4.66699 -3.33301 -9.83398 -5.83301 -15.501 -7.5s-12.5 -2.5 -20.5 -2.5c-28 0 -53.667 11 -77 33c-30.667 32.667 -46 66.667 -46 102c6.66699 -1.33301 12.5 -2.16602 17.5 -2.49902s9.83301 -1.16602 14.5 -2.49902c5.33301 0.666992 9.16602 2.5 11.499 5.5
s3.5 5.83301 3.5 8.5c0 14.667 -14.667 21 -44 19h-320c10 10 18.167 25 24.5 45s10.5 42.333 12.5 67v434c0 24 -2.83301 46.333 -8.5 67s-14.834 40.334 -27.501 59.001h172c-24.667 -40 -37 -82.667 -37 -128v-209l-1 -279h151v60.5c0 25.667 0.166992 52.334 0.5 80.001
s0.5 54.334 0.5 80.001v60.5v209c0 42.667 -13.667 84.667 -41 126h172c-23.333 -38 -35 -80.667 -35 -128z" />
    <glyph glyph-name="afii10041" unicode="&#x427;" horiz-adv-x="470" 
d="M326 315c-9.33301 -11.333 -23.998 -20.999 -43.998 -28.999s-42 -11.333 -66 -10c-20 0.666992 -37.833 2.5 -53.5 5.5s-29.667 7.83301 -42 14.5s-23.5 15.5 -33.5 26.5s-20 24.833 -30 41.5c-14.667 24.667 -31 41 -49 49c27.333 13.333 41 40 41 80l-1 67
c0 18.667 -2.83301 37.334 -8.5 56.001s-14.834 37.334 -27.501 56.001h171c-25.333 -38.667 -38 -76.667 -38 -114c-0.666992 -3.33301 -1 -17 -1 -41v-87c0 -69.333 30 -104 90 -104c26.667 0 48.667 7.66699 66 23s26 38.333 26 69v143c0 44.667 -13.333 82 -40 112h170
c-9.33301 -14 -16.833 -25.833 -22.5 -35.5s-9.16699 -16.5 -10.5 -20.5c-1.33301 -4.66699 -2.5 -11.5 -3.5 -20.5s-1.16699 -20.833 -0.5 -35.5c0 -25.333 0.166992 -53.333 0.5 -84s0.5 -65 0.5 -103s-0.166992 -79 -0.5 -123s-0.5 -91.333 -0.5 -142
c-0.666992 -14 -0.5 -25.5 0.5 -34.5s2.16699 -15.833 3.5 -20.5c0.666992 -2.66699 5.33398 -10.334 14.001 -23.001l8.5 -14.5c3.66699 -6.33301 7.16699 -11.833 10.5 -16.5h-169c3.33301 5.33301 7.16602 11.833 11.499 19.5s7.83301 13.167 10.5 16.5h-1
c3.33301 4.66699 6 8.16699 8 10.5s3.33301 4.16602 4 5.49902l-1 -1c1.33301 5.33301 2.66602 12.666 3.99902 21.999s2.33301 20.333 3 33v209z" />
    <glyph glyph-name="afii10042" unicode="&#x428;" horiz-adv-x="692" 
d="M16 0c10 10 18.1689 24.9961 24.502 44.9961s10.5 42.333 12.5 67v434c0 24 -2.83301 46.333 -8.5 67s-14.834 40.334 -27.501 59.001h172c-24.667 -40 -37 -82.667 -37 -128v-209l-1 -279h151v60.5c0 25.667 0.166992 52.334 0.5 80.001s0.5 54.334 0.5 80.001v60.5v209
c0 42.667 -13.667 84.667 -41 126h172c-24.667 -40 -37 -82.667 -37 -128v-209l-1 -279h151v60.5c0 25.667 0.166992 52.334 0.5 80.001s0.5 54.334 0.5 80.001v60.5v209c0 42.667 -13.667 84.667 -41 126h172c-12.667 -18.667 -21.834 -38.334 -27.501 -59.001
s-8.5 -43 -8.5 -67v-434c2 -24.667 6.16699 -47 12.5 -67s14.5 -35 24.5 -45h-664z" />
    <glyph glyph-name="afii10043" unicode="&#x429;" horiz-adv-x="737" 
d="M16 0c10 10 18.1699 24.9932 24.5029 44.9932s10.5 42.333 12.5 67v434c0 24 -2.83301 46.333 -8.5 67s-14.834 40.334 -27.501 59.001h172c-24.667 -40 -37 -82.667 -37 -128v-209l-1 -279h151v60.5c0 25.667 0.166992 52.334 0.5 80.001s0.5 54.334 0.5 80.001v60.5
v209c0 42.667 -13.667 84.667 -41 126h172c-24.667 -40 -37 -82.667 -37 -128v-209l-1 -279h151v60.5c0 25.667 0.166992 52.334 0.5 80.001s0.5 54.334 0.5 80.001v60.5v209c0 42.667 -13.667 84.667 -41 126h172c-23.333 -38 -35 -80.667 -35 -128l1 -489h89l-25.5 -31
c-9.66699 -12 -17.834 -25.5 -24.501 -40.5s-11 -31.5 -13 -49.5s1 -37.667 9 -59c4.66699 8 15.334 12 32.001 12c23.333 0 35 -8 35 -24c0 -3.33301 -2.66699 -8.33301 -8 -15l-2 -1c-4.66699 -3.33301 -9.83398 -5.83301 -15.501 -7.5s-12.5 -2.5 -20.5 -2.5
c-28 0 -53.667 11 -77 33c-30.667 32.667 -46 66.667 -46 102c6.66699 -1.33301 12.5 -2.16602 17.5 -2.49902s9.83301 -1.16602 14.5 -2.49902c5.33301 0.666992 9.16602 2.5 11.499 5.5s3.5 5.83301 3.5 8.5c0 14.667 -14.667 21 -44 19h-565z" />
    <glyph glyph-name="afii10044" unicode="&#x42a;" horiz-adv-x="597" 
d="M340 673c-27.333 -31.333 -40.999 -65.6777 -40.999 -103.011v-57c0 -20.667 -0.166992 -41.5 -0.5 -62.5s-0.5 -41.833 -0.5 -62.5v-57v-286c24 -1.33301 46.333 -1.33301 67 0s38.5 4.66602 53.5 9.99902s26.333 13.333 34 24s10.5 24.667 8.5 42v127
c0.666992 17.333 -2.33301 31.5 -9 42.5s-15 20.5 -25 28.5s-21 15 -33 21s-23.167 12.5 -33.5 19.5s-19 15.167 -26 24.5s-10.5 21.333 -10.5 36c0 16.667 5 30 15 40s25.333 15 46 15c26.667 0 40 -8.66699 40 -26c0 -18.667 -12 -28 -36 -28h-9
c-1.33301 -1.33301 -2 -2.66602 -2 -3.99902c-0.666992 -0.666992 -1 -1.66699 -1 -3c-0.666992 -9.33301 3.5 -17.166 12.5 -23.499s20.5 -12.333 34.5 -18l45.5 -18c16.333 -6.33301 31.666 -14.166 45.999 -23.499s26.5 -20.666 36.5 -33.999s15.333 -30 16 -50v-18
c2 -9.33301 5.16699 -18.666 9.5 -27.999s6.5 -13.666 6.5 -12.999c-0.666992 -1.33301 0.5 -2.16602 3.5 -2.49902s4.16699 -1.16602 3.5 -2.49902c-1.33301 -2 -2.83301 -4 -4.5 -6s-4.16699 -4.66699 -7.5 -8c-2 -2 -5 -8.66699 -9 -20
c-4.66699 -34.667 -22.334 -66.667 -53.001 -96c-37.333 -35.333 -87.666 -53 -150.999 -53h-198c22.667 30.667 34 59 34 85v541c-24.667 0 -41.667 -2.16699 -51 -6.5s-14 -11.166 -14 -20.499c0 -12.667 6.66699 -19 20 -19l25 9c0 -20 -1.83301 -39.833 -5.5 -59.5
s-10 -37.5 -19 -53.5s-20.833 -29 -35.5 -39s-32.667 -15 -54 -15c-17.333 0 -30.833 3.5 -40.5 10.5s-15.5 14.5 -17.5 22.5s-0.333008 15.5 5 22.5s14.333 10.5 27 10.5c10 0 18 -1.33301 24 -4s10.667 -8 14 -16c7.33301 15.333 10.333 32.833 9 52.5
s-5.83301 39.334 -13.5 59.001s-18.167 37.834 -31.5 54.501s-28.333 29.334 -45 38.001h162z" />
    <glyph glyph-name="afii10045" unicode="&#x42b;" horiz-adv-x="635" 
d="M189 673c-27.333 -31.333 -40.999 -65.6729 -40.999 -103.006v-57c0 -20.667 -0.166992 -41.5 -0.5 -62.5s-0.5 -41.833 -0.5 -62.5v-57v-286c23.333 -1.33301 45.5 -1.33301 66.5 0s39 4.66602 54 9.99902s26.333 13.333 34 24s10.5 24.667 8.5 42v127
c0.666992 17.333 -2.33301 31.5 -9 42.5s-15 20.5 -25 28.5s-21 15 -33 21s-23.167 12.5 -33.5 19.5s-19 15.167 -26 24.5s-10.5 21.333 -10.5 36c0 16.667 5 30 15 40s25.333 15 46 15c26.667 0 40 -8.66699 40 -26c0 -18.667 -12 -28 -36 -28h-9
c-1.33301 -1.33301 -2 -2.66602 -2 -3.99902c-0.666992 -1.33301 -1 -2.33301 -1 -3c-0.666992 -9.33301 3.5 -17.166 12.5 -23.499s20.5 -12.333 34.5 -18l45.5 -18c16.333 -6.33301 31.666 -14.166 45.999 -23.499s26.333 -20.666 36 -33.999s15.167 -30 16.5 -50v-18
c2 -9.33301 5.16699 -18.666 9.5 -27.999s6.5 -13.666 6.5 -12.999c-0.666992 -1.33301 0.5 -2.16602 3.5 -2.49902s4.16699 -1.16602 3.5 -2.49902c-1.33301 -2 -2.83301 -4 -4.5 -6s-4.16699 -4.66699 -7.5 -8c-2 -2 -5 -8.66699 -9 -20
c-5.33301 -34.667 -23 -66.667 -53 -96c-38 -36 -88.333 -54 -151 -54l-198 1c11.333 15.333 19.833 30.166 25.5 44.499s8.5 27.833 8.5 40.5v483c0 38 -13.667 72.667 -41 104zM445.001 -0.00683594c3.33301 5.33301 7.16699 11.8359 11.5 19.5029
s7.83301 13.167 10.5 16.5h-1c3.33301 4.66699 6 8.16699 8 10.5s3.33301 4.16602 4 5.49902l-1 -1c1.33301 5.33301 2.66602 12.666 3.99902 21.999s2.33301 20.333 3 33v455c0 44.667 -13.333 82 -40 112h170c-9.33301 -14 -16.833 -25.833 -22.5 -35.5
s-9.16699 -16.5 -10.5 -20.5c-1.33301 -4.66699 -2.5 -11.5 -3.5 -20.5s-1.16699 -20.833 -0.5 -35.5c0 -25.333 0.166992 -53.333 0.5 -84s0.5 -65 0.5 -103s-0.166992 -79 -0.5 -123s-0.5 -91.333 -0.5 -142c-0.666992 -14 -0.5 -25.5 0.5 -34.5
s2.16699 -15.833 3.5 -20.5c0.666992 -2.66699 5.33398 -10.334 14.001 -23.001l8.5 -14.5c3.66699 -6.33301 7.16699 -11.833 10.5 -16.5h-169z" />
    <glyph glyph-name="afii10046" unicode="&#x42c;" horiz-adv-x="446" 
d="M189 673c-27.333 -31.333 -40.999 -65.6729 -40.999 -103.006v-57c0 -20.667 -0.166992 -41.5 -0.5 -62.5s-0.5 -41.833 -0.5 -62.5v-57v-286c23.333 -1.33301 45.5 -1.33301 66.5 0s39 4.66602 54 9.99902s26.333 13.333 34 24s10.5 24.667 8.5 42v127
c0.666992 17.333 -2.33301 31.5 -9 42.5s-15 20.5 -25 28.5s-21 15 -33 21s-23.167 12.5 -33.5 19.5s-19 15.167 -26 24.5s-10.5 21.333 -10.5 36c0 16.667 5 30 15 40s25.333 15 46 15c26.667 0 40 -8.66699 40 -26c0 -18.667 -12 -28 -36 -28h-9
c-1.33301 -1.33301 -2 -2.66602 -2 -3.99902c-0.666992 -1.33301 -1 -2.33301 -1 -3c-0.666992 -9.33301 3.5 -17.166 12.5 -23.499s20.5 -12.333 34.5 -18l45.5 -18c16.333 -6.33301 31.666 -14.166 45.999 -23.499s26.333 -20.666 36 -33.999s15.167 -30 16.5 -50v-18
c2 -9.33301 5.16699 -18.666 9.5 -27.999s6.5 -13.666 6.5 -12.999c-0.666992 -1.33301 0.5 -2.16602 3.5 -2.49902s4.16699 -1.16602 3.5 -2.49902c-1.33301 -2 -2.83301 -4 -4.5 -6s-4.16699 -4.66699 -7.5 -8c-2 -2 -5 -8.66699 -9 -20
c-5.33301 -34.667 -23 -66.667 -53 -96c-38 -36 -88.333 -54 -151 -54l-198 1c11.333 15.333 19.833 30.166 25.5 44.499s8.5 27.833 8.5 40.5v483c0 38 -13.667 72.667 -41 104z" />
    <glyph glyph-name="afii10047" unicode="&#x42d;" horiz-adv-x="457" 
d="M307 365c0 27.333 -0.500977 56.666 -1.50098 87.999s-5 60.5 -12 87.5s-18.167 49.5 -33.5 67.5s-37.333 27.667 -66 29l3 2c-55.333 -2.66699 -83 -15 -83 -37c0 -15.333 9.66699 -23 29 -23c3.33301 0 10.666 1.66699 21.999 5
c2.66699 -7.33301 4.33398 -14.333 5.00098 -21s1 -13.667 1 -21c0 -30.667 -8 -58.667 -24 -84c-18.667 -26.667 -45.667 -39.667 -81 -39c-34.667 0.666992 -52 10.334 -52 29.001c0 17.333 12 26 36 26c12.667 0 23.334 -4.33301 32.001 -13
c1.33301 3.33301 2 10.666 2 21.999c0 15.333 -2.33301 32.333 -7 51s-11 37.667 -19 57c-17.333 41.333 -36.333 66.666 -57 75.999l34 17c12.667 -8 23.667 -13.667 33 -17s17.333 -5 24 -5c2 0 6.66699 1 14 3s14.666 4.33301 21.999 7c20 7.33301 42 11 66 11
c109.333 0 178.333 -77.333 207 -232v-1c0 -0.666992 0.333008 -1.33398 1 -2.00098c1.33301 -8 2.83301 -18.167 4.5 -30.5s3.83398 -27.166 6.50098 -44.499c3.33301 -13.333 13.666 -23.666 30.999 -30.999c-5.33301 -5.33301 -10 -10.833 -14 -16.5
s-8.66699 -13.167 -14 -22.5c-0.666992 -3.33301 -2 -11 -4 -23l-5 -31c0 -1.33301 -0.166992 -2.16602 -0.5 -2.49902s-0.5 -1.16602 -0.5 -2.49902c-10 -75.333 -24.667 -129 -44 -161v1c-32 -60 -85.333 -90 -160 -90c-24 0 -46 3.66699 -66 11
c-7.33301 2.66699 -14.666 5 -21.999 7s-12 3 -14 3c-6.66699 0 -14.667 -1.66699 -24 -5s-20.333 -9 -33 -17l-34 17c20.667 9.33301 39.667 34.666 57 75.999c8 19.333 14.333 38.333 19 57s7 35.667 7 51c0 11.333 -0.666992 18.666 -2 21.999
c-8.66699 -8.66699 -19.334 -13 -32.001 -13c-24 0 -36 8.66699 -36 26c0 18.667 17.333 28.334 52 29.001c35.333 0.666992 62.333 -12.333 81 -39c16 -25.333 24 -53.333 24 -84c0 -7.33301 -0.333008 -14.333 -1 -21s-2.33398 -13.667 -5.00098 -21
c-11.333 3.33301 -18.666 5 -21.999 5c-19.333 0 -29 -7.66699 -29 -23c0 -22 27.667 -34.333 83 -37c23.333 -1.33301 42.5 7.33398 57.5 26.001s26.167 44 33.5 76c3.33301 19.333 5.83301 44 7.5 74s2.83398 65 3.50098 105h-1h-57
c0 -3.33301 0.166992 -6.83301 0.5 -10.5s0.5 -9 0.5 -16v-29v-49.5l-46 -1c0.666992 15.333 0 28.333 -2 39s-5.66699 21.667 -11 33c-10.667 28.667 -31.334 45.667 -62.001 51v10c10.667 4 20.667 9.66699 30 17s17.333 15.666 24 24.999s11.834 19 15.501 29
s5.5 20 5.5 30v9c0 2.66699 -0.666992 6.66699 -2 12h48v-103h57z" />
    <glyph glyph-name="afii10048" unicode="&#x42e;" horiz-adv-x="652" 
d="M159 128c0 -45.333 12.333 -87.998 37 -127.998h-172c12.667 18.667 21.834 38.334 27.501 59.001s8.5 43 8.5 67v424c0 45.333 -12.667 86 -38 122h174c-24.667 -36.667 -37 -77.334 -37 -122.001v-186h36c14 1.33301 23 4.16602 27 8.49902s6.66699 12.166 8 23.499
c3.33301 15.333 6 32.666 8 51.999s5.66699 44.333 11 75c5.33301 38.667 20.666 73.334 45.999 104.001c30.667 36 71.667 54 123 54c50 0 90.667 -18 122 -54c30 -33.333 45 -68.333 45 -105c-1.33301 -43.333 6 -90.333 22 -141c4.66699 -16.667 17 -31 37 -43l-1 -9
c-38.667 -16.667 -58 -76.334 -58 -179.001c0 -19.333 -4 -37.833 -12 -55.5s-19.333 -34.5 -34 -50.5c-32 -35.333 -73.333 -53 -124 -53c-54.667 0 -96.667 17.667 -126 53c-26 32 -40.333 67.333 -43 106c-1.33301 21.333 -3.16602 44.5 -5.49902 69.5
s-5.5 48.167 -9.5 69.5c-3.33301 10 -6 17.333 -8 22s-7.66699 9.33398 -17 14.001c-0.666992 0 -2.83398 0.166992 -6.50098 0.5s-8 0.5 -13 0.5h-15.5h-12v-198zM502 336.002c0 0.666992 -1.00293 16.668 -3.00293 48.001s-5.33301 78.333 -10 141
c-1.33301 18.667 -2.83301 34 -4.5 46s-3.5 20.667 -5.5 26c-12 26 -33 39 -63 39c-29.333 0 -49.333 -13 -60 -39c-3.33301 -6 -6.16602 -15.167 -8.49902 -27.5s-4.16602 -27.166 -5.49902 -44.499c-1.33301 -22.667 -2.5 -43.834 -3.5 -63.501
s-2.16699 -36.834 -3.5 -51.501c-1.33301 -21.333 -2.33301 -38 -3 -50s-1 -19 -1 -21c0 -4 0.666992 -16.333 2 -37s3 -50 5 -88l2 -32.5c0.666992 -11 1.33398 -23.167 2.00098 -36.5c2.66699 -36 6.66699 -60 12 -72c12 -26 32.667 -39 62 -39c30 0 51 13 63 39
c2 5.33301 3.83301 14 5.5 26s3.16699 27.333 4.5 46c4.66699 62.667 8 110 10 142s3 48.333 3 49z" />
    <glyph glyph-name="afii10049" unicode="&#x42f;" horiz-adv-x="444" 
d="M131 543l-0.000976562 -17.501c0 -7 0.333008 -15.5 1 -25.5v-54c0 -61.333 29.333 -92.666 88 -93.999c13.333 -0.666992 26 -1 38 -1h34v275h-59c-32 -4 -56.667 -12.833 -74 -26.5s-26.666 -32.5 -27.999 -56.5zM-22.001 -117.001l16 29.0059
c4 7.33301 8.5 15.166 13.5 23.499s9.16699 15.833 12.5 22.5c23.333 46 44.833 98.333 64.5 157s36.167 119.667 49.5 183c0.666992 3.33301 1.16699 6.5 1.5 9.5s0.833008 5.5 1.5 7.5c0 1.33301 0.166992 2.5 0.5 3.5s0.5 1.83301 0.5 2.5
c-28 14.667 -51.5 33.5 -70.5 56.5s-31.167 48.167 -36.5 75.5c-2 9.33301 -5.16699 18.666 -9.5 27.999s-6.5 13.666 -6.5 12.999c0.666992 1.33301 -0.5 2.16602 -3.5 2.49902s-4.16699 1.16602 -3.5 2.49902c1.33301 2 2.83301 4 4.5 6s4.16699 4.66699 7.5 8
c2 2 5 8.66699 9 20c30.667 92 92.667 138.667 186 140h218c-28 -20 -42 -50 -42 -90v-493c0 -41.333 15 -71.333 45 -90h-190c30.667 20.667 46 52 46 94c0 36 -0.166992 71.667 -0.5 107s-0.5 71 -0.5 107c-12 -0.666992 -20.5 -0.833984 -25.5 -0.500977
s-10.167 0.5 -15.5 0.5l-40.5 -101l-40.5 -102c-20.667 -45.333 -40.5 -83.5 -59.5 -114.5s-38.167 -55.167 -57.5 -72.5z" />
    <glyph glyph-name="afii10065" unicode="&#x430;" horiz-adv-x="399" 
d="M243 234c-6.66699 56 -12.6689 111.17 -18.002 165.503s-11.333 108.833 -18 163.5h-37c-6 -56 -12.167 -110.667 -18.5 -164l-19.5 -165c3.33301 0 5.5 0.166992 6.5 0.5s3.16699 0.5 6.5 0.5c2.66699 0 5.83398 2 9.50098 6s7.16699 8.33301 10.5 13
c-1.33301 -1.33301 -1.83301 -1.33301 -1.5 0s1 3.5 2 6.5s2.33301 6.5 4 10.5s3.5 8 5.5 12c0 0.666992 0.5 3 1.5 7s2.16699 8.16699 3.5 12.5s2.33301 8.16602 3 11.499s1 5.66602 1 6.99902l13 -37c2 -4.66699 3.83301 -9.83398 5.5 -15.501
s3.83398 -11.167 6.50098 -16.5c6 -12 13 -18 21 -18h13zM287.998 605.003l19.998 -0.00390625c-8.66699 -14.667 -13.667 -29.667 -15 -45c1.33301 -10.667 2.66602 -22.167 3.99902 -34.5s2.66602 -26.166 3.99902 -41.499v1l18.5 -179.5l19.5 -179.5
c3.33301 -22.667 9.5 -44.834 18.5 -66.501s22.167 -41.5 39.5 -59.5h-166c18 20 26.333 59.667 25 119c0 1.33301 -0.666992 8.83301 -2 22.5s-3.66602 33.834 -6.99902 60.501h-17c-5.33301 0 -11 -1.66699 -17 -5s-10.333 -9 -13 -17l1 1
c-0.666992 -2 -2.16699 -5.33301 -4.5 -10s-5.83301 -13 -10.5 -25l-2 1c-2 18.667 -6.83301 32.5 -14.5 41.5s-15.834 13.5 -24.501 13.5h-17c-1.33301 -13.333 -2.83301 -27.333 -4.5 -42s-3.16699 -29 -4.5 -43c-1.33301 -12 -2.66602 -22.5 -3.99902 -31.5
s-2.33301 -17.167 -3 -24.5c0 -21.333 8.66699 -41.666 26 -60.999h-137c14.667 15.333 26.334 34 35.001 56s15 43.667 19 65c6.66699 54.667 13.334 113.334 20.001 176.001s14.334 127 23.001 193c3.33301 13.333 5.33301 24.666 6 33.999s1 17 1 23
c0 10.667 -1.5 20.834 -4.5 30.501s-7.83301 18.834 -14.5 27.501h202z" />
    <glyph glyph-name="afii10066" unicode="&#x431;" horiz-adv-x="412" 
d="M280 215c0 54 -25.998 81.667 -77.998 83h-69v-258c18 0 36.167 0.833008 54.5 2.5s34.666 4.66699 48.999 9s25.666 11 33.999 20s11.5 21.5 9.5 37.5v106zM131.002 562c0 -15.333 0.167969 -32.668 0.500977 -52.001s0.5 -39.5 0.5 -60.5s0.166992 -41.167 0.5 -60.5
s0.5 -36.666 0.5 -51.999h92c38.667 -0.666992 74 -18.334 106 -53.001c30 -31.333 44 -59 42 -83v5c2 -8.66699 5 -17.167 9 -25.5s6 -12.166 6 -11.499c-0.666992 -1.33301 0.333008 -2.16602 3 -2.49902s3.66699 -0.833008 3 -1.5
c-1.33301 -2 -2.66602 -3.83301 -3.99902 -5.5s-3.66602 -4.16699 -6.99902 -7.5c-1.33301 -2 -4 -8 -8 -18c-4.66699 -31.333 -20.334 -60 -47.001 -86c-34.667 -32.667 -79.334 -49 -134.001 -49l-178 1c10 14 17.667 27.333 23 40s8 24.667 8 36v435
c0 34 -12.333 65.333 -37 94h379c-18.667 -14 -33 -36.667 -43 -68c-8.66699 -26 -13 -48.667 -13 -68c0 -8.66699 1.33301 -19.667 4 -33c1.33301 -6 3.33301 -11.333 6 -16c6 12.667 17.667 19 35 19c24 0 36 -7.66699 36 -23c0 -22 -19.333 -33 -58 -33
c-37.333 0 -68 16.667 -92 50c-18.667 29.333 -28.334 60.333 -29.001 93c4.66699 -0.666992 9 -1.33398 13 -2.00098s7 -1 9 -1c11.333 0 17 5.33301 17 16c0 15.333 -19.667 23 -59 23h-84z" />
    <glyph glyph-name="afii10067" unicode="&#x432;" horiz-adv-x="425" 
d="M301 170l-0.000976562 13c0 32.667 -6.5 59 -19.5 79s-29.5 30 -49.5 30c-11.333 0 -20.5 -2.33301 -27.5 -7s-10.5 -10 -10.5 -16c0 -0.666992 0.333008 -1 1 -1c0.666992 -0.666992 1.33398 -1 2.00098 -1h8c22 0 33 -8.33301 33 -25c0 -15.333 -12 -23 -36 -23
c-37.333 0 -56 15 -56 45c0 12 3.83301 22.667 11.5 32s21.5 18 41.5 26c34.667 14 56.667 24.667 66 32v-1c18.667 20 28 56.667 28 110c0 22 -2.83301 39.5 -8.5 52.5s-14.667 23 -27 30s-27.833 11.5 -46.5 13.5s-41 3 -67 3c0 -88 -0.166992 -174.5 -0.5 -259.5
s-0.5 -172.167 -0.5 -261.5c27.333 0 50.5 1.33301 69.5 4s34.667 8.5 47 17.5s21.833 22.167 28.5 39.5s11 40 13 68zM411.999 164c-6.66699 -2 -12 -6.83105 -16 -14.498s-6.66699 -14.834 -8 -21.501c-4.66699 -38 -22.834 -68.833 -54.501 -92.5
s-75.5 -35.5 -131.5 -35.5h-184c26.667 21.333 40 51 40 89v428c0 33.333 -14.667 62.666 -44 87.999h175c112 0 173.333 -40.667 184 -122c2 -7.33301 5.83301 -13.333 11.5 -18s11.834 -10.334 18.501 -17.001c-14 -10 -22.5 -17.167 -25.5 -21.5
s-4.5 -10.166 -4.5 -17.499c-4.66699 -44 -31.667 -74.667 -81 -92c28.667 -7.33301 50.5 -19.5 65.5 -36.5s24.833 -39.833 29.5 -68.5c0 -18 8.66699 -31 26 -39z" />
    <glyph glyph-name="afii10068" unicode="&#x433;" horiz-adv-x="410" 
d="M125 101l2.99902 -37.4971c0.666992 -8.33301 2 -15 4 -20s5.5 -10.333 10.5 -16l23.5 -27.5c-1.33301 0 -7.16602 0.166992 -17.499 0.5s-21.5 0.5 -33.5 0.5c-11.333 0 -26.166 -0.166992 -44.499 -0.5s-38.5 -0.5 -60.5 -0.5l-3 8c2 1.33301 4.33301 3.33301 7 6
s5.33398 6.66699 8.00098 12c12 19.333 18 44.666 18 75.999v409c0 34 -12.333 65.333 -37 94h258h121c-10 -6.66699 -18.667 -15.834 -26 -27.501s-13.666 -25.167 -18.999 -40.5c-8 -26 -12 -48.667 -12 -68c0 -8.66699 1.33301 -19.667 4 -33v1
c1.33301 -4.66699 2.5 -8 3.5 -10s2.16699 -4 3.5 -6c2.66699 7.33301 6.66699 12.166 12 14.499s12.666 3.5 21.999 3.5c24.667 0 37 -7.66699 37 -23c0 -24 -20.333 -36 -61 -36c-18.667 0 -35.834 4.66699 -51.501 14s-28.834 22 -39.501 38
c-8.66699 14 -15.167 29.167 -19.5 45.5s-6.83301 33.833 -7.5 52.5l31 -8c12 0 18 5.66699 18 17c0 16 -22.333 24 -67 24h-86z" />
    <glyph glyph-name="afii10069" unicode="&#x434;" horiz-adv-x="425" 
d="M115 0c-26 2 -39 -3.66602 -39 -16.999c0 -2.66699 1 -5.33398 3 -8.00098s5.33301 -4.33398 10 -5.00098c4 1.33301 8.33301 2.16602 13 2.49902s10 1.16602 16 2.49902c0 -32 -14 -62.667 -42 -92c-20.667 -20 -43.667 -30 -69 -30
c-7.33301 0 -13.5 0.833008 -18.5 2.5s-9.5 3.83398 -13.5 6.50098l-2 1c-4.66699 6 -7 10.667 -7 14c0 14 10.333 21 31 21c14.667 0 24.334 -3.66699 29.001 -11c7.33301 19.333 10 37 8 53s-6 30.667 -12 44s-13.333 25.166 -22 35.499l-23 27.5h70
c7.33301 20 14.833 44.667 22.5 74s14.167 60.833 19.5 94.5s9.16602 68.667 11.499 105s2.5 72 0.5 107s-6.83301 67.667 -14.5 98s-19.167 57.166 -34.5 80.499h320c-18.667 -18.667 -30 -50 -34 -94v-111c0 -40 -0.166992 -80.5 -0.5 -121.5s-0.5 -81.5 -0.5 -121.5v-111
h81l-23 -27.5c-8.66699 -10.333 -16 -22.166 -22 -35.499s-10 -28 -12 -44s0.666992 -33.667 8 -53c4 7.33301 13.667 11 29 11c20.667 0 31 -7 31 -21c0 -3.33301 -2.33301 -8 -7 -14l-2 -1c-4 -2.66699 -8.5 -4.83398 -13.5 -6.50098s-11.167 -2.5 -18.5 -2.5
c-25.333 0 -48.333 10 -69 30c-28 29.333 -42 60 -42 92c6 -1.33301 11.333 -2.16602 16 -2.49902s9 -1.16602 13 -2.49902c4.66699 0.666992 8 2.33398 10 5.00098s3 5.33398 3 8.00098c0 13.333 -13 19 -39 17h-165zM253 562.001l-55.998 0.00390625
c-26.667 0 -45.334 -0.833008 -56.001 -2.5s-16 -7.83398 -16 -18.501c0 -4 1.83301 -7.83301 5.5 -11.5s7.16699 -5.5 10.5 -5.5h40c4 -20.667 5.66699 -44.667 5 -72s-2.83398 -56.333 -6.50098 -87s-8.5 -61.834 -14.5 -93.501s-12.5 -61.834 -19.5 -90.501
s-14 -54.834 -21 -78.501s-13.167 -42.167 -18.5 -55.5h148z" />
    <glyph glyph-name="afii10070" unicode="&#x435;" 
d="M417 211c0 -16 -11.668 -23.999 -35.001 -23.999c-20 0 -30 6.66699 -30 20c0 2.66699 1 4 3 4c-8 -1.33301 -12 -10.333 -12 -27c0 -66 21.333 -127.333 64 -184h-399c2 2.66699 4.66699 6.66699 8 12s5.66602 9.33301 6.99902 12c2 3.33301 3.83301 6 5.5 8
s3.16699 4.66699 4.5 8c8 16.667 12 37.334 12 62.001v409c0 34 -12.333 65.333 -37 94h379c-18.667 -14 -33 -36.667 -43 -68c-8.66699 -26 -13 -48.667 -13 -68c0 -8.66699 1.66699 -19.667 5 -33c0.666992 -6 2.33398 -11.333 5.00098 -16c6 12.667 17.667 19 35 19
c24 0 36 -7.66699 36 -23c0 -22 -19 -33 -57 -33s-69 16.667 -93 50c-18.667 29.333 -28.334 60.333 -29.001 93c4.66699 -0.666992 9 -1.33398 13 -2.00098s7.33301 -1 10 -1c10.667 0 16 5.33301 16 16c0 15.333 -19.667 23 -59 23h-83v-230h54v97h42
c-1.33301 -4.66699 -2 -8.16699 -2 -10.5v-8.5c0 -8.66699 1.66699 -17.834 5 -27.501s8 -18.834 14 -27.501s13 -16.667 21 -24s17.333 -12.666 28 -15.999v-9c-28 -4.66699 -46.667 -20 -56 -46c-9.33301 -19.333 -13.333 -42.333 -12 -69l-41 1v50
c0 12 -0.166992 21.667 -0.5 29s-0.166016 14 0.500977 20h-49l-1 -249h86c47.333 0 71 9 71 27c0 10.667 -5 16 -15 16c-0.666992 0 -2.66699 -0.333008 -6 -1s-9.33301 -2.66699 -18 -6c0 42 7.66699 77 23 105c10.667 18.667 23.834 33 39.501 43s34.167 15 55.5 15
c32 0 48 -10 48 -30z" />
    <glyph glyph-name="afii10072" unicode="&#x436;" horiz-adv-x="594" 
d="M226 1c18.667 33.333 27.9951 63.668 27.9951 91.001v112c-2 -2.66699 -4.66699 -4.33398 -8 -5.00098c-9.33301 -8 -19 -12 -29 -12c-22 0 -33 9.66699 -33 29c0 7.33301 4.33301 14.666 13 21.999c-0.666992 0 -1 1 -1 3c0.666992 0.666992 1.5 1.66699 2.5 3
s1.83301 2.33301 2.5 3s1.33398 1.5 2.00098 2.5s1 3.16699 1 6.5c0 2.66699 -0.666992 5.66699 -2 9v0c-2.66699 5.33301 -5.16699 9.66602 -7.5 12.999s-4.83301 6.33301 -7.5 9c-6 -60.667 -38 -145 -96 -253c-61.333 -110 -109.333 -173.667 -144 -191
c-8 -2.66699 -14.333 -0.333984 -19 6.99902l1 5c22.667 34 43.834 71.167 63.501 111.5s38.5 83.5 56.5 129.5c18 47.333 32.333 93.333 43 138s17.667 86 21 124c0 1.33301 -2.33301 6.66602 -7 15.999c-1.33301 1.33301 -2.16602 3 -2.49902 5s-0.5 3.33301 -0.5 4l-5 9
c-11.333 14.667 -21 36.334 -29 65.001c-0.666992 2 -1 3.66699 -1 5s-0.333008 2.66602 -1 3.99902c-6 20 -10.5 36 -13.5 48s-5.83301 20.333 -8.5 25c-13.333 34.667 -25.333 54.667 -36 60l4 8h135l3 -8c-5.33301 -2 -10.166 -9 -14.499 -21s-6.5 -24 -6.5 -36v1
c4.66699 -40.667 13.667 -80.334 27 -119.001c18.667 -53.333 42.667 -92.666 72 -117.999c11.333 -9.33301 19.666 -18.333 24.999 -27v235c0 27.333 -9.66699 58 -29 92l141 -1c-19.333 -34 -29 -64.667 -29 -92v-235c6 9.33301 14.333 18.333 25 27
c29.333 25.333 53.666 64.666 72.999 117.999c12.667 38.667 21.334 78.334 26.001 119.001v-1c0.666992 12 -1.33301 24 -6 36s-9.66699 19 -15 21l3 8h136l3 -8c-10.667 -5.33301 -22.667 -25.333 -36 -60c-2 -4.66699 -4.66699 -13 -8 -25l-14 -48
c-0.666992 -1.33301 -1 -2.66602 -1 -3.99902s-0.333008 -3 -1 -5c-8 -28.667 -17.667 -50.334 -29 -65.001l-4 -9c-0.666992 -0.666992 -1.16699 -2 -1.5 -4s-1.16602 -3.66699 -2.49902 -5c-4.66699 -9.33301 -7 -14.666 -7 -15.999
c3.33301 -37.333 10.5 -78.5 21.5 -123.5s25.167 -91.167 42.5 -138.5c18 -46 36.833 -89.167 56.5 -129.5s40.834 -77.5 63.501 -111.5l1 -5c-4.66699 -7.33301 -11 -9.66602 -19 -6.99902c-34.667 18 -82.667 81.667 -144 191c-58 108 -90 192.333 -96 253
c-2.66699 -2 -5.16699 -4.83301 -7.5 -8.5s-4.83301 -7.83398 -7.5 -12.501h1c-2 -4 -3 -7.33301 -3 -10c0 -3.33301 0.333008 -5.5 1 -6.5s1.66699 -1.83301 3 -2.5c0 -0.666992 0.5 -1.66699 1.5 -3s1.83301 -2.33301 2.5 -3c0 -1.33301 -0.333008 -2.33301 -1 -3
c9.33301 -7.33301 14 -14.666 14 -21.999c0 -19.333 -11.333 -29 -34 -29c-10 0 -19.333 4 -28 12c-4 0.666992 -7 2.33398 -9 5.00098v-112c0 -27.333 9.33301 -57.666 28 -90.999h-140z" />
    <glyph glyph-name="afii10073" unicode="&#x437;" horiz-adv-x="419" 
d="M211 -5c-12.667 -0.666992 -25.999 0.662109 -39.999 3.99512s-26.333 7.33301 -37 12c-24 12.667 -38.333 19.334 -43 20.001c-9.33301 1.33301 -17.666 -2.33398 -24.999 -11.001c-11.333 -12 -20 -18 -26 -18c-3.33301 0 -6.5 0.666992 -9.5 2
s-6.16699 3.66602 -9.5 6.99902c42 62.667 63 111.334 63 146.001c0 36.667 -5.66699 55 -17 55c2 -0.666992 2.66699 -3.66699 2 -9c-1.33301 -12 -10 -18 -26 -18c-22 0 -33.333 7.33301 -34 22c-1.33301 24 18 36 58 36c18.667 0 35 -3.66699 49 -11s26 -17.333 36 -30
c18.667 -26 28 -52.667 28 -80c0 -3.33301 -0.333008 -7.33301 -1 -12s-1 -9 -1 -13c-24.667 2 -37 -3.66699 -37 -17c0 -10 6.33301 -19.333 19 -28s30 -13 52 -13c32.667 0 50 18.333 52 55l2 56c0.666992 18 1 34 1 48c0 20.667 -0.5 36.334 -1.5 47.001
s-2.5 19.667 -4.5 27c-4 6.66699 -11.167 12.5 -21.5 17.5s-20.5 7.5 -30.5 7.5c-4.66699 0 -11.667 -2.83301 -21 -8.5s-17.666 -14.5 -24.999 -26.5c-1.33301 14 -2.33301 30.667 -3 50s-0.666992 34.666 0 45.999l12 -6c5.33301 -2.66699 10.666 -5.5 15.999 -8.5
s10.333 -5.66699 15 -8s7.66699 -3.5 9 -3.5c35.333 0 53 42.667 53 128c0 20 -0.833008 39.833 -2.5 59.5s-5.5 33.5 -11.5 41.5c-5.33301 6.66699 -13.5 10.834 -24.5 12.501s-22 1 -33 -2s-20.5 -7.66699 -28.5 -14s-12 -13.833 -12 -22.5
c0 -3.33301 2 -7.16602 6 -11.499s7.66699 -6.5 11 -6.5l15 9c6 -29.333 -1.66699 -59.333 -23 -90c-21.333 -28.667 -48 -44.334 -80 -47.001c-14 -0.666992 -26 1.33301 -36 6s-15 11.667 -15 21c2 18 13.333 27 34 27c11.333 0 20 -3 26 -9
c1.33301 2.66699 2.5 6.16699 3.5 10.5s1.5 8.83301 1.5 13.5c0 20.667 -7.33301 45.334 -22 74.001c-15.333 27.333 -30.666 46.333 -45.999 57l23 18c16.667 -14 30.667 -21 42 -21c6 0 20.333 4.33301 43 13c11.333 5.33301 23.666 9.33301 36.999 12s24.333 4 33 4
c31.333 2 61 -4.83301 89 -20.5s49 -39.834 63 -72.501c1.33301 -4 3.16602 -9 5.49902 -15s5.5 -13.333 9.5 -22l11 -14c4.66699 -6 9.33398 -12.333 14.001 -19c-13.333 -7.33301 -23.333 -19.666 -30 -36.999l-10 -25.5c-2.66699 -7 -5.33398 -12.167 -8.00098 -15.5
c-4.66699 -6.66699 -13.334 -14.834 -26.001 -24.501s-27.667 -20.5 -45 -32.5l3 -3c8 -5.33301 16.5 -11.5 25.5 -18.5s17.833 -14.5 26.5 -22.5c4.66699 -10.667 11 -21.167 19 -31.5s17.667 -24.833 29 -43.5c0.666992 -3.33301 2.33398 -5.66602 5.00098 -6.99902
s4.66699 -3 6 -5c10.667 -7.33301 16 -12.666 16 -15.999c0 -1.33301 -5.66699 -6.66602 -17 -15.999c-7.33301 -8 -11.333 -13 -12 -15c-8 -16 -14.5 -29.5 -19.5 -40.5s-9.16699 -18.833 -12.5 -23.5c-6 -10 -13.833 -19.667 -23.5 -29s-20.334 -17.666 -32.001 -24.999
s-24 -13.333 -37 -18s-26.167 -7 -39.5 -7z" />
    <glyph glyph-name="afii10074" unicode="&#x438;" horiz-adv-x="385" 
d="M206 246c-6.66699 -19.333 -12.6699 -37.5059 -18.0029 -54.5059l-15.5 -50c-5 -16.333 -9.83301 -33 -14.5 -50l-15 -54.5c-2.66699 -8.66699 3 -21 17 -37h-152c25.333 18.667 38 36.334 38 53.001v195.5v139.5c0 38 0.166992 67.833 0.5 89.5s0.5 36.834 0.5 45.501
c0.666992 15.333 -2.16602 29.833 -8.49902 43.5s-15.5 25.834 -27.5 36.501l152 1l-3 -7c-9.33301 -5.33301 -16.333 -14 -21 -26s-7.66699 -28 -9 -48v-291l65 194l21 67c6.66699 22 13.334 45.667 20.001 71c2 8.66699 -3.66699 21 -17 37h149
c-12.667 -9.33301 -22.167 -18.166 -28.5 -26.499s-9.5 -17.166 -9.5 -26.499c0 -150.667 0.333008 -265 1 -343s0.333984 -120.333 -0.999023 -127h2c-0.666992 -30.667 10.333 -56.667 33 -78h-149l3 7c17.333 8.66699 27 32.334 29 71.001v299z" />
    <glyph glyph-name="afii10075" unicode="&#x439;" horiz-adv-x="385" 
d="M206 246c-6.66699 -19.333 -12.667 -37.499 -18 -54.499l-15.5 -50c-5 -16.333 -9.83301 -33 -14.5 -50l-15 -54.5c-0.666992 -1.33301 -1 -3 -1 -5c0 -6.66699 6 -17.334 18 -32.001h-152c25.333 18.667 38 36.334 38 53.001v470c0 32 -11.667 59 -35 81h152l-3 -7
c-9.33301 -5.33301 -16.333 -14 -21 -26s-7.66699 -28 -9 -48v-291l65 194c8 22.667 15 45 21 67l20 71c0 1.33301 0.166992 2.16602 0.5 2.49902s0.5 1.16602 0.5 2.49902c0 6.66699 -6 17.334 -18 32.001h149c-12.667 -9.33301 -22.167 -18.166 -28.5 -26.499
s-9.5 -17.166 -9.5 -26.499c0 -100.667 0.166992 -184.834 0.5 -252.501s0.5 -119.834 0.5 -156.501v-42c0 -10 -0.333008 -16.333 -1 -19h2c0 -16 2.5 -30.333 7.5 -43s13.5 -24.334 25.5 -35.001h-149l3 7c17.333 8.66699 27 32.334 29 71.001v299zM149 694.001
c0 -8.66699 4.16504 -14.999 12.498 -18.999s17.5 -5.83301 27.5 -5.5s19.333 2.66602 28 6.99902s13.334 11.166 14.001 20.499c1.33301 10.667 5 19.334 11 26.001s12.5 10.667 19.5 12s14 0.333008 21 -3s12.167 -9.33301 15.5 -18
c0.666992 -17.333 -4.16602 -31.666 -14.499 -42.999s-23.5 -19.833 -39.5 -25.5s-33.333 -8.66699 -52 -9s-36.167 2.16699 -52.5 7.5s-29.833 13.166 -40.5 23.499s-16 23.5 -16 39.5c1.33301 12 5.5 20.5 12.5 25.5s14.5 7 22.5 6s15.167 -5.33301 21.5 -13
s9.5 -18.167 9.5 -31.5z" />
    <glyph glyph-name="afii10076" unicode="&#x43a;" horiz-adv-x="374" 
d="M444 -151c-5.33301 -7.33301 -11.667 -9.66797 -19 -7.00098c-34.667 18 -82.667 81.667 -144 191c-58.667 108 -91 192.333 -97 253c-2 -2 -4.16699 -4.83301 -6.5 -8.5s-5.16602 -7.83398 -8.49902 -12.501h1c-2 -4 -3 -7.33301 -3 -10
c0 -3.33301 0.333008 -5.5 1 -6.5s1.66699 -1.83301 3 -2.5c0.666992 -0.666992 1.5 -1.66699 2.5 -3s1.5 -2.33301 1.5 -3v-3c8.66699 -7.33301 13 -14.666 13 -21.999c0 -19.333 -11 -29 -33 -29c-10.667 0 -20.334 4 -29.001 12c-3.33301 0.666992 -6 2.33398 -8 5.00098
v-112c0 -27.333 9.33301 -57.666 28 -90.999h-141c7.33301 14.667 13.5 28.167 18.5 40.5s8.16699 24.833 9.5 37.5c-0.666992 13.333 -0.833984 29.166 -0.500977 47.499s0.5 38.833 0.5 61.5v134.5c0 53.667 0.333008 117.5 1 191.5
c-0.666992 12 -3.33398 26.167 -8.00098 42.5s-11.667 33.166 -21 50.499l142 -1c-19.333 -34 -29 -64.667 -29 -92v-235c5.33301 9.33301 13.333 18.333 24 27c29.333 25.333 53.666 64.666 72.999 117.999c13.333 38.667 22 78.334 26 119.001v-1
c0.666992 12 -1.16602 24 -5.49902 36s-9.5 19 -15.5 21l3 8h136l4 -8c-11.333 -5.33301 -23.333 -25.333 -36 -60c-2.66699 -4.66699 -5.66699 -13 -9 -25l-14 -48c-0.666992 -1.33301 -1 -2.66602 -1 -3.99902s-0.333008 -3 -1 -5
c-7.33301 -28.667 -16.666 -50.334 -27.999 -65.001l-5 -9c-0.666992 -0.666992 -1.16699 -2 -1.5 -4s-1.16602 -3.66699 -2.49902 -5c-4.66699 -9.33301 -7 -14.666 -7 -15.999c4 -37.333 11.333 -78.5 22 -123.5s24.667 -91.167 42 -138.5c18 -46 37 -89.167 57 -129.5
s41.333 -77.5 64 -111.5z" />
    <glyph glyph-name="afii10077" unicode="&#x43b;" horiz-adv-x="345" 
d="M209 268v294.001h-32c-26.667 0 -45.334 -1 -56.001 -3s-16 -8.33301 -16 -19c0 -4 1.83301 -7.83301 5.5 -11.5s7.16699 -5.5 10.5 -5.5h30l-5.5 -80.5c-2.33301 -34.333 -6.16602 -72 -11.499 -113s-12.166 -83 -20.499 -126s-19 -83 -32 -120s-28 -68.5 -45 -94.5
s-36.833 -42 -59.5 -48c10.667 26.667 20.667 57.667 30 93s17.333 72.833 24 112.5s12.167 80.667 16.5 123s6.83301 83.666 7.5 123.999s-0.833008 78.5 -4.5 114.5s-9.83398 68.333 -18.501 97h296c-18.667 -18.667 -30 -50 -34 -94c0 -70.667 -0.166992 -141 -0.5 -211
s-0.5 -139.667 -0.5 -209c3.33301 -19.333 7 -36.666 11 -51.999s12.667 -28.333 26 -39h-157c25.333 25.333 38 55.666 38 90.999z" />
    <glyph glyph-name="afii10078" unicode="&#x43c;" horiz-adv-x="483" 
d="M470 1c-22.667 -0.666992 -42.3311 -1.00098 -58.998 -1.00098h-41c-17.333 0 -29.5 0.333008 -36.5 1s-5.83301 3.33398 3.5 8.00098l-4 -1c18.667 24.667 28 53 28 85l-1 426c-14 -86 -27.333 -172.5 -40 -259.5l-39 -259.5h-96l-84 494c-1.33301 -28 -2 -76 -2 -144
s-0.333008 -156.667 -1 -266c0 -14 1.16699 -28 3.5 -42s8.83301 -28 19.5 -42h-109c19.333 31.333 29 59.333 29 84v446c0 34 -10.333 59 -31 75h187c-6.66699 -4.66699 -12.834 -10 -18.501 -16s-7.83398 -13.333 -6.50098 -22c2 -12 4.66699 -26.667 8 -44l13.5 -69.5
l20.5 -109l29 -162.5l16 98.5l16 93.5l16 94l16 99c2 8.66699 -6 21.334 -24 38.001h194c-21.333 -22.667 -32 -47.334 -32 -74.001v-440c0 -44.667 9.66699 -72 29 -82z" />
    <glyph glyph-name="afii10079" unicode="&#x43d;" horiz-adv-x="398" 
d="M232 0c24.667 38 36.999 75.6631 36.999 112.996v188c-5.33301 0.666992 -10.5 1.16699 -15.5 1.5s-10.167 0.5 -15.5 0.5c-4 0.666992 -10 -5.66602 -18 -18.999c2.66699 2.66699 2.33398 0.666992 -0.999023 -6s-6.33301 -14 -9 -22
c-0.666992 -1.33301 -1.5 -3.83301 -2.5 -7.5l-3 -11.5c-1 -4 -2 -7.66699 -3 -11s-1.5 -5.33301 -1.5 -6c-8.66699 22.667 -15.5 39.834 -20.5 51.501s-8.5 19.167 -10.5 22.5c-1.33301 4.66699 -7.33301 7.33398 -18 8.00098c-4 0 -7 0.166992 -9 0.5s-5 0.5 -9 0.5v-188
c0 -20.667 2.83301 -40.667 8.5 -60s13.834 -37.666 24.501 -54.999h-154c21.333 32 32 69.667 32 113v382c0 40 -11.333 76.667 -34 110h156c-22 -34 -33 -70.667 -33 -110v-158h22c10.667 0 25 27 43 81c0.666992 -3.33301 2.16699 -7.83301 4.5 -13.5
s4.66602 -11.667 6.99902 -18s4.5 -12.5 6.5 -18.5s3.66699 -10.667 5 -14c5.33301 -11.333 12.333 -17 21 -17h26c0 27.333 0.166992 53.833 0.5 79.5s0.5 51.834 0.5 78.501c0 20 -2.83301 39 -8.5 57s-14.167 35.667 -25.5 53h151
c-21.333 -32.667 -32 -69.334 -32 -110.001l1 -380c0 -42.667 10.667 -81 32 -115h-155z" />
    <glyph glyph-name="afii10080" unicode="&#x43e;" 
d="M283 473c-1.33301 17.333 -2.83301 31.332 -4.5 41.999s-3.16699 18.334 -4.5 23.001c-11.333 23.333 -30.333 35 -57 35c-12 0 -22.333 -2.83301 -31 -8.5s-15.834 -13.167 -21.501 -22.5s-10 -20 -13 -32s-4.5 -24.333 -4.5 -37c0 -30.667 -0.5 -65 -1.5 -103
s-1.5 -75.833 -1.5 -113.5s0.666992 -73.334 2 -107.001s5 -61.167 11 -82.5c2.66699 -12.667 9.83398 -21.834 21.501 -27.501s24.5 -8.5 38.5 -8.5c26.667 0 45.667 12 57 36c1.33301 4.66699 2.83301 12.334 4.5 23.001s3.16699 24.334 4.5 41.001v342zM421 301.999
c-34.667 -18.667 -52.002 -74.0029 -52.002 -166.003c0 -17.333 -3.66699 -34 -11 -50s-17.333 -31.333 -30 -46c-29.333 -31.333 -66.666 -47 -111.999 -47c-47.333 0 -84.333 15.667 -111 47c-23.333 29.333 -36 61.333 -38 96c-1.33301 19.333 -3.5 39 -6.5 59
s-6.5 39.667 -10.5 59c-2.66699 8.66699 -7.66699 16.334 -15 23.001s-14.666 13 -21.999 19c-0.666992 1.33301 -1.5 2.33301 -2.5 3s-2.16699 1.33398 -3.5 2.00098c22 12 34.333 28.333 37 49c3.33301 14 6.66602 30.833 9.99902 50.5s7.66602 43.5 12.999 71.5
c4.66699 34.667 18.334 65.667 41.001 93c27.333 32.667 64.333 49 111 49c44.667 0 81 -16.333 109 -49c27.333 -30 41 -61.333 41 -94c-1.33301 -39.333 5.33398 -81.666 20.001 -126.999c4 -15.333 15 -28.333 33 -39z" />
    <glyph glyph-name="afii10081" unicode="&#x43f;" horiz-adv-x="401" 
d="M388 605c-9.33301 -9.33301 -16.832 -23.001 -22.499 -41.001s-9.16699 -38 -10.5 -60l1 -389c0 -42.667 10.667 -81 32 -115h-155c24.667 37.333 37 75 37 113v188v55c0 23.333 -0.166992 47.333 -0.5 72s-0.5 48.667 -0.5 72v54h-136l1 -251v-188
c0 -40.667 11 -79 33 -115h-154c11.333 16.667 19.5 34.334 24.5 53.001s7.5 38.667 7.5 60v391c-2 22 -5.83301 42 -11.5 60s-12.834 31.667 -21.501 41h376z" />
    <glyph glyph-name="afii10082" unicode="&#x440;" horiz-adv-x="389" 
d="M271 486c0 50.667 -39.001 76 -117.001 76c-1.33301 0 -3 0.166992 -5 0.5s-5 0.5 -9 0.5c-2.66699 0 -4.66699 0.166992 -6 0.5s-4.66602 0.5 -9.99902 0.5v-257h69c52 1.33301 78 29 78 83v96zM363.999 404c2 -24 -12 -52 -42 -84c-32 -34 -67.333 -51.333 -106 -52
h-92v-184c0 -34 13.667 -62 41 -84h-167c26.667 20.667 40 47.667 40 81v447c0 11.333 -2.66699 23.5 -8 36.5s-13 26.5 -23 40.5l178 1c54.667 0 99.334 -16.333 134.001 -49c26.667 -26.667 42.334 -55.334 47.001 -86.001c4 -10.667 6.66699 -16.667 8 -18
c3.33301 -3.33301 5.66602 -5.83301 6.99902 -7.5s2.66602 -3.5 3.99902 -5.5c0.666992 -1.33301 -0.333008 -2.16602 -3 -2.49902s-3.66699 -0.833008 -3 -1.5l-6 -12.5c-4 -8.33301 -7 -16.5 -9 -24.5v5z" />
    <glyph glyph-name="afii10083" unicode="&#x441;" horiz-adv-x="401" 
d="M397 599c-18.667 -8 -35.6689 -30.6592 -51.002 -67.9922c-7.33301 -17.333 -13.166 -34.5 -17.499 -51.5s-6.5 -32.167 -6.5 -45.5c0 -10.667 0.666992 -17.334 2 -20.001c8 8 17.667 12 29 12c21.333 0 32 -8 32 -24c0 -16.667 -15.667 -25.334 -47 -26.001
s-55.666 11 -72.999 35c-14 22.667 -21 48 -21 76c0 6.66699 0.333008 13 1 19s2 12.333 4 19c10.667 -3.33301 17.334 -5 20.001 -5c17.333 0 26 7 26 21c0 20 -25 31 -75 33c-20.667 1.33301 -37.834 -6.33398 -51.501 -23.001s-23.5 -39.667 -29.5 -69
c-3.33301 -18.667 -5.83301 -43 -7.5 -73s-2.5 -65 -2.5 -105c0 -30 0.833008 -57.333 2.5 -82s4.16699 -46.334 7.5 -65.001c0 -81.333 30.333 -122 91 -122c31.333 0 55.333 13 72 39h-1c13.333 21.333 20 47.333 20 78c0 10.667 -0.666992 21.334 -2 32.001
c-5.33301 -2.66699 -10.5 -4.5 -15.5 -5.5s-9.83301 -1.5 -14.5 -1.5c-14 0 -25.167 4.33301 -33.5 13s-12.5 18.667 -12.5 30c0 29.333 18.667 44 56 44c14.667 0 27.334 -3 38.001 -9h-1c29.333 -18.667 44 -50.334 44 -95.001c0 -20.667 -3.33301 -40.167 -10 -58.5
s-16 -35.833 -28 -52.5c-28 -36.667 -65.333 -55 -112 -55c-98 0 -160 69.333 -186 208c-0.666992 0 -1 0.333008 -1 1v2c-1.33301 7.33301 -2.66602 16.5 -3.99902 27.5s-3.33301 24.5 -6 40.5c-2.66699 12 -12 21.333 -28 28c5.33301 4.66699 9.66602 9.5 12.999 14.5
l13 20.5c0 2.66699 1 9.5 3 20.5l5 27.5c0 1.33301 0.166992 2.16602 0.5 2.49902s0.5 1.16602 0.5 2.49902c8.66699 67.333 21.667 115.666 39 144.999v-1c28.667 54 76.667 81 144 81c22 0 42 -3.33301 60 -10c6 -2.66699 12.333 -4.83398 19 -6.50098s11 -2.5 13 -2.5
c6 0 13.167 1.5 21.5 4.5s18.166 8.16699 29.499 15.5z" />
    <glyph glyph-name="afii10084" unicode="&#x442;" horiz-adv-x="478" 
d="M68 355h-1h1v0zM470 337c-7.33301 -16 -24.0088 -24.3301 -50.0088 -24.9971c-13.333 -1.33301 -25.333 1.66699 -36 9c-0.666992 -2 -1.16699 -2.83301 -1.5 -2.5s-0.833008 1.83301 -1.5 4.5c-18.667 12.667 -33.667 33.334 -45 62.001
c-5.33301 14.667 -9.66602 31 -12.999 49s-5.66602 36.333 -6.99902 55c-1.33301 8 -2.16602 15.333 -2.49902 22s-0.5 11.667 -0.5 15l18.5 -7c3.66699 -1.33301 6.16699 -2 7.5 -2c12 0 16.333 9 13 27c-3.33301 12.667 -24.333 19 -63 19
c-1.33301 0 -2.16602 -0.166992 -2.49902 -0.5s-3.5 -0.166016 -9.5 0.500977v-470c-1.33301 -35.333 8.33398 -66.333 29.001 -93h-139c20.667 28 29.667 59 27 93l2 470h-23c-18 0 -31.167 -1 -39.5 -3s-14.166 -6.66699 -17.499 -14
c-1.33301 -6.66699 -0.5 -13.167 2.5 -19.5s8.16699 -9.5 15.5 -9.5c2.66699 0 6.83398 0.166992 12.501 0.5s9.83398 0.5 12.501 0.5c0 -1.33301 -0.166992 -4.83301 -0.5 -10.5s-0.833008 -11.5 -1.5 -17.5c-0.666992 -18.667 -3 -37 -7 -55s-8.33301 -34.667 -13 -50
c-10 -24.667 -22.167 -43.334 -36.5 -56.001s-30.833 -18.334 -49.5 -17.001c-3.33301 0.666992 -6.83301 1.16699 -10.5 1.5s-7.5 1.16602 -11.5 2.49902c-13.333 4 -22.666 11.667 -27.999 23c-2 22.667 8.33301 34 31 34c14 0 22.833 -1.5 26.5 -4.5
s6.83398 -7.16699 9.50098 -12.5v-1c2 18 2.83301 37.833 2.5 59.5s-2.33301 43.5 -6 65.5s-8.83398 43.833 -15.501 65.5s-15.667 41.5 -27 59.5h427c-10.667 -18.667 -19.5 -38.667 -26.5 -60s-12.333 -42.833 -16 -64.5s-5.66699 -43.334 -6 -65.001
s0.166992 -41.834 1.5 -60.501c1.33301 0.666992 2.5 2 3.5 4s2.16699 3.66699 3.5 5l-1 -1c3.33301 7.33301 12.666 11 27.999 11c24.667 0 36.334 -11.667 35.001 -35z" />
    <glyph glyph-name="afii10085" unicode="&#x443;" horiz-adv-x="412" 
d="M64 25c0 -0.666992 -3.17188 -1.49805 -9.50488 -2.49805s-12.5 -2.16699 -18.5 -3.5c-1.33301 -1.33301 -2.66602 -2.5 -3.99902 -3.5s-3 -1.83301 -5 -2.5c-3.33301 -3.33301 -6.83301 -6.33301 -10.5 -9s-7.16699 -3.66699 -10.5 -3
c-2.66699 1.33301 -5.16699 3.33301 -7.5 6s-4.5 5.33398 -6.5 8.00098c47.333 54.667 75 98.667 83 132c0.666992 3.33301 1 7.66602 1 12.999s-0.333008 11.333 -1 18c0 6 -0.666992 11.333 -2 16c-2 -12 -11.333 -16 -28 -12c-9.33301 1.33301 -16.166 4.5 -20.499 9.5
s-5.16602 10.833 -2.49902 17.5c6 13.333 14.5 22 25.5 26s22.833 4.33301 35.5 1s25 -9.83301 37 -19.5s21.5 -21.167 28.5 -34.5s11 -28 12 -44s-3.16699 -32 -12.5 -48c-8.66699 1.33301 -15.667 2.33301 -21 3s-8.66602 0 -9.99902 -2
c-9.33301 -10 -11.166 -17.833 -5.49902 -23.5s14.334 -7.16699 26.001 -4.5s24.167 10.167 37.5 22.5s24 32.166 32 59.499l-163 408c-3.33301 12 -9 22.167 -17 30.5s-17.333 16.166 -28 23.499h149c-12 -17.333 -18 -36.666 -18 -57.999l116 -287
c10 36.667 21 74.667 33 114s22.333 77.666 31 114.999c4 15.333 6.33301 28.5 7 39.5s1.33398 20.167 2.00098 27.5c1.33301 8.66699 1.5 17.5 0.5 26.5s-2.83301 16.5 -5.5 22.5h115c-8 -8.66699 -15.5 -18.834 -22.5 -30.501s-12.833 -22.5 -17.5 -32.5h2
c-1.33301 -1.33301 -2.5 -4.16602 -3.5 -8.49902s-2.5 -10.166 -4.5 -17.499c-0.666992 -4.66699 -1.83398 -9.16699 -3.50098 -13.5s-3.5 -9.83301 -5.5 -16.5l-13 -48l-17 -63.5c-6 -23 -12.667 -47 -20 -72l-21.5 -74c-7 -24.333 -14.333 -47.333 -22 -69
s-15.167 -40.834 -22.5 -57.501c-10 -24 -21.833 -44.333 -35.5 -61s-28.834 -28.834 -45.501 -36.501s-34.667 -10.167 -54 -7.5s-39 11.334 -59 26.001z" />
    <glyph glyph-name="afii10086" unicode="&#x444;" horiz-adv-x="657" 
d="M240 0c14 11.333 24.4961 23.833 31.4961 37.5s9.83301 33.167 8.5 58.5c-37.333 -2.66699 -69.166 -1.83398 -95.499 2.49902s-49.333 13.333 -69 27s-36.5 32.5 -50.5 56.5s-27 54.333 -39 91c-4 16 -11.333 26.333 -22 31c12 4.66699 19.167 12.667 21.5 24
s4.16602 23.333 5.49902 36c4.66699 30 15.334 55.833 32.001 77.5s36.667 39.334 60 53.001s48.833 22.667 76.5 27s54.5 4.16602 80.5 -0.500977c0 11.333 -2.5 24.666 -7.5 39.999s-12.833 30 -23.5 44h149c-10.667 -14 -18.5 -28.667 -23.5 -44
s-7.5 -28.666 -7.5 -39.999c26 4.66699 52.833 4.83398 80.5 0.500977s53.167 -13.333 76.5 -27s43.333 -31.334 60 -53.001s27.334 -47.5 32.001 -77.5c0.666992 -12.667 2.33398 -24.667 5.00098 -36s10 -19.333 22 -24c-10.667 -4.66699 -18 -15 -22 -31
c-12 -36.667 -25 -67 -39 -91s-30.833 -42.833 -50.5 -56.5s-42.667 -22.667 -69 -27s-58.166 -5.16602 -95.499 -2.49902c-1.33301 -25.333 1.5 -44.833 8.5 -58.5s17.5 -26.167 31.5 -37.5h-167zM133.996 243c0 -16 1.83398 -31.333 5.50098 -46s10.667 -27.167 21 -37.5
s25.166 -17.5 44.499 -21.5s44.333 -3 75 3v337c-40 9.33301 -73.167 5.83301 -99.5 -10.5s-41.833 -44.5 -46.5 -84.5v-140zM514.997 383c-4.66699 40 -20.5 68.167 -47.5 84.5s-60.5 19.833 -100.5 10.5v-337c30.667 -6 55.667 -7 75 -3s34.333 11.167 45 21.5
s18 22.833 22 37.5s6 30 6 46v140z" />
    <glyph glyph-name="afii10087" unicode="&#x445;" horiz-adv-x="391" 
d="M227 1c12 13.333 17.998 29.6719 17.998 49.0049c0 12 -1.16699 23.333 -3.5 34s-5.16602 21.667 -8.49902 33l-18 48.5c-6 16.333 -14 36.833 -24 61.5c-8 -18 -15.833 -36.833 -23.5 -56.5l-22.5 -56.5c-9.33301 -20.667 -14 -40.334 -14 -59.001
c0 -19.333 5.66699 -37.666 17 -54.999h-148c20 18.667 37 38.667 51 60s25.333 43.333 34 66l66 178c-4.66699 15.333 -12.334 38 -23.001 68l-41 114c-16 44.667 -42.667 85 -80 121h160c-4 -10 -7.16699 -19 -9.5 -27s-3.5 -16.333 -3.5 -25
c0 -13.333 3.66699 -31 11 -53l31 -96l20 50l20 52c3.33301 9.33301 6 17.666 8 24.999s3 14.666 3 21.999c0 10.667 -3 27.667 -9 51l136 1c-17.333 -16.667 -32.833 -35.334 -46.5 -56.001s-25.5 -42.667 -35.5 -66c-2 -6.66699 -4.66699 -14.334 -8 -23.001l-10 -26
l-19 -48.5l-22 -55.5l39.5 -102l37.5 -102c4.66699 -10.667 8.83398 -21.334 12.501 -32.001s7.83398 -21 12.501 -31c10.667 -24 29.667 -45.667 57 -65z" />
    <glyph glyph-name="afii10088" unicode="&#x446;" horiz-adv-x="446" 
d="M357 49l80 -0.00585938c-6.66699 -7.33301 -14.334 -16.5 -23.001 -27.5s-16 -23.167 -22 -36.5s-9.83301 -28.166 -11.5 -44.499s1.16602 -34.166 8.49902 -53.499c4 7.33301 13.667 11 29 11c20.667 0 31 -7 31 -21c0 -3.33301 -2.33301 -8 -7 -14l-2 -1
c-4 -2.66699 -8.66699 -4.83398 -14 -6.50098s-11.333 -2.5 -18 -2.5c-25.333 0 -48.666 10 -69.999 30c-27.333 29.333 -41 60 -41 92c6 -1.33301 11.167 -2.16602 15.5 -2.49902s8.83301 -1.16602 13.5 -2.49902c4.66699 0.666992 8 2.33398 10 5.00098
s3 5.33398 3 8.00098c0 13.333 -13 19 -39 17h-288c8.66699 8.66699 15.834 22 21.501 40s9.5 38.333 11.5 61v390c0 22 -2.5 42.333 -7.5 61s-13.167 36.334 -24.5 53.001h154c-22 -36 -33 -74.333 -33 -115v-189l-1 -251h136v54.5c0 23 0.166992 47 0.5 72s0.5 49 0.5 72
v54.5v188c0 38.667 -12.333 76.667 -37 114h155c-21.333 -34.667 -32 -73 -32 -115z" />
    <glyph glyph-name="afii10089" unicode="&#x447;" horiz-adv-x="423" 
d="M293 283c-8 -10 -21.002 -18.498 -39.002 -25.498s-38 -10.167 -60 -9.5c-18 0.666992 -34 2.33398 -48 5.00098s-26.5 7 -37.5 13s-21 14 -30 24s-18.167 22.667 -27.5 38c-13.333 22 -28 36.667 -44 44c24.667 12 37 36 37 72l-1 60c0 16.667 -2.5 33.5 -7.5 50.5
s-13.167 33.833 -24.5 50.5h154c-23.333 -34.667 -35 -69 -35 -103v-36.5v-78.5c0 -62.667 27 -94 81 -94c24 0 43.667 7 59 21s23 34.667 23 62v129c0 40 -12 73.667 -36 101h153l-20 -32c-5.33301 -8.66699 -8.33301 -15 -9 -19c-1.33301 -4 -2.5 -10 -3.5 -18
s-1.16699 -18.667 -0.5 -32c0 -22.667 0.166992 -47.834 0.5 -75.501s0.5 -58.5 0.5 -92.5c0 -34.667 -0.166992 -71.834 -0.5 -111.501s-0.5 -82.167 -0.5 -127.5c-0.666992 -12.667 -0.5 -23 0.5 -31s2.16699 -14 3.5 -18c0.666992 -2.66699 4.66699 -9.66699 12 -21
l8 -13.5c3.33301 -5.66699 6.33301 -10.5 9 -14.5h-152c3.33301 4.66699 6.83301 10.5 10.5 17.5s6.83398 11.833 9.50098 14.5h-1c3.33301 4.66699 5.83301 8 7.5 10s2.83398 3.66699 3.50098 5l-1 -1c1.33301 4.66699 2.5 11.167 3.5 19.5s1.83301 18.166 2.5 29.499v188z
" />
    <glyph glyph-name="afii10090" unicode="&#x448;" horiz-adv-x="623" 
d="M14 0c9.33301 8.66699 16.832 22 22.499 40s9.5 38.333 11.5 61v390c0 22 -2.66699 42.333 -8 61s-13.666 36.334 -24.999 53.001h155c-22 -36 -33 -74.333 -33 -115v-189l-1 -251h136v54.5c0 23 0.166992 47 0.5 72s0.5 49 0.5 72v54.5v188
c0 38.667 -12.333 76.667 -37 114h155c-22.667 -36 -34 -74.333 -34 -115v-189l-1 -251h136v54.5c0 23 0.166992 47 0.5 72s0.5 49 0.5 72v54.5v188c0 38.667 -12.333 76.667 -37 114h155c-11.333 -16.667 -19.5 -34.334 -24.5 -53.001s-7.5 -39 -7.5 -61v-390
c1.33301 -22.667 4.83301 -43 10.5 -61s13.167 -31.333 22.5 -40h-598z" />
    <glyph glyph-name="afii10091" unicode="&#x449;" horiz-adv-x="663" 
d="M14 0c9.33301 8.66699 16.833 21.9941 22.5 39.9941s9.5 38.333 11.5 61v390c0 22 -2.66699 42.333 -8 61s-13.666 36.334 -24.999 53.001h155c-22 -36 -33 -74.333 -33 -115v-189l-1 -251h136v54.5c0 23 0.166992 47 0.5 72s0.5 49 0.5 72v54.5v188
c0 38.667 -12.333 76.667 -37 114h155c-22.667 -36 -34 -74.333 -34 -115v-189l-1 -251h136v54.5c0 23 0.166992 47 0.5 72s0.5 49 0.5 72v54.5v188c0 38.667 -12.333 76.667 -37 114h155c-20.667 -34.667 -31 -73 -31 -115v-441h81
c-6.66699 -7.33301 -14.334 -16.5 -23.001 -27.5s-16 -23.167 -22 -36.5s-10 -28.166 -12 -44.499s0.666992 -34.166 8 -53.499c4 7.33301 13.667 11 29 11c20.667 0 31 -7 31 -21c0 -3.33301 -2.33301 -8 -7 -14l-2 -1c-4 -2.66699 -8.5 -4.83398 -13.5 -6.50098
s-11.167 -2.5 -18.5 -2.5c-25.333 0 -48.333 10 -69 30c-28 29.333 -42 60 -42 92c6 -1.33301 11.333 -2.16602 16 -2.49902s9 -1.16602 13 -2.49902c4.66699 0.666992 8 2.33398 10 5.00098s3 5.33398 3 8.00098c0 13.333 -13 19 -39 17h-509z" />
    <glyph glyph-name="afii10092" unicode="&#x44a;" horiz-adv-x="537" 
d="M306 606c-24.667 -28.667 -37.002 -59.6641 -37.002 -92.9971v-51c0 -18.667 -0.166992 -37.5 -0.5 -56.5s-0.5 -37.833 -0.5 -56.5v-51v-258c22 -0.666992 42.167 -0.5 60.5 0.5s34.333 4 48 9s24 12.167 31 21.5s9.5 22 7.5 38v114c0.666992 16 -2 28.833 -8 38.5
s-13.5 18.167 -22.5 25.5s-19 13.666 -30 18.999s-21.167 11.166 -30.5 17.499s-17 13.666 -23 21.999s-9 19.166 -9 32.499c0 14.667 4.5 26.5 13.5 35.5s22.5 13.5 40.5 13.5c24 0 36 -7.66699 36 -23c0 -16.667 -10.667 -25 -32 -25h-8
c-1.33301 -1.33301 -2 -2.66602 -2 -3.99902c-0.666992 -0.666992 -1 -1.33398 -1 -2.00098c-0.666992 -8.66699 3.16602 -15.834 11.499 -21.501s18.666 -11 30.999 -16l41 -16.5c15 -6 28.833 -13.167 41.5 -21.5s23.5 -18.5 32.5 -30.5s13.833 -27 14.5 -45v-16
c2 -8.66699 5 -17.167 9 -25.5s6 -12.166 6 -11.499c-0.666992 -1.33301 0.333008 -2.16602 3 -2.49902s3.66699 -0.833008 3 -1.5c-1.33301 -2 -2.66602 -3.83301 -3.99902 -5.5s-3.66602 -4.16699 -6.99902 -7.5c-2 -2 -4.66699 -8 -8 -18c-4 -31.333 -20 -60 -48 -86
c-33.333 -32 -78.666 -48 -135.999 -48h-178c20.667 27.333 31 52.666 31 75.999v487c-22.667 0 -38.167 -1.83301 -46.5 -5.5s-12.5 -9.83398 -12.5 -18.501c0 -11.333 6 -17 18 -17l23 8c0 -18 -1.66699 -35.833 -5 -53.5s-9 -33.667 -17 -48s-18.667 -26 -32 -35
s-29.666 -13.5 -48.999 -13.5c-15.333 0 -27.333 3.16699 -36 9.5s-14 13 -16 20s-0.5 13.667 4.5 20s13.167 9.5 24.5 9.5c8.66699 0 15.667 -1.16699 21 -3.5s9.66602 -7.16602 12.999 -14.499c6.66699 14 9.33398 29.833 8.00098 47.5s-5.33301 35.334 -12 53.001
s-16 34 -28 49s-25.667 26.5 -41 34.5h146z" />
    <glyph glyph-name="afii10093" unicode="&#x44b;" horiz-adv-x="571" 
d="M170 606c-24.667 -28.667 -37.0039 -59.665 -37.0039 -92.998v-51c0 -18.667 -0.166992 -37.5 -0.5 -56.5s-0.5 -37.833 -0.5 -56.5v-51v-258c21.333 -0.666992 41.333 -0.5 60 0.5s34.834 4 48.501 9s24 12.167 31 21.5s9.5 22 7.5 38v114
c0.666992 16 -2 28.833 -8 38.5s-13.5 18.167 -22.5 25.5s-19 13.666 -30 18.999s-21 11.166 -30 17.499s-16.667 13.666 -23 21.999s-9.5 19.166 -9.5 32.499c0 14.667 4.5 26.5 13.5 35.5s22.833 13.5 41.5 13.5c24 0 36 -7.66699 36 -23c0 -16.667 -11 -25 -33 -25h-8
c-1.33301 -1.33301 -2 -2.66602 -2 -3.99902l-1 -2c-0.666992 -8.66699 3.16602 -15.834 11.499 -21.501s18.833 -11 31.5 -16l41 -16.5c14.667 -6 28.334 -13.167 41.001 -21.5s23.334 -18.5 32.001 -30.5s13.667 -27 15 -45v-16c2 -8.66699 5 -17.167 9 -25.5
s6 -12.166 6 -11.499c-0.666992 -1.33301 0.333008 -2.16602 3 -2.49902s3.66699 -0.833008 3 -1.5c-1.33301 -2 -2.66602 -3.83301 -3.99902 -5.5s-3.66602 -4.16699 -6.99902 -7.5c-2 -2 -4.66699 -8 -8 -18c-4.66699 -31.333 -20.667 -60 -48 -86
c-34 -32.667 -79.333 -49 -136 -49l-178 1c10.667 14 18.5 27.333 23.5 40s7.5 24.667 7.5 36v435c0 34 -12.333 65.333 -37 94zM399.996 0.00195312c3.33301 4.66699 7.00098 10.5039 11.001 17.5039s7 11.833 9 14.5h-1c3.33301 4.66699 5.83301 8 7.5 10
s2.83398 3.66699 3.50098 5l-1 -1c1.33301 4.66699 2.66602 11.167 3.99902 19.5s2.33301 18.166 3 29.499v410c0 40 -12 73.667 -36 101h153c-8.66699 -12.667 -15.5 -23.334 -20.5 -32.001s-8.16699 -15 -9.5 -19s-2.5 -10 -3.5 -18s-1.16699 -18.667 -0.5 -32
c0 -22.667 0.166992 -47.834 0.5 -75.501s0.5 -58.5 0.5 -92.5c0 -34.667 -0.166992 -71.834 -0.5 -111.501s-0.5 -82.167 -0.5 -127.5c-0.666992 -12.667 -0.5 -23 0.5 -31s2.16699 -14 3.5 -18c0.666992 -2.66699 4.66699 -9.66699 12 -21l8 -13.5
c3.33301 -5.66699 6.66602 -10.5 9.99902 -14.5h-153z" />
    <glyph glyph-name="afii10094" unicode="&#x44c;" horiz-adv-x="401" 
d="M170 606c-24.667 -28.667 -37.0039 -59.665 -37.0039 -92.998v-51c0 -18.667 -0.166992 -37.5 -0.5 -56.5s-0.5 -37.833 -0.5 -56.5v-51v-258c21.333 -0.666992 41.333 -0.5 60 0.5s34.834 4 48.501 9s24 12.167 31 21.5s9.5 22 7.5 38v114
c0.666992 16 -2 28.833 -8 38.5s-13.5 18.167 -22.5 25.5s-19 13.666 -30 18.999s-21 11.166 -30 17.499s-16.667 13.666 -23 21.999s-9.5 19.166 -9.5 32.499c0 14.667 4.5 26.5 13.5 35.5s22.833 13.5 41.5 13.5c24 0 36 -7.66699 36 -23c0 -16.667 -11 -25 -33 -25h-8
c-1.33301 -1.33301 -2 -2.66602 -2 -3.99902l-1 -2c-0.666992 -8.66699 3.16602 -15.834 11.499 -21.501s18.833 -11 31.5 -16l41 -16.5c14.667 -6 28.334 -13.167 41.001 -21.5s23.334 -18.5 32.001 -30.5s13.667 -27 15 -45v-16c2 -8.66699 5 -17.167 9 -25.5
s6 -12.166 6 -11.499c-0.666992 -1.33301 0.333008 -2.16602 3 -2.49902s3.66699 -0.833008 3 -1.5c-1.33301 -2 -2.66602 -3.83301 -3.99902 -5.5s-3.66602 -4.16699 -6.99902 -7.5c-2 -2 -4.66699 -8 -8 -18c-4.66699 -31.333 -20.667 -60 -48 -86
c-34 -32.667 -79.333 -49 -136 -49l-178 1c10.667 14 18.5 27.333 23.5 40s7.5 24.667 7.5 36v435c0 34 -12.333 65.333 -37 94z" />
    <glyph glyph-name="afii10095" unicode="&#x44d;" horiz-adv-x="411" 
d="M276 328c0 24.667 -0.331055 51.1611 -0.998047 79.4941s-4.16699 54.666 -10.5 78.999s-16.5 44.5 -30.5 60.5s-33.667 24.667 -59 26l2 2c-49.333 -2.66699 -74 -13.667 -74 -33c0 -14 8.66699 -21 26 -21c2.66699 0 9 1.66699 19 5
c2.66699 -6.66699 4.33398 -13 5.00098 -19s1 -12.333 1 -19c0 -28 -7.33301 -53.333 -22 -76c-16.667 -24 -41 -35.667 -73 -35c-30.667 0.666992 -46 9.33398 -46 26.001c0 16 10.667 24 32 24c11.333 0 21 -4 29 -12c1.33301 2.66699 2 9.33398 2 20.001
c0 13.333 -2.16699 28.5 -6.5 45.5s-10.166 34.167 -17.499 51.5c-15.333 37.333 -32.333 60 -51 68l30 16c12 -7.33301 22.167 -12.5 30.5 -15.5s15.5 -4.5 21.5 -4.5c1.33301 0 5.33301 0.833008 12 2.5s13.334 3.83398 20.001 6.50098c18 6.66699 38 10 60 10
c98 0 160 -69.667 186 -209v-1c0 -0.666992 0.333008 -1.33398 1 -2.00098c1.33301 -7.33301 2.66602 -16.5 3.99902 -27.5s3.33301 -24.167 6 -39.5c2.66699 -12 12 -21.333 28 -28c-5.33301 -4.66699 -9.66602 -9.66699 -12.999 -15l-13 -20
c-0.666992 -3.33301 -1.83398 -10.333 -3.50098 -21l-4.5 -28c0 -1.33301 -0.166992 -2.16602 -0.5 -2.49902s-0.5 -0.833008 -0.5 -1.5c-8.66699 -68 -21.667 -116.333 -39 -145v1c-28.667 -54 -76.667 -81 -144 -81c-22 0 -42 3 -60 9
c-6.66699 2.66699 -13.167 4.83398 -19.5 6.50098s-10.5 2.5 -12.5 2.5c-6 0 -13.167 -1.5 -21.5 -4.5s-18.166 -7.83301 -29.499 -14.5l-31 15c18.667 8.66699 35.667 31.334 51 68.001c7.33301 17.333 13.166 34.5 17.499 51.5s6.5 32.5 6.5 46.5
c0 10 -0.666992 16.333 -2 19c-8 -7.33301 -17.667 -11 -29 -11c-21.333 0 -32 7.66699 -32 23c0 16.667 15.667 25.334 47 26.001s55.333 -11 72 -35c14.667 -22.667 22 -48 22 -76c0 -6 -0.333008 -12 -1 -18s-2 -12.333 -4 -19c-10.667 2.66699 -17.334 4 -20.001 4
c-17.333 0 -26 -7 -26 -21c0 -19.333 24.667 -30.333 74 -33c21.333 -1.33301 38.666 6.5 51.999 23.5s23.333 39.833 30 68.5c3.33301 17.333 5.66602 39.5 6.99902 66.5s2.33301 58.5 3 94.5h-1h-51c0 -2.66699 0.166992 -5.66699 0.5 -9s0.5 -8.16602 0.5 -14.499v-26.5
v-44l-41 -1c0 13.333 -0.833008 24.833 -2.5 34.5s-4.83398 19.5 -9.50098 29.5c-10 26 -28.667 41.333 -56 46v9c9.33301 4 18.333 9.33301 27 16s16 14.167 22 22.5s10.667 17 14 26s5 17.833 5 26.5v8.5c0 2.33301 -0.666992 5.83301 -2 10.5h43v-93h51z" />
    <glyph glyph-name="afii10096" unicode="&#x44e;" horiz-adv-x="587" 
d="M143 115c0 -40.667 10.999 -79.001 32.999 -115.001h-154c11.333 16.667 19.5 34.334 24.5 53.001s7.5 38.667 7.5 60v382c0 40.667 -11.333 77.334 -34 110.001h156c-22 -33.333 -33 -70 -33 -110v-167h32c12.667 0.666992 20.834 3 24.501 7s6.16699 11 7.5 21
c2.66699 14 5 29.667 7 47s5.33301 40 10 68c4.66699 34.667 18.334 65.667 41.001 93c28 32.667 65 49 111 49c45.333 0 82 -16.333 110 -49c26.667 -30 40 -61.333 40 -94c-0.666992 -39.333 6 -81.666 20 -126.999c4.66699 -15.333 16 -28.333 34 -39l-1 -8
c-35.333 -14.667 -53 -68.334 -53 -161.001c0 -17.333 -3.5 -34 -10.5 -50s-17.167 -31 -30.5 -45c-28.667 -32 -66 -48 -112 -48c-48.667 0 -86.334 16 -113.001 48c-23.333 28.667 -36.333 60.334 -39 95.001c-0.666992 19.333 -2.16699 40.166 -4.5 62.499
s-5.16602 43.166 -8.49902 62.499c-3.33301 9.33301 -5.83301 16 -7.5 20s-6.83398 8 -15.501 12c-0.666992 0 -2.5 0.166992 -5.5 0.5s-6.83301 0.5 -11.5 0.5h-14h-11v-178zM451.999 301.999c0 0.666992 -1 15.1631 -3 43.4961l-9 126.5
c-1.33301 17.333 -2.66602 31.333 -3.99902 42s-3 18.334 -5 23.001c-10.667 23.333 -29.667 35 -57 35c-26 0 -44 -11.667 -54 -35c-2.66699 -5.33301 -5 -13.5 -7 -24.5s-3.66699 -24.5 -5 -40.5c-1.33301 -20 -2.5 -38.833 -3.5 -56.5s-2.16699 -33.167 -3.5 -46.5
c-0.666992 -19.333 -1.33398 -34.333 -2.00098 -45s-1 -17 -1 -19c0 -3.33301 0.5 -14.333 1.5 -33s2.5 -45 4.5 -79l2 -30c0.666992 -10 1.33398 -21 2.00098 -33c2 -32 5.66699 -53.333 11 -64c10.667 -23.333 29 -35 55 -35c27.333 0 46.333 11.667 57 35
c2 4.66699 3.66699 12.334 5 23.001s2.66602 24.334 3.99902 41.001l9 128c2 28.667 3 43.334 3 44.001z" />
    <glyph glyph-name="afii10097" unicode="&#x44f;" horiz-adv-x="400" 
d="M118 489l-0.00195312 -16.502c0 -6.33301 0.333008 -13.833 1 -22.5v-49c0 -54.667 26.333 -82.667 79 -84c12 -0.666992 23.333 -1 34 -1h31v247h-53c-29.333 -3.33301 -51.666 -11.166 -66.999 -23.499s-23.666 -29.166 -24.999 -50.499zM-20.002 -105.002
l15.0049 26.002c3.33301 6.66699 7.16602 13.667 11.499 21l11.5 20c20.667 41.333 40 88.5 58 141.5s33 107.833 45 164.5c0 3.33301 0.166992 6.33301 0.5 9s0.833008 4.66699 1.5 6c0 1.33301 0.166992 2.5 0.5 3.5s0.5 1.83301 0.5 2.5
c-25.333 13.333 -46.5 30.333 -63.5 51s-27.833 43.334 -32.5 68.001c-2 8 -5 16.167 -9 24.5l-6 12.5c0.666992 0.666992 -0.333008 1.16699 -3 1.5s-3.66699 1.16602 -3 2.49902c1.33301 2 2.66602 3.83301 3.99902 5.5s3.66602 4.16699 6.99902 7.5
c2 1.33301 4.66699 7.33301 8 18c27.333 82.667 83 124.667 167 126h197c-25.333 -18 -38 -45 -38 -81v-444c0 -37.333 13.333 -64.333 40 -81h-171c28 18.667 42 47 42 85c0 32 -0.166992 64 -0.5 96s-0.5 64 -0.5 96
c-10.667 -0.666992 -18.334 -0.833984 -23.001 -0.500977s-9.33398 0.5 -14.001 0.5l-36.5 -91l-36.5 -92c-18.667 -40.667 -36.5 -74.834 -53.5 -102.501s-34.167 -49.5 -51.5 -65.5z" />
    <glyph glyph-name="afii10071" unicode="&#x451;" 
d="M417 211c0 -16 -11.668 -23.999 -35.001 -23.999c-20 0 -30 6.66699 -30 20c0 2.66699 1 4 3 4c-8 -1.33301 -12 -10.333 -12 -27c0 -66 21.333 -127.333 64 -184h-399c2 2.66699 4.66699 6.66699 8 12s5.66602 9.33301 6.99902 12c2 3.33301 3.83301 6 5.5 8
s3.16699 4.66699 4.5 8c8 16.667 12 37.334 12 62.001v409c0 34 -12.333 65.333 -37 94h379c-18.667 -14 -33 -36.667 -43 -68c-8.66699 -26 -13 -48.667 -13 -68c0 -8.66699 1.66699 -19.667 5 -33c0.666992 -6 2.33398 -11.333 5.00098 -16c6 12.667 17.667 19 35 19
c24 0 36 -7.66699 36 -23c0 -22 -19 -33 -57 -33s-69 16.667 -93 50c-18.667 29.333 -28.334 60.333 -29.001 93c4.66699 -0.666992 9 -1.33398 13 -2.00098s7.33301 -1 10 -1c10.667 0 16 5.33301 16 16c0 15.333 -19.667 23 -59 23h-83v-230h54v97h42
c-1.33301 -4.66699 -2 -8.16699 -2 -10.5v-8.5c0 -8.66699 1.66699 -17.834 5 -27.501s8 -18.834 14 -27.501s13 -16.667 21 -24s17.333 -12.666 28 -15.999v-9c-28 -4.66699 -46.667 -20 -56 -46c-9.33301 -19.333 -13.333 -42.333 -12 -69l-41 1v50
c0 12 -0.166992 21.667 -0.5 29s-0.166016 14 0.500977 20h-49l-1 -249h86c47.333 0 71 9 71 27c0 10.667 -5 16 -15 16c-0.666992 0 -2.66699 -0.333008 -6 -1s-9.33301 -2.66699 -18 -6c0 42 7.66699 77 23 105c10.667 18.667 23.834 33 39.501 43s34.167 15 55.5 15
c32 0 48 -10 48 -30zM167.999 677.001c0 -27.333 -16.333 -41 -49 -41c-34.667 0 -52 13.667 -52 41c0 26 17.333 39 52 39c32.667 0 49 -13 49 -39zM322.999 677.001c0 -27.333 -17 -41 -51 -41c-34.667 0 -52 13.667 -52 41c0 26 17.333 39 52 39c34 0 51 -13 51 -39z" />
    <glyph glyph-name="afii10101" unicode="&#x454;" horiz-adv-x="370" 
d="M160 295l0.00195312 83.998h39c-1.33301 -4 -2 -7.16699 -2 -9.5v-7.5c0 -8 1.5 -16 4.5 -24s7.16699 -15.833 12.5 -23.5s12 -14.5 20 -20.5s16 -10.667 24 -14v-8c-24.667 -4.66699 -41.334 -18.667 -50.001 -42c-4 -8.66699 -6.83301 -17.334 -8.5 -26.001
s-2.5 -19 -2.5 -31l-37 1v39.5v24c0 5.66699 0.166992 10 0.5 13s0.5 5.5 0.5 7.5h-46h-1c0.666992 -32 1.66699 -60.167 3 -84.5s3.33301 -44.5 6 -60.5c6 -25.333 15 -45.666 27 -60.999s27.667 -22.333 47 -21c44.667 2 67 11.667 67 29c0 12.667 -8 19 -24 19
c-2 0 -8 -1 -18 -3c-1.33301 6 -2.33301 11.667 -3 17s-1 10.666 -1 15.999c0 25.333 6.66699 48 20 68c14.667 22 36 32.667 64 32c28.667 -0.666992 43 -8.66699 43 -24c0 -13.333 -9.66699 -20 -29 -20c-10 0 -18.667 3.33301 -26 10
c-1.33301 -2.66699 -2 -8.66699 -2 -18c0 -12 2 -25.667 6 -41s9.33301 -31 16 -47c13.333 -32.667 28.333 -53 45 -61l-27 -13c-10.667 6 -19.667 10.333 -27 13s-13.666 4 -18.999 4c-2 0 -5.83301 -0.833008 -11.5 -2.5s-11.5 -3.5 -17.5 -5.5c-16 -6 -34 -9 -54 -9
c-60.667 0 -104 24.333 -130 73v-1c-15.333 26 -27 69.667 -35 131c0 0.666992 -0.166992 1.16699 -0.5 1.5s-0.5 1.16602 -0.5 2.49902c-1.33301 6.66699 -2.66602 14.834 -3.99902 24.501s-2.33301 16.167 -3 19.5c-4.66699 6.66699 -8.5 12.5 -11.5 17.5
s-6.83301 9.5 -11.5 13.5c14 6 22.333 14.333 25 25l5 36c1.33301 10 2.66602 18.333 3.99902 25l1 1v1c23.333 125.333 79 188 167 188c20 0 38 -3 54 -9c6 -2 12 -3.83301 18 -5.5s9.66699 -2.5 11 -2.5c5.33301 0 11.833 1.33301 19.5 4s16.834 7.33398 27.501 14.001
l27 -14c-16.667 -7.33301 -32 -27.666 -46 -60.999c-6.66699 -16 -12 -31.667 -16 -47s-6 -29 -6 -41c0 -9.33301 0.666992 -15.333 2 -18c7.33301 7.33301 16 11 26 11c19.333 0 29 -7 29 -21c0 -15.333 -13.667 -23.333 -41 -24c-29.333 -0.666992 -51.333 10 -66 32
c-13.333 20 -20 42.667 -20 68c0 6 0.333008 11.667 1 17s2 11 4 17c9.33301 -2.66699 15.333 -4 18 -4c15.333 0 23 6.33301 23 19c0 17.333 -22.333 27 -67 29l2 -1c-22.667 -1.33301 -40.334 -9.16602 -53.001 -23.499s-21.834 -32.5 -27.501 -54.5
s-8.83398 -45.833 -9.50098 -71.5s-1 -49.5 -1 -71.5h46z" />
    <glyph glyph-name="afii10103" unicode="&#x456;" horiz-adv-x="175" 
d="M10 0l10 17.502c4 7 7.33301 11.833 10 14.5h-1c2.66699 4.66699 5 8 7 10s3.33301 3.66699 4 5l-1 -1c0.666992 4.66699 1.66699 11.167 3 19.5s2.33301 18.166 3 29.499v409c0 40 -12 73.667 -36 101h153c-8.66699 -12.667 -15.5 -23.334 -20.5 -32.001
s-8.16699 -15 -9.5 -19s-2.33301 -10 -3 -18s-0.666992 -18.667 0 -32c0 -22.667 0.166992 -47.834 0.5 -75.501s0.5 -58.5 0.5 -92.5c0 -34.667 -0.166992 -71.667 -0.5 -111s-0.5 -81.666 -0.5 -126.999c-0.666992 -12.667 -0.666992 -23 0 -31s1.66699 -14 3 -18
c0.666992 -2.66699 5 -9.66699 13 -21c2 -3.33301 4.5 -7.83301 7.5 -13.5s6.16699 -10.5 9.5 -14.5h-152z" />
    <glyph glyph-name="afii10104" unicode="&#x457;" horiz-adv-x="175" 
d="M10 0l10 17.502c4 7 7.33301 11.833 10 14.5h-1c2.66699 4.66699 5 8 7 10s3.33301 3.66699 4 5l-1 -1c0.666992 4.66699 1.66699 11.167 3 19.5s2.33301 18.166 3 29.499v409c0 40 -12 73.667 -36 101h153c-8.66699 -12.667 -15.5 -23.334 -20.5 -32.001
s-8.16699 -15 -9.5 -19s-2.33301 -10 -3 -18s-0.666992 -18.667 0 -32c0 -22.667 0.166992 -47.834 0.5 -75.501s0.5 -58.5 0.5 -92.5c0 -34.667 -0.166992 -71.667 -0.5 -111s-0.5 -81.666 -0.5 -126.999c-0.666992 -12.667 -0.666992 -23 0 -31s1.66699 -14 3 -18
c0.666992 -2.66699 5 -9.66699 13 -21c2 -3.33301 4.5 -7.83301 7.5 -13.5s6.16699 -10.5 9.5 -14.5h-152zM59 677.002c0 -27.333 -16.333 -41 -49 -41c-34.667 0 -52 13.667 -52 41c0 26 17.333 39 52 39c32.667 0 49 -13 49 -39zM214 677.002c0 -27.333 -17 -41 -51 -41
c-34.667 0 -52 13.667 -52 41c0 26 17.333 39 52 39c34 0 51 -13 51 -39z" />
    </font>
</defs>
</svg>
